{"glyphs":{"0":{"ha":931,"x_min":69,"x_max":861,"o":"m 178 733 q 69 417 69 613 q 178 101 69 221 q 465 -19 288 -19 q 752 101 643 -19 q 861 417 861 221 q 752 733 861 613 q 465 853 643 853 q 233 793 288 853 q 178 733 178 733 m 682 703 q 764 417 764 594 q 727 210 764 300 q 622 72 690 121 q 465 22 554 22 q 249 131 331 22 q 167 417 167 239 q 249 703 167 594 q 465 811 331 811 q 641 757 600 811 q 682 703 682 703 "},"1":{"ha":478,"x_min":92,"x_max":396,"o":"m 199 89 q 176 36 199 58 q 124 14 154 14 l 94 14 l 93 0 l 394 0 l 394 14 l 365 14 q 328 24 344 14 q 289 89 289 46 l 289 744 q 311 797 289 775 q 364 819 333 819 l 393 819 l 393 833 l 93 833 l 93 819 l 122 819 q 176 798 153 819 q 199 746 199 776 l 199 89 "},"2":{"ha":768,"x_min":79,"x_max":725,"o":"m 351 853 q 212 831 283 853 q 101 774 140 808 l 125 632 l 139 632 q 195 767 136 719 q 357 815 254 815 q 501 762 447 815 q 554 613 554 708 q 81 13 554 401 l 81 0 l 657 0 l 724 181 l 710 181 q 638 99 671 121 q 546 78 606 78 l 221 78 q 266 113 226 82 q 321 155 306 143 q 376 200 336 167 q 436 252 417 233 q 491 306 456 271 q 545 365 526 340 q 589 424 564 389 q 658 615 658 519 q 575 789 658 725 q 351 853 492 853 "},"3":{"ha":699,"x_min":83,"x_max":603,"o":"m 85 751 l 108 622 l 122 622 q 122 636 122 629 q 167 759 122 710 q 297 808 213 808 q 425 759 381 808 q 469 632 469 710 q 433 515 469 568 q 338 435 396 463 q 217 408 279 408 q 215 408 215 408 l 213 394 q 419 337 342 394 q 497 174 497 279 q 440 -10 497 68 q 292 -129 383 -89 q 100 -169 201 -169 q 86 -169 93 -169 l 83 -183 q 180 -192 131 -192 q 282 -181 229 -192 q 560 10 472 -139 q 601 173 601 81 q 538 331 601 265 q 385 413 474 397 q 515 489 456 419 q 575 647 575 558 q 503 793 575 736 q 324 850 432 850 q 85 751 172 850 "},"4":{"ha":810,"x_min":56,"x_max":728,"o":"m 578 207 l 699 207 l 728 311 l 714 311 q 687 289 700 294 q 638 283 674 283 l 578 283 l 578 853 l 564 853 l 56 221 l 56 207 l 488 207 l 488 -53 q 464 -104 486 -83 q 410 -125 442 -125 l 396 -125 l 394 -139 l 669 -139 l 669 -125 l 654 -125 q 594 -97 622 -125 q 578 -51 578 -82 l 578 207 m 488 283 l 160 283 l 488 689 l 488 283 "},"5":{"ha":692,"x_min":68,"x_max":589,"o":"m 150 488 l 214 707 l 540 728 l 586 874 l 572 874 q 463 804 538 804 l 188 783 l 79 407 l 92 401 q 253 428 181 428 q 435 358 375 428 q 483 222 483 301 q 444 67 483 142 q 364 -39 411 3 q 262 -111 317 -81 q 160 -155 207 -142 q 94 -168 113 -168 q 72 -168 75 -168 l 69 -182 q 136 -185 103 -185 q 318 -142 194 -185 q 414 -90 367 -124 q 499 -16 461 -57 q 562 88 536 25 q 588 229 588 151 q 408 485 588 421 q 291 504 354 504 q 150 488 228 504 "},"6":{"ha":778,"x_min":89,"x_max":703,"o":"m 411 510 q 511 481 469 510 q 597 272 597 424 q 550 95 597 169 q 404 21 503 21 q 250 118 306 21 q 194 378 194 215 q 279 768 194 601 q 394 917 322 854 q 563 1010 465 979 l 557 1019 q 296 900 401 1001 q 142 663 192 801 q 90 367 90 518 q 178 84 90 189 q 405 -21 265 -21 q 624 74 544 -21 q 701 271 701 165 q 661 450 701 376 q 574 536 625 511 q 464 561 522 561 q 349 531 406 561 q 249 450 292 501 l 257 438 q 411 510 311 510 "},"7":{"ha":697,"x_min":49,"x_max":643,"o":"m 167 757 l 558 757 l 436 436 q 210 -139 367 256 q 307 -139 307 -139 q 391 140 331 -39 q 493 431 451 318 l 643 831 l 88 831 l 49 674 l 63 674 q 103 737 79 717 q 167 757 126 757 "},"8":{"ha":767,"x_min":82,"x_max":685,"o":"m 683 243 q 636 393 683 328 q 463 518 589 456 q 589 610 544 547 q 633 757 633 674 q 565 929 633 867 q 383 992 496 992 q 201 925 271 992 q 133 760 133 860 q 283 508 133 617 q 135 398 186 463 q 83 238 83 333 q 165 53 83 126 q 383 -19 246 -19 q 601 53 519 -19 q 683 243 683 126 m 238 778 q 276 899 238 849 q 383 950 315 950 q 490 901 451 950 q 529 768 529 851 q 411 543 529 631 l 381 560 q 238 778 238 642 m 188 233 q 325 482 188 389 q 406 438 357 463 q 438 422 426 428 q 467 405 449 415 q 497 385 486 394 q 523 363 508 376 q 547 336 538 350 q 567 298 556 322 q 579 224 579 274 q 529 81 579 140 q 385 22 479 22 q 240 80 292 22 q 188 233 188 138 "},"9":{"ha":778,"x_min":76,"x_max":688,"o":"m 318 271 q 432 299 375 271 q 529 379 489 328 l 522 392 q 479 354 503 369 q 365 319 426 319 q 231 384 281 319 q 182 558 182 449 q 228 736 182 664 q 369 808 275 808 q 583 419 583 808 q 499 56 583 224 q 383 -92 456 -31 q 217 -181 311 -154 l 221 -190 q 393 -139 314 -182 q 615 114 535 -62 q 688 450 688 269 q 603 745 688 640 q 380 850 518 850 q 158 763 242 850 q 78 543 78 678 q 114 383 78 449 q 318 271 178 271 "}," ":{"ha":347,"x_min":0,"x_max":0,"o":""},"!":{"ha":319,"x_min":96,"x_max":222,"o":"m 194 560 l 211 975 l 107 975 l 124 560 l 151 236 l 165 236 l 194 560 m 204 13 q 222 57 222 31 q 204 101 222 83 q 160 119 186 119 q 115 101 133 119 q 97 57 97 83 q 115 13 97 31 q 160 -6 133 -6 q 195 3 186 -6 q 204 13 204 13 "},"\"":{"ha":438,"x_min":69,"x_max":369,"o":"m 69 701 l 82 694 q 148 778 122 717 q 181 890 174 839 q 189 963 189 940 q 189 992 189 985 l 92 972 q 94 874 94 929 q 69 701 94 819 m 250 701 l 263 694 q 328 778 303 717 q 362 890 354 839 q 369 963 369 940 q 369 992 369 985 l 272 972 q 275 874 275 929 q 250 701 275 819 "},"#":{"ha":744,"x_min":26,"x_max":717,"o":"m 717 649 l 717 690 l 568 690 l 617 972 l 572 972 l 524 690 l 290 690 l 339 972 l 294 972 l 246 690 l 89 690 l 89 649 l 238 649 l 185 343 l 28 343 l 28 301 l 176 301 l 124 0 l 168 0 l 221 301 l 454 301 l 401 0 l 446 0 l 499 301 l 656 301 l 656 343 l 507 343 l 560 649 l 717 649 m 463 343 l 229 343 l 282 649 l 515 649 l 463 343 "},"$":{"ha":651,"x_min":75,"x_max":576,"o":"m 82 57 q 261 -15 138 -1 l 251 -137 l 293 -142 l 303 -19 q 544 101 478 -18 q 576 253 576 160 q 507 410 576 346 l 347 558 l 376 947 q 444 924 415 942 q 506 807 506 885 l 518 807 l 518 978 l 465 978 q 381 990 425 986 l 388 1093 l 346 1094 l 338 992 q 168 924 236 992 q 100 755 100 856 q 175 585 100 654 l 299 471 l 264 25 q 147 92 186 38 q 108 221 108 146 q 110 250 108 235 l 97 250 q 76 132 76 188 q 82 57 76 76 m 335 949 l 307 594 l 235 663 q 178 783 178 714 q 224 899 178 853 q 335 949 269 946 m 306 22 l 338 435 l 442 338 q 496 208 496 288 q 442 76 496 128 q 306 22 388 25 "},"%":{"ha":950,"x_min":61,"x_max":890,"o":"m 432 917 q 519 886 485 889 q 588 892 553 883 q 618 902 600 894 q 644 913 636 910 q 670 927 651 917 q 693 939 689 938 l 199 0 l 233 -15 l 751 972 l 721 985 q 673 958 717 983 q 598 923 629 933 q 530 913 567 913 q 432 946 493 913 q 352 985 378 978 q 303 992 326 992 q 151 924 215 992 q 61 661 61 831 q 89 567 61 611 q 214 501 129 501 q 363 567 299 501 q 454 828 454 661 q 432 917 454 874 m 374 746 q 315 588 356 646 q 219 529 274 529 q 144 588 165 529 q 133 685 133 618 q 165 838 133 751 q 296 964 213 964 q 371 906 350 964 q 382 833 382 874 q 374 746 382 793 m 588 404 q 497 140 497 311 q 525 47 497 92 q 650 -19 565 -19 q 799 47 735 -19 q 890 311 890 140 q 863 404 890 360 q 738 471 822 471 q 588 404 653 471 m 810 225 q 751 67 792 125 q 656 8 710 8 q 581 67 601 8 q 569 138 569 97 q 578 225 569 179 q 637 385 596 326 q 732 443 678 443 q 807 385 786 443 q 818 313 818 354 q 810 225 818 272 "},"&":{"ha":1136,"x_min":88,"x_max":1589,"o":"m 1589 -97 l 1582 -85 q 1392 -135 1479 -135 q 1239 -112 1304 -135 q 956 50 1097 -64 l 867 122 q 982 269 935 186 q 1064 569 1064 417 q 889 974 1064 814 q 690 1096 807 1049 l 683 1088 q 900 919 817 1018 q 1008 717 983 821 q 1025 579 1025 649 q 958 310 1025 433 q 835 149 910 217 q 526 413 656 300 q 340 600 396 525 q 283 764 283 675 q 332 897 283 843 q 465 950 381 950 q 606 892 550 950 q 665 736 661 835 l 679 736 l 699 893 q 453 992 611 992 q 258 925 328 992 q 189 759 189 858 q 249 568 189 660 q 131 463 174 529 q 89 308 89 397 q 167 113 89 193 q 353 4 242 35 q 508 -18 429 -18 q 793 65 667 -18 q 950 -60 886 -11 q 1089 -146 1014 -110 q 1318 -203 1213 -203 q 1589 -97 1467 -203 m 310 100 q 189 324 189 190 q 272 535 189 457 q 449 357 329 461 q 761 92 568 253 q 533 25 654 25 q 310 100 408 25 "},"'":{"ha":236,"x_min":49,"x_max":168,"o":"m 49 701 l 61 694 q 127 778 101 717 q 160 890 153 839 q 168 963 168 940 q 168 992 168 985 l 71 972 q 74 874 74 929 q 49 701 74 819 "},"(":{"ha":469,"x_min":124,"x_max":429,"o":"m 222 469 q 282 814 222 664 q 429 1006 342 964 l 421 1017 q 211 818 297 974 q 125 466 125 663 q 213 94 125 269 q 418 -139 299 -76 l 426 -126 q 284 102 346 -71 q 222 372 222 275 q 222 469 222 469 "},")":{"ha":469,"x_min":40,"x_max":346,"o":"m 249 469 q 185 99 249 275 q 44 -126 125 -71 l 53 -139 q 258 97 171 -76 q 346 472 346 269 q 260 818 346 663 q 50 1017 174 974 l 42 1006 q 188 814 128 964 q 249 567 249 664 q 249 469 249 469 "},"*":{"ha":536,"x_min":50,"x_max":488,"o":"m 483 865 l 488 915 l 454 953 l 326 892 l 275 851 l 297 914 l 314 1054 l 268 1074 l 222 1054 l 242 914 l 264 851 l 211 892 l 83 951 l 50 914 l 54 865 l 194 839 l 260 840 l 206 804 l 108 700 l 135 658 l 183 647 l 250 771 l 269 835 l 288 771 l 356 647 l 404 658 l 431 701 l 332 804 l 278 840 l 344 839 l 483 865 "},"+":{"ha":668,"x_min":54,"x_max":614,"o":"m 614 461 l 365 461 l 365 710 l 303 710 l 303 461 l 56 461 l 56 399 l 303 399 l 303 151 l 365 151 l 365 399 l 614 399 l 614 461 "},",":{"ha":257,"x_min":63,"x_max":196,"o":"m 63 -112 l 65 -124 q 144 -93 110 -122 q 196 19 196 -53 q 181 81 196 43 q 124 119 165 119 q 78 92 90 119 q 75 56 71 75 q 99 21 78 46 q 126 -44 126 -10 q 113 -78 126 -56 q 63 -112 100 -100 "},"-":{"ha":528,"x_min":47,"x_max":481,"o":"m 47 406 l 56 374 l 472 374 l 481 406 l 472 436 l 56 436 l 47 406 "},".":{"ha":249,"x_min":63,"x_max":188,"o":"m 169 13 q 188 57 188 31 q 169 101 188 83 q 125 119 151 119 q 81 101 99 119 q 63 57 63 83 q 81 13 63 31 q 125 -6 99 -6 q 160 3 151 -6 q 169 13 169 13 "},"/":{"ha":564,"x_min":10,"x_max":554,"o":"m 10 7 l 53 -19 l 554 967 l 511 992 l 10 7 "},":":{"ha":249,"x_min":63,"x_max":188,"o":"m 169 544 q 188 588 188 563 q 169 633 188 614 q 125 651 151 651 q 81 633 99 651 q 63 588 63 614 q 81 544 63 563 q 125 526 99 526 q 160 535 151 526 q 169 544 169 544 m 169 13 q 188 57 188 31 q 169 101 188 83 q 125 119 151 119 q 81 101 99 119 q 63 57 63 83 q 81 13 63 31 q 125 -6 99 -6 q 160 3 151 -6 q 169 13 169 13 "},";":{"ha":256,"x_min":63,"x_max":196,"o":"m 169 584 q 188 628 188 603 q 169 672 188 654 q 125 690 151 690 q 81 672 99 690 q 63 628 63 654 q 81 584 63 603 q 125 565 99 565 q 160 575 151 565 q 169 584 169 584 m 63 -112 l 65 -124 q 144 -93 110 -122 q 196 19 196 -53 q 181 81 196 43 q 124 119 165 119 q 78 92 90 119 q 75 56 71 75 q 99 21 78 46 q 126 -44 126 -10 q 113 -78 126 -56 q 63 -112 100 -100 "},"<":{"ha":668,"x_min":56,"x_max":614,"o":"m 614 726 l 56 461 l 56 399 l 614 133 l 614 200 l 138 431 l 614 660 l 614 726 "},"=":{"ha":668,"x_min":56,"x_max":614,"o":"m 56 506 l 614 506 l 614 568 l 56 568 l 56 506 m 56 263 l 614 263 l 614 325 l 56 325 l 56 263 "},">":{"ha":668,"x_min":56,"x_max":614,"o":"m 56 726 l 56 660 l 531 431 l 56 200 l 56 133 l 614 399 l 614 461 l 56 726 "},"?":{"ha":574,"x_min":28,"x_max":506,"o":"m 233 992 q 113 959 167 992 q 28 868 60 926 l 42 736 l 56 736 q 56 744 56 740 q 103 894 56 838 q 233 950 150 950 q 322 926 285 950 q 400 756 400 879 q 331 582 400 667 q 272 513 301 546 q 203 369 203 432 q 264 236 203 293 l 272 243 q 249 309 249 275 q 258 371 249 343 q 357 503 275 428 q 449 601 403 544 q 504 756 504 669 q 432 929 504 867 q 233 992 360 992 m 294 13 q 313 57 313 31 q 294 101 313 83 q 251 119 276 119 q 206 101 225 119 q 188 57 188 83 q 206 13 188 31 q 251 -6 225 -6 q 285 3 276 -6 q 294 13 294 13 "},"@":{"ha":1357,"x_min":82,"x_max":1275,"o":"m 135 166 q 261 101 189 101 q 393 156 333 101 q 536 325 453 208 l 764 325 l 772 176 q 753 140 772 154 q 715 125 733 125 l 706 125 l 704 115 l 924 115 l 925 125 l 918 125 q 881 142 897 125 q 861 190 865 158 l 804 751 l 794 751 l 542 404 q 510 360 532 392 q 474 309 488 328 q 437 261 460 290 q 395 214 414 232 q 344 169 376 196 q 267 143 311 143 q 181 201 208 143 q 160 306 160 243 q 217 542 160 415 q 476 842 306 742 q 777 919 611 919 q 1047 833 943 919 q 1161 664 1126 769 q 1185 531 1185 592 q 1181 429 1185 469 q 1028 69 1154 217 q 708 -122 903 -79 q 578 -136 646 -136 q 264 -74 433 -136 l 269 -87 q 632 -171 467 -171 q 722 -165 685 -171 q 1047 -21 918 -139 q 1157 108 1110 36 q 1239 281 1204 181 q 1274 496 1274 382 q 1179 781 1274 657 q 750 963 1039 963 q 414 875 567 963 q 126 549 217 763 q 82 333 82 436 q 109 198 82 231 q 135 166 135 166 m 747 626 l 763 357 l 558 357 l 747 626 "},"A":{"ha":989,"x_min":-14,"x_max":1314,"o":"m 164 1019 l 168 1006 q 275 1026 225 1026 q 461 919 386 1026 l 117 94 q 64 34 96 54 q -1 14 32 14 l -14 14 l -14 0 l 265 0 l 265 14 l 254 14 q 209 33 224 14 q 194 68 194 51 q 201 101 194 85 l 297 349 l 678 349 l 732 190 q 935 -178 815 -57 q 1054 -269 990 -236 q 1182 -301 1118 -301 q 1313 -279 1246 -301 l 1311 -265 q 1248 -271 1283 -271 q 1158 -251 1213 -271 q 1054 -184 1104 -232 q 944 -41 1004 -136 q 825 215 883 54 l 656 696 q 571 897 604 842 q 481 1006 521 978 q 338 1057 407 1057 q 164 1019 254 1057 m 313 390 l 496 860 q 554 714 522 807 l 664 390 l 313 390 "},"B":{"ha":825,"x_min":-1,"x_max":771,"o":"m 549 606 q 601 756 601 660 q 523 913 601 853 q 314 972 444 972 l 81 972 l 81 958 l 97 958 q 159 934 133 958 q 188 872 185 910 l 188 64 q 15 332 43 125 l 0 329 q 0 313 0 321 q 100 67 0 154 q 376 -19 200 -19 q 661 64 553 -19 q 769 282 769 147 q 699 470 769 393 q 492 567 628 547 q 549 606 524 579 m 278 928 l 296 928 l 296 928 q 497 744 497 928 q 447 601 497 647 q 325 554 396 554 q 324 554 325 554 l 325 542 q 326 542 325 542 q 585 471 493 542 q 642 397 619 444 q 665 289 665 350 q 591 103 665 175 q 383 32 517 32 q 278 39 324 32 l 278 928 "},"C":{"ha":1140,"x_min":61,"x_max":1107,"o":"m 1107 488 q 1106 521 1107 504 l 1092 521 q 962 156 1092 289 q 626 22 832 22 q 294 156 421 22 q 167 489 167 290 q 290 819 167 688 q 597 950 413 950 q 832 884 726 950 q 967 701 938 818 l 979 701 l 951 897 q 788 966 886 940 q 596 992 690 992 q 324 926 446 992 q 132 744 201 860 q 63 487 63 629 q 133 229 63 344 q 330 47 203 114 q 615 -19 457 -19 q 978 115 850 -19 q 1107 488 1107 249 "},"D":{"ha":1164,"x_min":-139,"x_max":1082,"o":"m -139 769 l -124 764 q -83 826 -103 801 q -26 876 -64 850 q 219 931 46 926 l 219 93 q 190 37 215 60 q 131 14 165 14 l 114 14 l 113 0 l 583 0 q 944 134 806 0 q 1082 486 1082 268 q 1019 740 1082 631 q 843 908 956 849 q 583 972 731 968 q 331 976 381 976 q -4 932 90 976 q -139 769 -99 888 m 310 931 l 583 931 q 790 875 700 931 q 928 719 879 819 q 978 486 978 618 q 869 164 978 286 q 583 42 760 42 l 310 42 l 310 931 "},"E":{"ha":843,"x_min":83,"x_max":838,"o":"m 101 14 l 83 14 l 83 0 l 757 0 l 838 225 l 824 225 q 733 89 788 135 q 576 43 679 43 l 281 43 l 281 458 l 546 458 q 592 438 574 457 q 611 390 611 418 l 611 369 l 625 369 l 625 589 l 611 589 l 611 569 q 592 521 611 540 q 544 500 572 501 l 281 500 l 281 929 l 439 929 q 494 904 471 928 q 517 847 517 881 l 517 822 l 531 822 l 531 997 q 459 981 510 989 q 365 972 408 972 l 83 972 l 85 958 l 101 958 q 164 935 138 958 q 190 879 190 913 l 190 101 q 163 40 189 65 q 101 14 138 14 "},"F":{"ha":804,"x_min":83,"x_max":806,"o":"m 790 390 l 790 369 l 804 369 l 804 589 l 790 589 l 790 569 q 771 521 790 540 q 724 500 751 501 l 281 500 l 281 929 l 574 929 q 622 909 603 929 q 642 861 642 889 l 642 840 l 656 840 l 656 997 q 596 982 642 992 q 490 972 550 972 l 83 972 l 85 958 l 101 958 q 163 935 136 958 q 190 879 190 913 l 190 101 q 163 40 189 65 q 101 14 138 14 l 83 14 l 83 0 l 388 0 l 388 14 l 369 14 q 307 40 333 14 q 281 101 281 65 l 281 458 l 725 458 q 772 438 753 457 q 790 390 790 418 "},"G":{"ha":1175,"x_min":83,"x_max":1551,"o":"m 1346 -242 q 1551 -207 1440 -242 l 1550 -193 q 1414 -206 1476 -206 q 1169 -139 1264 -206 q 1026 175 1035 -44 l 1026 389 q 1043 435 1025 419 q 1096 451 1061 451 l 1117 451 l 1117 465 l 844 465 l 844 451 l 867 451 q 918 435 900 451 q 936 389 936 419 l 936 143 q 796 54 878 86 q 624 22 714 22 q 313 156 438 24 q 188 488 188 288 q 312 819 188 689 q 624 950 436 950 q 788 921 715 950 q 976 701 935 863 l 989 701 l 961 897 q 624 992 815 992 q 347 928 471 992 q 153 748 224 864 q 83 488 83 632 q 153 228 83 343 q 348 47 224 113 q 624 -19 472 -19 q 947 81 815 -19 q 1057 -129 974 -46 q 1346 -242 1169 -242 "},"H":{"ha":1129,"x_min":82,"x_max":1047,"o":"m 1013 14 q 949 40 975 14 q 924 101 924 65 l 924 847 q 954 1039 924 969 q 1047 1142 985 1108 l 1040 1154 q 913 1094 960 1136 q 833 847 835 1025 l 833 501 l 296 501 l 296 872 q 323 933 297 908 q 385 958 349 958 l 403 958 l 403 972 l 100 972 l 100 958 l 117 958 q 179 933 153 958 q 206 872 206 908 l 206 97 q 176 -94 206 -25 q 83 -197 146 -164 l 90 -210 q 201 -164 158 -194 q 296 97 296 -97 l 296 460 l 833 460 l 833 99 q 805 38 831 63 q 744 14 779 14 l 726 14 l 726 0 l 1029 0 l 1029 14 l 1013 14 "},"I":{"ha":546,"x_min":-71,"x_max":467,"o":"m 446 14 q 384 40 410 14 q 357 101 358 65 l 357 861 q 382 946 357 915 q 467 986 407 976 l 464 1000 q 248 976 385 985 q 110 967 111 967 q -69 829 -69 947 q -51 768 -69 796 q 40 719 -21 719 q 79 724 60 719 l 79 732 q 2 761 26 735 q -22 825 -22 788 q 118 926 -22 918 l 267 935 l 267 101 q 240 40 267 65 q 178 14 214 14 l 160 14 l 160 0 l 464 0 l 464 14 l 446 14 "},"J":{"ha":471,"x_min":-117,"x_max":389,"o":"m -111 -187 l -117 -203 q -7 -226 -67 -226 q 178 -161 94 -226 q 251 -54 222 -125 q 281 111 281 17 l 281 871 q 308 933 282 908 q 369 958 333 958 l 388 958 l 388 972 l 83 972 l 83 958 l 101 958 q 163 933 138 958 q 190 871 189 907 l 190 115 q 169 -39 190 26 q 114 -137 147 -104 q 40 -185 81 -169 q -37 -200 0 -200 q -111 -187 -74 -200 "},"K":{"ha":929,"x_min":82,"x_max":1333,"o":"m 369 14 q 307 40 333 14 q 281 101 281 65 l 281 872 q 308 933 282 908 q 369 958 333 958 l 388 958 l 388 972 l 83 972 l 83 958 l 101 958 q 163 933 138 958 q 190 872 189 908 l 190 101 q 163 40 189 65 q 101 14 138 14 l 83 14 l 83 0 l 388 0 l 388 14 l 369 14 m 1332 -208 q 1098 -145 1213 -208 q 892 17 983 -82 l 419 521 l 743 894 q 893 960 801 960 l 899 960 l 899 972 l 606 972 l 606 960 l 619 960 q 660 939 649 960 q 664 919 664 931 q 653 894 664 908 l 325 483 l 785 -7 q 1226 -235 999 -235 q 1332 -222 1279 -235 l 1332 -208 "},"L":{"ha":557,"x_min":83,"x_max":1288,"o":"m 347 -26 q 301 1 317 -15 q 283 31 286 18 q 281 69 281 44 l 281 871 q 307 933 281 907 q 369 958 333 958 l 388 958 l 388 972 l 83 972 l 83 958 l 101 958 q 163 933 138 958 q 190 871 189 907 l 190 101 q 163 39 189 64 q 101 14 138 14 l 83 14 l 83 0 q 328 -68 179 -1 q 543 -172 369 -86 q 944 -282 768 -282 q 1286 -165 1117 -282 l 1279 -154 q 1045 -203 1151 -203 q 791 -166 939 -203 q 347 -26 643 -129 "},"M":{"ha":1293,"x_min":-93,"x_max":1544,"o":"m 1528 -225 q 1297 -125 1393 -225 q 1171 169 1200 -25 l 1042 992 l 1029 992 l 656 154 l 321 879 q 261 975 299 925 q 214 1026 239 1003 q 156 1070 189 1049 q 85 1103 122 1092 q 19 1116 47 1114 q -32 1118 -8 1118 q -93 1108 -56 1118 l -93 1094 q -61 1096 -76 1096 q 232 856 110 1096 l 144 97 q 109 37 138 60 q 43 14 81 14 l 21 14 l 21 0 l 290 0 l 290 13 l 268 13 q 268 13 268 13 q 230 31 247 13 q 215 72 213 49 l 276 763 l 636 -19 l 650 -19 q 697 122 658 38 l 986 775 l 1071 157 q 1213 -146 1096 -29 q 1340 -224 1269 -203 q 1458 -244 1410 -244 q 1544 -239 1506 -244 l 1544 -225 q 1528 -225 1536 -225 "},"N":{"ha":1168,"x_min":-262,"x_max":1464,"o":"m 1464 -211 l 1458 -197 q 1401 -203 1428 -203 q 1331 -193 1374 -203 q 1256 -164 1289 -183 q 1213 -137 1232 -149 q 1173 -105 1194 -125 q 1137 -72 1151 -85 q 1101 -35 1122 -58 q 1070 1 1081 -11 q 1034 44 1060 14 q 994 90 1008 75 l 994 875 q 1021 934 996 910 q 1081 958 1046 958 l 1106 958 l 1106 972 l 819 972 l 819 958 l 846 958 q 906 934 881 958 q 932 874 931 910 l 932 161 l 232 939 q 153 1022 186 990 q 69 1092 121 1054 q -26 1144 18 1129 q -133 1158 -71 1158 q -261 1131 -194 1158 l -256 1117 q -185 1128 -218 1128 q -106 1114 -153 1128 q -17 1068 -58 1100 q 30 1029 10 1046 q 74 985 50 1013 q 111 942 97 958 q 146 898 125 925 q 174 861 167 871 l 174 99 q 149 38 174 63 q 89 14 124 14 l 63 14 l 63 0 l 349 0 l 349 14 l 322 14 q 281 25 300 14 q 238 97 239 49 l 238 792 l 969 -19 q 1103 -146 1038 -93 q 1264 -224 1171 -199 q 1464 -211 1353 -246 "},"O":{"ha":1290,"x_min":83,"x_max":1207,"o":"m 385 649 l 399 651 q 396 692 396 667 q 407 751 396 717 q 567 921 446 869 q 715 950 633 950 q 999 821 899 950 q 1100 504 1100 692 q 973 155 1100 288 q 646 22 846 22 q 318 154 446 22 q 190 521 190 286 q 230 760 190 647 q 360 932 269 872 l 351 944 q 153 764 222 879 q 83 500 83 649 q 244 125 83 269 q 647 -19 404 -19 q 1049 126 890 -19 q 1207 490 1207 271 q 1073 851 1207 710 q 726 992 939 992 q 547 956 621 992 q 484 917 513 939 q 438 868 456 894 q 406 813 419 842 q 387 756 392 785 q 381 710 382 726 q 379 680 379 693 q 385 649 379 667 "},"P":{"ha":861,"x_min":82,"x_max":800,"o":"m 489 994 q 426 991 456 994 q 276 967 397 988 q 82 940 154 947 l 85 926 l 101 928 q 115 929 108 929 q 169 909 149 929 q 190 853 190 889 l 190 101 q 163 39 189 64 q 101 14 136 14 l 83 14 l 83 0 l 388 0 l 388 14 l 369 14 q 308 39 335 14 q 281 101 282 64 l 281 925 q 420 948 404 946 q 458 950 436 950 q 614 900 553 950 q 694 692 694 836 q 657 536 694 601 q 492 447 606 447 q 425 464 463 447 q 354 547 369 488 l 342 543 q 407 431 351 464 q 531 399 463 399 q 732 489 660 399 q 799 693 799 574 q 690 936 799 858 q 489 994 610 994 "},"Q":{"ha":1276,"x_min":69,"x_max":2160,"o":"m 2006 -242 q 2160 -124 2122 -183 l 2154 -117 q 1931 -219 2078 -192 q 1722 -240 1828 -240 q 1338 -185 1538 -240 q 1100 -115 1336 -185 q 751 -22 864 -44 q 1046 119 915 0 q 1152 273 1111 179 q 1193 482 1193 367 q 1123 740 1193 622 q 922 928 1053 857 q 624 999 792 999 q 345 935 472 999 q 144 752 218 871 q 69 479 69 633 q 161 209 69 325 q 415 69 253 93 q 475 65 447 65 q 624 106 563 65 q 732 260 706 160 l 719 264 q 604 133 690 172 q 488 107 546 107 q 297 182 379 107 q 208 314 240 233 q 176 488 176 394 q 237 732 176 624 q 401 899 297 840 q 629 957 506 957 q 961 811 833 957 q 1086 470 1086 669 q 992 153 1086 271 q 622 -6 864 -6 q 618 -6 619 -6 l 618 -19 q 1121 -192 760 -47 q 1326 -269 1265 -250 q 1633 -321 1483 -321 q 1738 -315 1679 -321 q 1873 -290 1797 -310 q 2006 -242 1949 -271 "},"R":{"ha":906,"x_min":83,"x_max":1317,"o":"m 1317 -236 l 1317 -222 q 1283 -225 1300 -225 q 1121 -181 1203 -225 q 1028 -116 1081 -160 q 908 -4 976 -72 q 600 329 840 64 q 493 446 540 396 q 494 446 494 446 q 661 527 593 446 q 729 722 729 608 q 655 903 729 835 q 458 972 581 972 l 83 972 l 83 958 l 101 958 q 163 933 138 958 q 190 871 189 907 l 190 100 q 163 39 189 64 q 101 14 136 14 l 83 14 l 83 0 l 388 0 l 386 14 l 369 14 q 306 40 332 14 q 281 101 281 67 l 281 929 l 453 929 q 580 867 535 928 q 625 704 625 806 q 543 529 625 582 q 492 505 522 514 q 434 492 461 496 q 326 489 407 489 l 326 475 q 401 418 353 472 q 599 199 450 364 q 799 -25 747 35 q 915 -136 851 -85 q 985 -187 950 -167 q 1059 -224 1019 -208 q 1133 -246 1099 -240 q 1213 -251 1168 -251 q 1317 -236 1258 -251 "},"S":{"ha":763,"x_min":57,"x_max":714,"o":"m 165 369 l 153 379 q 78 260 97 319 q 58 167 58 201 q 63 111 58 133 q 219 -97 89 -36 q 378 -131 289 -131 q 611 -51 524 -131 q 713 168 713 40 q 560 460 713 339 l 303 663 q 242 784 242 711 q 289 903 242 857 q 406 950 336 950 q 523 912 476 950 q 571 807 569 874 l 585 807 l 582 978 l 526 978 q 406 992 461 992 q 229 922 294 992 q 164 750 164 851 q 246 585 164 649 l 496 388 q 588 278 560 338 q 617 167 617 218 q 615 147 617 157 q 489 -49 601 10 q 348 -81 429 -81 q 203 -37 267 -81 q 93 165 93 35 q 165 369 93 275 "},"T":{"ha":858,"x_min":-125,"x_max":832,"o":"m -82 696 l -71 703 q -93 785 -93 746 q -67 861 -93 825 q 94 932 -17 932 l 385 932 l 385 99 q 358 39 383 64 q 296 14 332 14 l 278 14 l 278 0 l 582 0 l 582 14 l 564 14 q 519 25 540 14 q 475 100 476 50 l 475 932 l 739 932 q 794 906 771 931 q 818 849 818 882 l 818 825 l 832 824 l 832 999 q 759 982 811 990 q 664 974 707 974 l 94 974 q -25 948 28 974 q -101 885 -78 922 q -125 798 -125 849 q -82 696 -125 747 "},"U":{"ha":1088,"x_min":68,"x_max":1256,"o":"m 1232 1211 q 963 1110 1067 1211 q 860 804 860 1008 l 860 343 q 775 113 860 200 q 550 25 690 25 q 337 117 418 25 q 256 361 256 210 l 256 892 q 278 940 257 921 q 329 958 299 958 l 351 958 l 351 972 l 69 972 l 69 958 l 92 958 q 129 950 113 958 q 165 890 165 931 l 165 342 q 272 80 165 179 q 549 -19 378 -19 q 822 81 719 -19 q 925 343 925 181 l 925 806 q 1014 1097 925 996 q 1256 1197 1103 1197 l 1256 1211 q 1232 1211 1243 1211 "},"V":{"ha":997,"x_min":-14,"x_max":1346,"o":"m 1075 1244 q 869 968 951 1161 l 525 144 l 235 872 q 228 900 228 889 q 231 919 228 911 q 286 958 244 958 l 299 958 l 299 972 l -14 972 l -14 958 l -3 958 q 66 937 32 958 q 119 871 100 915 l 510 -19 l 522 -19 q 574 124 522 11 l 960 968 q 1003 1057 985 1022 q 1057 1141 1022 1092 q 1128 1220 1092 1190 q 1222 1273 1165 1250 q 1344 1299 1279 1296 l 1344 1313 q 1293 1313 1333 1313 q 1188 1294 1253 1313 q 1075 1244 1122 1276 "},"W":{"ha":1325,"x_min":-14,"x_max":1674,"o":"m 1654 1311 q 1301 1129 1440 1311 q 1190 911 1226 1032 l 985 224 l 710 993 l 697 994 l 439 197 l 228 874 q 224 904 224 888 q 238 940 224 921 q 282 958 253 958 l 294 958 l 294 972 l -14 972 l -14 958 l -3 958 q 68 937 33 958 q 119 874 103 915 l 400 81 q 261 -139 351 -51 q 172 -199 217 -182 q 99 -215 126 -215 q 51 -211 72 -215 l 49 -225 q 122 -233 88 -233 q 303 -168 222 -233 q 464 76 414 -81 l 688 776 l 971 -17 l 983 -17 q 1014 138 986 50 l 1281 911 q 1375 1108 1319 1022 q 1450 1201 1410 1163 q 1549 1267 1490 1239 q 1672 1297 1607 1294 l 1672 1311 q 1654 1311 1664 1311 "},"X":{"ha":919,"x_min":-239,"x_max":1121,"o":"m 915 14 q 837 37 874 14 q 775 94 800 60 l 507 515 l 807 926 q 838 969 813 933 q 876 1018 864 1004 q 913 1063 888 1032 q 958 1107 939 1093 q 1004 1140 978 1121 q 1121 1175 1054 1174 l 1121 1189 q 1085 1190 1103 1190 q 907 1139 989 1190 q 733 958 825 1088 l 467 579 l 279 874 q 294 944 260 915 q 329 958 311 958 l 346 958 l 346 972 l 10 972 l 10 958 l 29 958 q 85 947 57 958 q 169 876 136 925 l 406 503 l 111 86 q 72 33 85 49 q -60 -117 10 -54 q -239 -193 -142 -189 l -239 -207 q -189 -210 -214 -210 q -15 -161 -94 -210 q 181 43 83 -99 l 449 436 l 663 99 q 669 71 669 85 q 660 42 669 57 q 613 14 643 14 l 596 14 l 596 0 l 935 0 l 935 14 l 915 14 "},"Y":{"ha":858,"x_min":-56,"x_max":915,"o":"m -56 1051 l -56 1038 q 111 958 26 1038 q 257 765 196 879 q 357 525 318 650 q 396 307 396 400 l 396 100 q 368 39 394 64 q 307 14 342 14 l 289 14 l 289 0 l 592 0 l 592 14 l 575 14 q 529 26 550 14 q 486 101 486 51 l 486 306 q 523 517 486 393 q 617 758 560 642 q 756 956 675 874 q 915 1038 838 1038 l 915 1051 q 726 992 815 1051 q 654 921 690 967 q 595 840 618 875 q 544 743 572 804 q 503 649 517 682 q 475 574 490 615 q 456 522 460 532 q 449 542 453 531 q 444 551 446 547 q 428 599 443 556 q 388 703 413 643 q 352 779 368 750 q 310 850 336 808 q 260 917 285 892 q 199 973 235 943 q 127 1019 164 1003 q 47 1043 90 1035 q -21 1051 4 1051 q -56 1051 -46 1051 "},"Z":{"ha":883,"x_min":82,"x_max":1385,"o":"m 1383 -124 l 1376 -112 q 1051 -182 1228 -182 q 347 -26 822 -182 q 199 21 211 18 l 806 979 l 806 992 q 757 981 797 988 q 658 974 717 974 l 271 974 q 249 974 269 974 q 176 982 229 974 q 103 999 124 990 l 103 824 l 117 824 l 117 849 q 128 890 117 871 q 199 932 151 931 l 667 932 l 83 13 l 83 0 l 100 0 q 385 -99 171 -4 q 696 -215 499 -149 q 1036 -274 869 -274 q 1383 -124 1254 -274 "},"[":{"ha":461,"x_min":167,"x_max":407,"o":"m 167 -125 l 406 -125 l 406 -111 l 257 -83 l 257 961 l 401 989 l 401 1003 l 167 1003 l 167 -125 "},"\\":{"ha":564,"x_min":10,"x_max":554,"o":"m 10 967 l 511 -19 l 554 7 l 53 992 l 10 967 "},"]":{"ha":461,"x_min":54,"x_max":296,"o":"m 60 1003 l 60 989 l 204 961 l 204 -83 l 56 -111 l 56 -125 l 294 -125 l 294 1003 l 60 1003 "},"^":{"ha":726,"x_min":49,"x_max":678,"o":"m 322 515 l 49 253 l 136 253 l 364 467 l 590 253 l 678 253 l 406 515 l 322 515 "},"_":{"ha":694,"x_min":0,"x_max":694,"o":"m 0 -125 l 694 -125 l 694 -83 l 0 -83 l 0 -125 "},"`":{"ha":610,"x_min":99,"x_max":333,"o":"m 333 1046 q 157 1228 244 1143 q 100 1154 119 1193 q 324 1036 211 1089 l 333 1046 "},"a":{"ha":989,"x_min":-15,"x_max":1004,"o":"m 993 14 q 924 36 957 14 q 871 101 890 58 l 499 992 l 486 992 q 435 849 486 961 l 121 101 q 67 36 100 58 q -1 14 33 14 l -14 14 l -14 0 l 265 0 l 265 14 l 253 14 q 209 33 224 14 q 194 67 194 51 q 200 100 194 83 l 293 338 l 668 338 l 757 101 q 763 68 763 85 q 748 33 763 51 q 704 14 733 14 l 692 14 l 692 0 l 1004 0 l 1004 14 l 993 14 m 310 379 l 485 825 l 651 379 l 310 379 "},"b":{"ha":814,"x_min":83,"x_max":746,"o":"m 422 0 q 660 71 575 0 q 746 253 746 142 q 682 439 746 365 q 508 529 618 513 q 617 602 572 547 q 661 740 661 657 q 582 909 661 846 q 360 972 503 972 l 83 972 l 85 958 l 101 958 q 163 933 138 958 q 190 872 189 908 l 190 100 q 163 39 189 64 q 101 14 138 14 l 85 14 l 83 0 l 422 0 m 281 51 l 281 928 l 354 928 q 505 876 453 928 q 557 731 557 825 q 549 663 557 693 q 328 526 511 526 l 328 514 q 329 514 329 514 q 571 447 490 514 q 622 376 601 421 q 642 271 642 331 q 583 108 642 165 q 419 51 525 51 q 417 51 418 51 l 281 51 "},"c":{"ha":1056,"x_min":83,"x_max":988,"o":"m 579 -19 q 969 188 843 -19 l 986 406 l 975 406 q 839 107 951 199 q 579 22 735 22 q 295 153 403 26 q 188 489 188 281 q 297 824 188 697 q 588 950 406 950 q 808 885 715 950 q 932 701 901 821 l 944 701 l 917 897 q 588 992 774 992 q 222 853 360 992 q 83 487 83 714 q 222 121 83 260 q 579 -19 360 -18 "},"d":{"ha":1121,"x_min":82,"x_max":1053,"o":"m 554 972 l 83 972 l 85 958 l 101 958 q 163 935 136 958 q 190 879 190 913 l 190 101 q 163 40 189 65 q 101 14 138 14 l 83 14 l 83 0 l 554 0 q 915 134 776 0 q 1053 486 1053 268 q 915 838 1053 704 q 554 972 776 972 m 281 931 l 554 931 q 840 808 731 931 q 949 486 949 686 q 899 253 949 354 q 760 97 850 153 q 554 42 671 42 l 281 42 l 281 931 "},"e":{"ha":801,"x_min":83,"x_max":740,"o":"m 101 14 l 83 14 l 83 0 l 660 0 l 740 225 l 726 225 q 636 89 690 135 q 479 43 582 43 l 281 43 l 281 458 l 517 458 q 563 438 544 457 q 582 390 582 418 l 582 369 l 596 369 l 596 589 l 582 589 l 582 569 q 563 521 582 540 q 515 500 543 501 l 281 500 l 281 929 l 564 929 q 619 904 596 928 q 642 847 642 881 l 642 822 l 656 822 l 656 997 q 584 981 635 989 q 490 972 533 972 l 83 972 l 85 958 l 101 958 q 164 935 138 958 q 190 879 190 913 l 190 101 q 163 40 189 65 q 101 14 138 14 "},"f":{"ha":751,"x_min":82,"x_max":656,"o":"m 656 957 l 656 997 q 584 981 635 989 q 490 972 533 972 l 83 972 l 85 958 l 101 958 q 163 935 136 958 q 190 879 190 913 l 190 101 q 163 40 189 65 q 101 14 138 14 l 83 14 l 83 0 l 388 0 l 388 14 l 369 14 q 307 40 333 14 q 281 101 281 65 l 281 458 l 517 458 q 563 438 544 457 q 582 390 582 418 l 582 369 l 596 369 l 596 589 l 582 589 l 582 568 q 563 521 582 540 q 515 500 543 501 l 281 500 l 281 929 l 574 929 q 622 909 603 929 q 642 861 642 889 l 642 840 l 656 840 l 656 957 "},"g":{"ha":1108,"x_min":83,"x_max":1075,"o":"m 582 -19 q 765 9 681 -19 q 899 75 849 38 q 985 160 949 113 l 985 389 q 1001 435 983 419 q 1054 451 1019 451 l 1075 451 l 1075 465 l 803 465 l 803 451 l 825 451 q 877 435 858 451 q 896 389 896 419 l 896 143 q 753 54 835 86 q 582 22 672 22 q 297 151 406 24 q 188 486 188 278 q 297 822 188 694 q 582 950 406 950 q 812 885 719 950 q 935 701 904 821 l 947 701 l 919 897 q 582 992 774 992 q 222 852 360 992 q 83 486 83 713 q 222 121 83 260 q 582 -19 360 -18 "},"h":{"ha":1129,"x_min":82,"x_max":1047,"o":"m 760 14 l 742 14 l 742 0 l 1046 0 l 1046 14 l 1028 14 q 966 39 992 14 q 939 100 940 64 l 939 871 q 966 933 940 907 q 1028 958 992 958 l 1046 958 l 1046 972 l 742 972 l 742 958 l 760 958 q 804 947 783 958 q 849 872 847 922 l 849 501 l 281 501 l 281 872 q 308 933 282 908 q 369 958 333 958 l 388 958 l 388 972 l 83 972 l 83 958 l 101 958 q 163 933 138 958 q 190 872 189 908 l 190 100 q 163 39 189 64 q 101 14 138 14 l 83 14 l 83 0 l 388 0 l 388 14 l 369 14 q 307 39 333 14 q 281 100 281 64 l 281 460 l 849 460 l 849 100 q 822 40 847 65 q 760 14 796 14 "},"i":{"ha":469,"x_min":82,"x_max":388,"o":"m 101 14 l 83 14 l 83 0 l 388 0 l 388 14 l 369 14 q 307 40 333 14 q 281 101 281 65 l 281 872 q 308 933 282 908 q 369 958 333 958 l 388 958 l 388 972 l 83 972 l 83 958 l 101 958 q 163 933 138 958 q 190 872 189 908 l 190 101 q 163 40 189 65 q 101 14 138 14 "},"j":{"ha":450,"x_min":28,"x_max":389,"o":"m 369 958 l 388 958 l 388 972 l 83 972 l 83 958 l 101 958 q 163 933 138 958 q 190 871 189 907 l 190 4 q 143 -163 190 -85 q 28 -265 96 -242 l 28 -278 q 208 -197 135 -278 q 281 0 281 -117 l 281 871 q 293 915 282 896 q 369 958 319 958 "},"k":{"ha":913,"x_min":82,"x_max":928,"o":"m 369 14 q 307 40 333 14 q 281 101 281 65 l 281 872 q 308 933 282 908 q 369 958 333 958 l 388 958 l 388 972 l 83 972 l 83 958 l 101 958 q 163 933 138 958 q 190 872 189 908 l 190 101 q 163 40 189 65 q 101 14 138 14 l 83 14 l 83 0 l 388 0 l 388 14 l 369 14 m 928 0 l 928 14 q 796 71 851 15 l 417 517 l 743 894 q 893 960 801 960 l 899 960 l 899 972 l 606 972 l 606 960 l 619 960 q 660 939 649 960 q 664 919 664 931 q 653 894 664 908 l 325 483 l 660 79 q 868 0 726 0 l 928 0 "},"l":{"ha":781,"x_min":83,"x_max":740,"o":"m 101 14 l 83 14 l 83 0 l 660 0 l 740 225 l 726 225 q 636 89 690 135 q 479 43 582 43 l 281 43 l 281 871 q 293 915 281 894 q 369 958 319 958 l 388 958 l 388 972 l 83 972 l 83 958 l 101 958 q 163 933 138 958 q 190 871 189 907 l 190 101 q 163 40 189 65 q 101 14 138 14 "},"m":{"ha":1293,"x_min":21,"x_max":1274,"o":"m 1250 14 q 1183 38 1213 14 q 1149 101 1154 61 l 1042 992 l 1029 992 l 650 154 l 263 992 l 249 992 l 144 101 q 110 38 139 61 q 43 14 82 14 l 21 14 l 21 0 l 290 0 l 290 13 l 269 13 q 229 31 246 13 q 215 72 213 50 l 275 751 l 631 -19 l 644 -19 q 692 122 653 38 l 983 771 l 1046 72 q 1032 31 1049 49 q 992 13 1015 13 l 971 13 l 971 0 l 1272 0 l 1272 14 l 1250 14 "},"n":{"ha":1168,"x_min":61,"x_max":1107,"o":"m 1081 958 l 1106 958 l 1106 972 l 819 972 l 819 958 l 846 958 q 906 934 881 958 q 932 874 931 910 l 932 185 l 175 993 l 161 993 l 164 971 q 174 819 174 904 l 174 99 q 149 38 174 63 q 89 14 124 14 l 63 14 l 63 0 l 349 0 l 349 14 l 322 14 q 263 38 288 14 q 238 97 238 63 l 238 789 l 994 -19 l 1007 -19 l 1004 6 q 994 158 994 78 l 994 875 q 1021 934 996 910 q 1081 958 1046 958 "},"o":{"ha":1178,"x_min":54,"x_max":1124,"o":"m 204 852 q 56 486 56 713 q 204 120 56 260 q 590 -19 353 -19 q 975 120 826 -19 q 1124 486 1124 260 q 975 852 1124 713 q 590 992 826 992 q 278 922 353 992 q 204 852 204 852 m 280 150 q 163 486 163 278 q 280 822 163 694 q 589 950 397 950 q 898 822 781 950 q 1015 486 1015 694 q 898 150 1015 278 q 589 22 781 22 q 339 86 397 22 q 280 150 280 150 "},"p":{"ha":801,"x_min":82,"x_max":733,"o":"m 732 704 q 656 901 732 829 q 446 972 579 972 l 83 972 l 85 958 l 101 958 q 161 935 136 958 q 190 878 186 913 l 190 101 q 163 40 189 65 q 101 14 138 14 l 83 14 l 83 0 l 388 0 l 388 14 l 369 14 q 308 40 333 14 q 281 101 282 65 l 281 931 l 440 931 q 576 873 528 931 q 628 718 625 815 q 628 688 628 713 q 619 635 628 663 q 515 507 592 546 q 328 485 429 463 l 328 471 q 476 439 390 439 q 546 453 506 439 q 707 590 661 492 q 732 704 732 643 "},"q":{"ha":1204,"x_min":68,"x_max":1844,"o":"m 1799 -190 q 1844 -124 1833 -153 l 1839 -117 q 1635 -225 1757 -193 q 1461 -246 1547 -246 q 1161 -185 1308 -246 q 713 -11 858 -56 q 1022 154 906 21 q 1138 486 1138 288 q 989 852 1138 713 q 603 992 840 992 q 217 852 365 992 q 69 490 69 713 q 207 131 69 268 q 567 -18 344 -7 q 976 -183 703 -43 q 1150 -269 1097 -246 q 1456 -332 1294 -332 q 1570 -315 1506 -332 q 1699 -262 1635 -297 q 1781 -208 1764 -226 q 1799 -190 1799 -190 m 294 822 q 603 950 411 950 q 912 822 794 950 q 1029 486 1029 694 q 912 150 1029 278 q 603 22 794 22 q 294 150 411 22 q 176 486 176 278 q 235 758 176 694 q 294 822 294 822 "},"r":{"ha":940,"x_min":83,"x_max":956,"o":"m 369 929 q 453 928 419 929 q 576 867 531 924 q 625 717 622 810 q 625 685 625 710 q 617 633 625 661 q 400 489 572 493 q 356 488 374 488 q 326 489 338 488 l 326 475 q 415 428 371 475 q 444 394 431 411 q 543 254 458 376 q 647 110 628 132 q 691 66 665 89 q 768 22 717 43 q 879 0 819 0 l 956 0 l 956 14 q 869 33 910 14 q 833 56 851 42 q 800 84 815 69 q 749 138 785 99 q 593 349 713 178 q 542 408 571 379 q 493 446 514 436 q 660 527 592 446 q 729 720 729 608 q 657 902 729 832 q 458 972 585 972 l 83 972 l 83 958 l 101 958 q 163 933 138 958 q 190 871 189 907 l 190 100 q 163 39 189 64 q 101 14 138 14 l 83 14 l 83 0 l 388 0 l 386 14 l 369 14 q 306 40 332 14 q 281 101 281 65 l 281 929 l 369 929 "},"s":{"ha":661,"x_min":79,"x_max":581,"o":"m 85 57 q 191 -1 122 18 q 321 -19 260 -19 q 510 52 439 -19 q 581 235 581 124 q 511 410 581 346 l 238 663 q 182 785 182 714 q 230 903 182 856 q 349 950 278 950 q 465 911 419 950 q 510 807 510 872 l 522 807 l 522 978 l 468 978 q 349 992 401 992 q 170 922 236 992 q 104 753 104 851 q 179 585 104 654 l 446 338 q 500 208 500 288 q 444 75 500 128 q 300 22 388 22 q 164 78 215 22 q 113 219 113 135 q 114 250 113 235 l 101 250 q 81 132 81 188 q 85 57 81 76 "},"t":{"ha":858,"x_min":28,"x_max":832,"o":"m 818 849 l 818 825 l 832 824 l 832 999 q 777 984 822 994 q 664 974 732 974 l 194 974 q 100 982 151 974 q 28 999 49 990 l 28 824 l 42 825 l 42 849 q 65 906 42 882 q 121 932 88 931 l 385 932 l 385 99 q 358 39 383 64 q 296 14 332 14 l 278 14 l 278 0 l 582 0 l 582 14 l 564 14 q 502 39 528 14 q 475 100 476 64 l 475 932 l 739 932 q 794 906 771 931 q 818 849 818 882 "},"u":{"ha":1090,"x_min":68,"x_max":1022,"o":"m 1021 958 l 1021 972 l 764 972 l 764 958 l 786 958 q 838 940 817 958 q 860 892 858 921 l 860 343 q 775 112 860 200 q 554 24 690 24 q 337 117 418 24 q 256 361 256 210 l 256 892 q 278 940 257 921 q 329 958 299 958 l 351 958 l 351 972 l 69 972 l 69 958 l 92 958 q 129 950 113 958 q 165 889 165 931 l 165 342 q 272 80 165 179 q 549 -19 378 -19 q 822 81 719 -19 q 925 343 925 181 l 925 893 q 948 940 926 921 q 999 958 969 958 l 1021 958 "},"v":{"ha":1028,"x_min":-15,"x_max":1043,"o":"m 763 972 l 763 958 l 775 958 q 819 940 804 958 q 833 905 833 921 q 828 872 833 889 l 525 144 l 235 872 q 228 905 228 889 q 242 940 228 921 q 286 958 257 958 l 299 958 l 299 972 l -14 972 l -14 958 l -3 958 q 66 937 32 958 q 119 871 100 915 l 510 -19 l 522 -19 q 574 124 522 11 l 908 872 q 961 937 928 915 q 1029 958 994 958 l 1042 958 l 1042 972 l 763 972 "},"w":{"ha":1364,"x_min":-14,"x_max":1379,"o":"m 1104 972 l 1104 958 l 1117 958 q 1160 940 1146 958 q 1174 906 1174 922 q 1169 875 1174 890 l 983 225 l 710 993 l 697 994 l 439 197 l 228 874 q 224 904 224 888 q 238 940 224 921 q 282 958 253 958 l 294 958 l 294 972 l -14 972 l -14 958 l -3 958 q 68 937 33 958 q 119 874 103 915 l 435 -17 l 447 -17 q 476 138 450 51 l 688 778 l 971 -17 l 983 -17 q 1014 138 986 50 l 1244 872 q 1295 937 1260 915 q 1367 958 1331 958 l 1378 958 l 1378 972 l 1104 972 "},"x":{"ha":919,"x_min":-14,"x_max":935,"o":"m 935 0 l 935 14 l 915 14 q 860 25 888 14 q 775 94 808 47 l 506 518 l 749 876 q 810 935 774 911 q 889 958 847 958 l 908 958 l 908 972 l 596 972 l 596 958 l 613 958 q 660 929 643 958 q 668 901 668 915 q 660 872 668 886 l 471 574 l 279 874 q 272 901 272 888 q 282 931 272 915 q 329 958 300 958 l 346 958 l 346 972 l 10 972 l 10 958 l 29 958 q 108 935 71 958 q 169 876 144 911 l 413 492 l 147 96 q 85 38 122 61 q 6 14 47 14 l -14 14 l -14 0 l 301 0 l 301 14 l 283 14 q 236 43 254 14 q 226 72 226 57 q 235 100 226 86 l 449 436 l 663 99 q 669 71 669 85 q 660 42 669 57 q 613 14 643 14 l 596 14 l 596 0 l 935 0 "},"y":{"ha":918,"x_min":-14,"x_max":933,"o":"m 933 958 l 933 972 l 625 972 l 625 958 l 642 958 q 689 931 672 958 q 699 901 699 915 q 692 874 699 888 l 469 483 l 261 872 q 254 901 254 886 q 263 931 254 915 q 310 958 279 958 l 328 958 l 328 972 l -14 972 l -14 958 l 6 958 q 85 935 47 958 q 144 878 124 911 l 410 435 l 410 100 q 383 39 408 64 q 321 14 357 14 l 303 14 l 303 0 l 606 0 l 606 14 l 589 14 q 526 40 551 14 q 500 101 500 65 l 500 433 l 774 878 q 835 935 799 913 q 914 958 872 958 l 933 958 "},"z":{"ha":904,"x_min":82,"x_max":857,"o":"m 117 849 q 140 907 117 883 q 199 932 164 931 l 667 932 l 83 13 l 83 0 l 811 0 l 857 214 l 843 214 q 774 89 822 136 q 653 42 726 42 l 211 42 l 806 979 l 806 992 q 763 981 799 989 q 658 974 726 974 l 271 974 q 249 974 269 974 q 176 982 229 974 q 103 999 124 990 l 103 824 l 117 824 l 117 849 "},"{":{"ha":600,"x_min":0,"x_max":553,"o":"m 553 1067 q 424 1106 483 1106 q 250 949 290 1106 q 235 844 235 890 q 235 785 235 799 q 238 742 236 772 q 240 699 239 713 q 240 658 240 685 q 236 615 239 631 q 228 578 233 600 q 215 544 224 557 q 121 490 179 490 q 40 531 75 490 q 11 585 19 554 l 0 581 q 33 506 10 535 q 138 460 72 460 q 214 477 175 460 q 278 530 253 494 q 313 608 304 565 q 324 735 324 669 l 321 844 q 369 1029 321 979 q 468 1068 407 1068 q 546 1057 503 1068 l 553 1067 m 546 -168 q 483 -181 506 -181 q 435 -176 461 -181 q 383 -151 408 -171 q 319 61 319 -104 q 321 120 319 81 q 322 165 322 160 q 322 200 322 171 q 321 238 322 229 q 316 272 319 247 q 307 308 313 297 q 292 339 301 319 q 272 369 283 358 q 138 431 210 431 q 33 383 71 431 q 0 308 10 354 l 10 304 q 67 382 24 353 q 117 399 93 399 q 160 391 140 399 q 192 371 179 383 q 215 345 206 358 q 228 310 224 332 q 236 274 233 289 q 240 231 239 258 q 240 190 240 204 q 238 146 239 175 q 235 50 235 99 q 250 -60 235 1 q 368 -207 279 -178 q 417 -217 394 -217 q 553 -178 482 -217 l 546 -168 "},"|":{"ha":340,"x_min":139,"x_max":201,"o":"m 139 -250 l 201 -250 l 201 972 l 139 972 l 139 -250 "},"}":{"ha":600,"x_min":49,"x_max":601,"o":"m 281 844 l 276 735 q 322 529 276 593 q 463 460 374 460 q 567 506 529 460 q 600 581 590 535 l 589 585 q 533 507 576 536 q 485 490 508 490 q 442 498 461 490 q 411 515 424 506 q 390 539 399 525 q 376 566 382 553 q 367 599 371 579 q 363 633 364 618 q 361 671 361 647 q 362 708 361 694 q 364 747 363 722 q 367 840 367 789 q 350 953 367 890 q 228 1097 319 1071 q 181 1106 203 1106 q 49 1067 118 1106 l 56 1057 q 232 1029 175 1088 q 281 844 281 979 m 49 -178 q 179 -217 119 -217 q 353 -54 313 -217 q 367 46 367 1 q 366 103 367 90 q 364 146 365 117 q 362 190 363 175 q 362 231 361 204 q 365 274 363 258 q 372 310 367 289 q 386 344 378 332 q 481 399 421 399 q 533 382 508 399 q 590 304 578 353 l 600 308 q 514 421 582 394 q 471 431 493 431 q 356 393 403 431 q 328 369 340 381 q 308 339 317 358 q 294 308 300 319 q 285 272 289 297 q 280 238 282 247 q 278 200 278 229 q 278 165 278 171 q 279 128 278 160 q 282 51 282 81 q 278 -16 282 22 q 259 -93 274 -54 q 218 -151 244 -132 q 137 -181 179 -181 q 56 -168 94 -181 l 49 -178 "},"~":{"ha":685,"x_min":50,"x_max":638,"o":"m 636 435 q 629 490 636 460 l 567 490 q 575 440 575 465 q 557 394 575 415 q 485 360 529 360 q 347 429 440 360 q 197 497 258 497 q 82 446 125 497 q 51 351 51 410 q 56 304 51 329 l 118 304 q 114 354 114 326 q 133 408 114 382 q 192 435 151 435 q 304 385 232 435 q 361 344 332 364 q 481 297 431 297 q 604 346 558 297 q 636 435 636 381 "},"¡":{"ha":319,"x_min":97,"x_max":222,"o":"m 115 962 q 97 917 97 943 q 115 874 97 892 q 160 856 133 856 q 204 874 186 856 q 222 917 222 892 q 204 962 222 943 q 160 981 186 981 q 124 971 133 981 q 115 962 115 962 m 125 415 l 108 0 l 213 0 l 196 415 l 168 735 l 154 735 l 125 415 "},"¢":{"ha":836,"x_min":68,"x_max":782,"o":"m 407 107 l 397 -8 l 438 -12 l 447 104 q 642 144 558 104 q 771 258 725 185 l 782 422 l 771 422 q 676 214 763 282 q 451 146 590 146 l 506 814 q 739 615 696 794 l 749 615 l 724 785 q 510 854 635 842 l 518 972 l 476 974 l 467 857 q 176 757 283 857 q 69 489 69 657 q 160 222 69 321 q 407 107 251 122 m 174 481 q 249 728 174 640 q 464 815 325 815 l 410 150 q 282 203 335 161 q 174 481 174 290 "},"£":{"ha":801,"x_min":69,"x_max":761,"o":"m 468 64 q 335 78 432 64 q 266 85 315 81 q 174 75 217 89 q 226 129 208 107 q 269 196 244 151 q 318 457 317 281 l 556 457 l 574 507 l 318 507 q 317 599 317 556 q 360 863 317 781 q 419 926 381 900 q 519 951 458 951 q 613 917 578 951 q 649 822 649 883 q 646 786 649 804 l 660 786 l 697 913 q 620 972 667 951 q 543 993 574 993 q 500 992 513 993 q 219 565 219 965 q 221 507 219 538 l 86 507 l 69 457 l 222 457 q 180 178 221 294 q 81 14 139 61 l 81 0 l 94 0 q 181 38 132 38 q 276 24 229 38 q 481 -14 407 -14 q 697 33 593 -14 l 761 221 l 747 221 q 468 64 668 64 "},"¤":{"ha":751,"x_min":69,"x_max":683,"o":"m 569 268 l 653 183 l 683 214 l 599 297 q 669 490 669 379 q 597 683 669 600 l 683 768 l 653 797 l 568 713 q 375 785 485 785 q 182 714 265 785 l 99 797 l 69 768 l 153 685 q 78 490 78 601 q 151 294 78 378 l 69 214 l 99 183 l 181 265 q 375 193 264 193 q 569 268 486 193 m 194 309 q 119 489 119 383 q 194 669 119 594 q 374 743 269 743 q 553 669 479 743 q 628 489 628 594 q 553 309 628 383 q 374 235 479 235 q 232 272 269 235 q 194 309 194 309 "},"¥":{"ha":918,"x_min":-14,"x_max":933,"o":"m 933 958 l 933 972 l 625 972 l 625 958 l 642 958 q 689 931 672 958 q 699 901 699 915 q 692 874 699 888 l 469 483 l 261 872 q 254 901 254 886 q 263 931 254 915 q 310 958 279 958 l 328 958 l 328 972 l -14 972 l -14 958 l 6 958 q 85 935 47 958 q 144 878 124 911 l 325 576 l 146 576 l 146 535 l 350 535 l 410 435 l 410 410 l 146 410 l 146 368 l 410 368 l 410 101 q 383 40 408 65 q 321 14 357 14 l 303 14 l 303 0 l 606 0 l 606 14 l 589 14 q 526 39 553 14 q 500 100 500 64 l 500 368 l 764 368 l 764 410 l 500 410 l 500 433 l 563 535 l 764 535 l 764 576 l 588 576 l 774 878 q 835 935 799 913 q 914 958 872 958 l 933 958 "},"¦":{"ha":340,"x_min":139,"x_max":201,"o":"m 139 486 l 201 486 l 201 972 l 139 972 l 139 486 m 139 -250 l 201 -250 l 201 236 l 139 236 l 139 -250 "},"§":{"ha":710,"x_min":89,"x_max":622,"o":"m 561 940 q 431 988 519 988 q 257 926 343 988 q 150 808 193 881 q 90 601 90 703 q 123 449 90 536 q 249 274 156 363 q 475 -50 475 56 q 426 -136 475 -103 q 349 -161 390 -161 q 264 -125 307 -161 q 211 -84 235 -99 q 177 -69 188 -69 q 160 -75 167 -69 q 138 -124 138 -92 q 161 -168 138 -143 q 281 -214 204 -214 q 421 -181 358 -214 q 558 -47 506 -135 q 621 167 621 54 q 467 510 621 354 q 243 829 243 735 q 288 905 243 874 q 363 936 332 936 q 482 881 421 936 q 527 850 506 861 q 567 853 549 839 q 585 896 585 867 q 561 940 585 915 m 193 810 q 192 767 192 794 q 203 703 192 739 q 401 440 235 601 q 565 136 565 283 q 515 -21 565 57 q 522 21 522 0 q 311 344 522 153 q 144 638 144 496 q 193 810 144 718 "},"¨":{"ha":833,"x_min":204,"x_max":575,"o":"m 297 988 q 313 1026 313 1004 q 297 1065 313 1049 q 258 1081 281 1081 q 220 1065 236 1081 q 204 1026 204 1049 q 220 988 204 1004 q 258 972 236 972 q 289 980 281 972 q 297 988 297 988 m 559 988 q 575 1026 575 1004 q 559 1065 575 1049 q 520 1081 543 1081 q 482 1065 497 1081 q 467 1026 467 1049 q 482 988 467 1004 q 520 972 497 972 q 551 980 543 972 q 559 988 559 988 "},"©":{"ha":1178,"x_min":83,"x_max":1094,"o":"m 231 844 q 83 486 83 696 q 231 128 83 276 q 589 -19 379 -19 q 947 128 799 -19 q 1094 486 1094 276 q 947 844 1094 696 q 589 992 799 992 q 305 918 379 992 q 231 844 231 844 m 817 880 q 983 715 922 819 q 1043 486 1043 610 q 983 258 1043 363 q 817 92 922 153 q 589 32 713 32 q 360 92 465 32 q 195 258 256 153 q 135 486 135 363 q 195 715 135 610 q 360 880 256 819 q 589 940 465 940 q 765 910 713 940 q 817 880 817 880 m 597 176 q 749 210 681 176 q 854 304 818 244 l 864 439 l 856 439 q 815 308 850 360 q 724 235 779 257 q 585 214 669 213 q 435 293 500 215 q 371 487 371 371 q 435 681 371 603 q 593 760 500 760 q 748 716 686 760 q 828 597 810 672 l 836 597 l 817 736 q 592 796 724 796 q 370 708 461 796 q 279 487 279 619 q 370 265 279 354 q 597 176 461 176 "},"ª":{"ha":511,"x_min":0,"x_max":513,"o":"m 506 532 q 446 583 471 532 l 258 992 l 251 992 q 222 910 250 971 l 67 581 q 6 532 43 532 l 0 532 l 0 525 l 158 525 l 158 532 l 153 532 q 128 546 138 532 q 126 582 118 560 l 167 675 l 338 675 l 374 583 q 376 556 379 567 q 347 532 368 532 l 340 532 l 340 525 l 511 525 l 511 532 l 506 532 m 181 708 l 256 886 l 325 708 l 181 708 "},"«":{"ha":590,"x_min":54,"x_max":536,"o":"m 310 674 l 299 681 q 190 531 246 592 q 56 406 133 469 q 299 125 193 290 l 311 132 q 146 406 249 289 q 310 674 249 518 m 535 674 l 524 681 q 415 531 471 592 q 281 406 358 469 q 524 125 418 290 l 536 132 q 371 406 474 289 q 535 674 474 518 "},"¬":{"ha":835,"x_min":56,"x_max":781,"o":"m 56 551 l 56 489 l 718 489 l 718 271 l 781 271 l 781 551 l 56 551 "},"­":{"ha":528,"x_min":47,"x_max":481,"o":"m 47 406 l 56 374 l 472 374 l 481 406 l 472 436 l 56 436 l 47 406 "},"®":{"ha":340,"x_min":14,"x_max":328,"o":"m 60 928 q 14 817 14 882 q 60 706 14 751 q 171 660 106 660 q 282 706 236 660 q 328 817 328 751 q 282 928 328 882 q 171 974 236 974 q 83 951 106 974 q 60 928 60 928 m 79 726 q 42 817 42 764 q 79 908 42 869 q 170 946 117 946 q 262 908 224 946 q 300 817 300 869 q 262 726 300 764 q 170 688 224 688 q 98 707 117 688 q 79 726 79 726 m 175 906 l 146 906 l 94 906 l 94 903 l 97 903 q 113 888 111 903 l 113 756 q 97 742 111 742 l 94 742 l 94 739 l 164 739 l 164 742 l 160 742 q 146 757 146 742 l 146 893 l 163 892 q 163 892 163 892 q 197 860 196 892 q 169 822 197 828 l 156 822 l 156 819 q 179 785 161 819 q 190 767 186 772 q 206 750 194 761 q 244 739 217 739 l 261 739 l 261 742 q 240 758 249 746 q 217 792 231 771 q 193 814 204 813 q 222 830 211 817 q 233 862 233 843 q 217 893 233 881 q 175 906 201 906 "},"¯":{"ha":833,"x_min":236,"x_max":585,"o":"m 236 976 l 583 976 l 583 1025 l 236 1025 l 236 976 "},"°":{"ha":357,"x_min":42,"x_max":317,"o":"m 82 883 q 42 786 42 843 q 82 689 42 729 q 178 649 122 649 q 275 689 235 649 q 315 786 315 729 q 275 883 315 843 q 178 922 235 922 q 102 902 122 922 q 82 883 82 883 m 237 844 q 261 786 261 821 q 237 728 261 751 q 178 704 213 704 q 120 728 144 704 q 96 786 96 751 q 120 844 96 821 q 178 868 144 868 q 225 856 213 868 q 237 844 237 844 "},"±":{"ha":668,"x_min":56,"x_max":614,"o":"m 365 558 l 365 807 l 303 807 l 303 558 l 56 558 l 56 496 l 303 496 l 303 249 l 365 249 l 365 496 l 614 496 l 614 558 l 365 558 m 56 83 l 614 83 l 614 146 l 56 146 l 56 83 "},"²":{"ha":521,"x_min":42,"x_max":467,"o":"m 56 931 l 71 826 l 81 826 q 118 922 79 886 q 217 957 157 957 q 308 920 272 957 q 343 810 343 883 q 267 649 343 736 q 197 576 228 606 q 113 499 167 546 q 42 438 58 453 l 42 428 l 422 428 l 465 564 l 457 564 q 421 511 438 529 q 349 486 396 486 l 157 486 q 206 521 163 489 q 300 597 250 553 q 362 664 340 633 q 401 737 383 694 q 419 826 419 779 q 392 911 419 872 q 317 971 364 950 q 220 992 271 992 q 126 975 169 992 q 56 931 82 958 "},"³":{"ha":431,"x_min":40,"x_max":378,"o":"m 56 938 l 71 851 l 81 851 q 81 858 81 854 q 182 956 81 956 q 258 931 231 956 q 286 855 286 906 q 240 769 286 804 q 125 735 194 735 l 124 726 q 304 607 304 726 q 233 458 304 510 q 56 407 163 407 q 43 407 50 407 l 42 397 q 129 389 88 389 q 281 429 215 389 q 378 610 378 488 q 336 697 378 661 q 239 739 294 732 q 322 785 285 749 q 358 870 358 821 q 310 954 358 919 q 181 989 263 989 q 56 938 99 989 "},"´":{"ha":610,"x_min":278,"x_max":513,"o":"m 289 1036 q 513 1154 422 1103 q 456 1228 492 1190 q 279 1046 385 1160 l 289 1036 "},"¶":{"ha":722,"x_min":68,"x_max":710,"o":"m 544 931 l 563 931 q 708 1024 668 933 l 699 1032 q 663 997 679 1008 q 647 987 654 992 q 630 980 639 982 q 615 976 621 978 q 601 973 610 974 q 589 972 592 972 q 576 972 586 972 q 567 972 567 972 l 342 972 q 148 902 226 972 q 69 717 69 832 q 147 532 69 601 q 342 463 224 463 l 342 0 q 343 -65 343 -18 q 329 -159 343 -112 q 258 -264 315 -206 l 268 -276 q 360 -185 329 -244 q 388 0 388 -129 l 388 931 l 503 931 l 503 201 q 501 118 503 139 q 465 -7 500 51 l 478 -18 q 531 76 518 31 q 544 204 544 122 l 544 931 "},"·":{"ha":236,"x_min":14,"x_max":222,"o":"m 85 504 q 14 446 31 488 q 55 401 25 419 q 118 383 85 383 q 181 401 151 383 q 222 446 211 419 q 181 490 211 472 q 126 508 151 508 q 85 504 101 508 m 158 470 q 183 446 178 460 q 158 422 178 432 q 118 411 138 411 q 78 422 99 411 q 53 446 58 432 q 78 470 58 460 q 118 481 99 481 q 148 475 138 481 q 158 470 158 470 "},"¸":{"ha":833,"x_min":340,"x_max":538,"o":"m 392 -67 l 449 1 l 411 1 l 344 -86 l 351 -100 q 397 -89 374 -89 q 468 -150 468 -89 q 431 -214 468 -193 q 343 -235 393 -235 l 342 -249 q 406 -258 372 -258 q 476 -242 440 -258 q 538 -146 538 -212 q 469 -61 538 -79 q 392 -67 435 -51 "},"¹":{"ha":293,"x_min":54,"x_max":267,"o":"m 265 438 l 246 438 q 210 452 225 438 q 194 486 194 467 l 194 992 l 186 992 q 131 951 161 963 q 56 932 100 939 l 56 924 l 90 924 q 133 878 133 924 l 133 488 q 118 452 133 467 q 82 438 103 438 l 63 438 l 63 428 l 265 428 l 265 438 "},"º":{"ha":572,"x_min":42,"x_max":532,"o":"m 113 922 q 42 753 42 853 q 113 583 42 653 q 286 514 185 514 q 460 583 388 514 q 532 753 532 653 q 460 922 532 853 q 286 992 388 992 q 149 957 185 992 q 113 922 113 922 m 166 603 q 118 753 118 663 q 166 903 118 843 q 287 963 214 963 q 408 903 360 963 q 456 753 456 843 q 408 603 456 663 q 287 543 360 543 q 190 573 214 543 q 166 603 166 603 "},"»":{"ha":590,"x_min":54,"x_max":536,"o":"m 281 132 l 293 125 q 536 406 399 290 q 402 531 458 469 q 293 681 346 592 l 282 674 q 446 406 343 518 q 281 132 342 289 m 56 132 l 68 125 q 311 406 174 290 q 177 531 233 469 q 68 681 121 592 l 57 674 q 221 406 118 518 q 56 132 117 289 "},"¼":{"ha":990,"x_min":82,"x_max":958,"o":"m 803 992 l 139 3 l 174 -19 l 836 968 l 803 992 m 293 428 l 293 438 l 274 438 q 238 452 253 438 q 224 486 224 467 l 224 992 l 214 992 q 158 951 189 963 q 83 932 128 939 l 83 924 l 118 924 q 161 878 161 924 l 161 488 q 146 452 161 467 q 110 438 131 438 l 90 438 l 90 428 l 293 428 m 857 181 l 938 181 l 957 246 l 949 246 q 930 231 939 235 q 897 226 921 226 l 857 226 l 857 563 l 849 563 l 543 189 l 543 181 l 796 181 l 796 56 q 780 22 794 35 q 744 8 765 8 l 735 8 l 735 -1 l 918 -1 l 918 8 l 908 8 q 873 23 888 8 q 857 57 858 38 l 857 181 m 796 226 l 618 226 l 796 449 l 796 226 "},"½":{"ha":1118,"x_min":82,"x_max":1064,"o":"m 801 992 l 138 3 l 172 -19 l 835 968 l 801 992 m 293 438 l 274 438 q 238 452 253 438 q 222 486 222 467 l 222 992 l 214 992 q 132 942 182 954 q 83 932 113 936 l 83 924 l 118 924 q 161 878 161 924 l 161 488 q 146 452 161 467 q 110 438 131 438 l 90 438 l 90 428 l 293 428 l 293 438 m 810 564 q 723 547 767 564 q 651 503 679 531 l 668 399 l 678 399 q 715 494 676 458 q 814 529 754 529 q 905 492 869 529 q 940 391 940 456 q 888 251 940 326 q 829 183 865 221 q 766 122 793 146 q 698 62 739 97 q 639 10 657 26 l 639 0 l 1019 0 l 1063 136 l 1054 136 q 1006 74 1028 90 q 946 58 985 58 l 754 58 q 785 80 760 61 q 835 117 811 99 q 1017 394 1017 254 q 957 517 1017 469 q 810 564 897 564 "},"¾":{"ha":990,"x_min":40,"x_max":965,"o":"m 863 992 l 199 3 l 233 -19 l 896 968 l 863 992 m 56 938 l 71 851 l 81 851 q 81 858 81 854 q 182 956 81 956 q 258 931 231 956 q 286 855 286 906 q 240 769 286 804 q 125 735 194 735 l 124 726 q 304 607 304 726 q 229 454 304 507 q 149 419 193 431 q 76 407 104 407 q 43 407 49 407 l 42 397 q 129 389 88 389 q 281 429 215 389 q 378 610 378 488 q 357 672 378 644 q 239 739 317 729 q 322 785 285 749 q 358 870 358 821 q 310 954 358 919 q 181 989 263 989 q 56 938 99 989 m 864 181 l 944 181 l 964 246 l 954 246 q 937 231 946 235 q 904 226 928 226 l 864 226 l 864 563 l 856 563 l 550 189 l 550 181 l 803 181 l 803 56 q 787 22 801 35 q 751 8 772 8 l 742 8 l 742 -1 l 925 -1 l 925 8 l 915 8 q 879 23 894 8 q 864 57 864 38 l 864 181 m 803 226 l 625 226 l 803 449 l 803 226 "},"¿":{"ha":601,"x_min":68,"x_max":547,"o":"m 279 960 q 261 915 261 942 q 279 871 261 889 q 324 853 297 853 q 368 871 350 853 q 386 915 386 889 q 368 960 386 942 q 324 978 350 978 q 288 969 297 978 q 279 960 279 960 m 546 104 l 532 236 l 518 236 q 518 228 518 232 q 472 78 518 135 q 344 22 425 22 q 218 74 263 22 q 174 215 174 125 q 243 390 174 306 q 301 460 272 426 q 372 603 372 540 q 310 736 372 679 l 301 729 q 326 663 326 697 q 315 601 326 629 q 217 469 299 544 q 125 371 172 428 q 69 217 69 303 q 196 8 69 67 q 332 -19 257 -19 q 546 104 479 -19 "},"À":{"ha":989,"x_min":-14,"x_max":1314,"o":"m 519 1085 q 343 1267 431 1182 q 286 1193 306 1232 q 510 1075 397 1128 l 519 1085 m 164 1019 l 168 1006 q 275 1025 225 1025 q 461 919 386 1025 l 117 94 q 64 34 96 54 q -1 14 32 14 l -14 14 l -14 0 l 265 0 l 265 14 l 254 14 q 209 33 224 14 q 194 68 194 51 q 201 101 194 85 l 297 349 l 678 349 l 732 190 q 935 -178 815 -57 q 1054 -269 990 -236 q 1182 -301 1118 -301 q 1313 -279 1246 -301 l 1311 -265 q 1248 -271 1283 -271 q 1158 -251 1213 -271 q 1054 -184 1104 -232 q 944 -41 1004 -136 q 825 215 883 54 l 656 696 q 571 897 604 842 q 481 1006 521 978 q 338 1057 407 1057 q 164 1019 254 1057 m 313 390 l 496 860 q 554 714 522 807 l 664 390 l 313 390 "},"Á":{"ha":989,"x_min":-14,"x_max":1314,"o":"m 510 1075 q 732 1193 643 1142 q 676 1267 713 1229 q 500 1085 606 1199 l 510 1075 m 164 1019 l 168 1006 q 275 1026 225 1026 q 461 919 386 1026 l 117 94 q 64 34 96 54 q -1 14 32 14 l -14 14 l -14 0 l 265 0 l 265 14 l 254 14 q 209 33 224 14 q 194 68 194 51 q 201 101 194 85 l 297 349 l 678 349 l 732 190 q 935 -178 815 -57 q 1054 -269 990 -236 q 1182 -301 1118 -301 q 1313 -279 1246 -301 l 1311 -265 q 1248 -271 1283 -271 q 1158 -251 1213 -271 q 1054 -184 1104 -232 q 944 -41 1004 -136 q 825 215 883 54 l 656 696 q 571 897 604 842 q 481 1006 521 978 q 338 1057 407 1057 q 164 1019 254 1057 m 313 390 l 496 860 q 554 714 522 807 l 664 390 l 313 390 "},"Â":{"ha":989,"x_min":-14,"x_max":1314,"o":"m 501 1250 l 354 1085 l 363 1074 l 508 1165 l 667 1074 l 675 1085 l 515 1250 l 501 1250 m 164 1019 l 168 1006 q 275 1026 225 1026 q 461 919 386 1026 l 117 94 q 64 34 96 54 q -1 14 32 14 l -14 14 l -14 0 l 265 0 l 265 14 l 254 14 q 209 33 224 14 q 194 68 194 51 q 201 101 194 85 l 297 349 l 678 349 l 732 190 q 935 -178 815 -57 q 1054 -269 990 -236 q 1182 -301 1118 -301 q 1313 -279 1246 -301 l 1311 -265 q 1248 -271 1283 -271 q 1158 -251 1213 -271 q 1054 -184 1104 -232 q 944 -41 1004 -136 q 825 215 883 54 l 656 696 q 586 868 619 800 q 536 950 560 921 q 474 1010 513 979 q 401 1049 435 1042 q 335 1056 367 1056 q 164 1019 251 1056 m 313 390 l 496 860 q 554 714 522 807 l 664 390 l 313 390 "},"Ã":{"ha":989,"x_min":-14,"x_max":1314,"o":"m 607 1138 q 528 1167 585 1138 q 439 1197 472 1197 q 382 1165 406 1197 q 350 1079 358 1133 l 364 1079 q 439 1136 388 1136 q 517 1106 460 1136 q 600 1075 575 1075 q 640 1083 625 1075 q 668 1104 656 1090 q 697 1185 692 1133 l 683 1185 q 607 1138 664 1138 m 164 1019 l 168 1006 q 275 1026 225 1026 q 461 919 386 1026 l 117 94 q 64 34 96 54 q -1 14 32 14 l -14 14 l -14 0 l 265 0 l 265 14 l 254 14 q 209 33 224 14 q 194 68 194 51 q 201 101 194 85 l 297 349 l 678 349 l 732 190 q 935 -178 815 -57 q 1054 -269 990 -236 q 1182 -301 1118 -301 q 1313 -279 1246 -301 l 1311 -265 q 1248 -271 1283 -271 q 1158 -251 1213 -271 q 1054 -184 1104 -232 q 944 -41 1004 -136 q 825 215 883 54 l 656 696 q 586 868 619 800 q 536 950 560 921 q 474 1010 513 979 q 401 1049 435 1042 q 335 1056 367 1056 q 164 1019 251 1056 m 313 390 l 496 860 q 554 714 522 807 l 664 390 l 313 390 "},"Ä":{"ha":989,"x_min":-14,"x_max":1314,"o":"m 417 1091 q 433 1129 433 1107 q 417 1167 433 1151 q 378 1183 401 1183 q 340 1167 356 1183 q 324 1129 324 1151 q 340 1091 324 1107 q 378 1075 356 1075 q 409 1083 401 1075 q 417 1091 417 1091 m 678 1091 q 694 1129 694 1107 q 678 1167 694 1151 q 640 1183 663 1183 q 602 1167 618 1183 q 586 1129 586 1151 q 602 1091 586 1107 q 640 1075 618 1075 q 670 1083 663 1075 q 678 1091 678 1091 m 164 1019 l 168 1006 q 275 1026 225 1026 q 461 919 386 1026 l 117 94 q 64 34 96 54 q -1 14 32 14 l -14 14 l -14 0 l 265 0 l 265 14 l 254 14 q 209 33 224 14 q 194 68 194 51 q 201 101 194 85 l 297 349 l 678 349 l 732 190 q 935 -178 815 -57 q 1054 -269 990 -236 q 1182 -301 1118 -301 q 1313 -279 1246 -301 l 1311 -265 q 1248 -271 1283 -271 q 1158 -251 1213 -271 q 1054 -184 1104 -232 q 944 -41 1004 -136 q 825 215 883 54 l 656 696 q 571 897 604 842 q 481 1006 521 978 q 338 1057 407 1057 q 164 1019 254 1057 m 313 390 l 496 860 q 554 714 522 807 l 664 390 l 313 390 "},"Å":{"ha":989,"x_min":-14,"x_max":1314,"o":"m 379 1180 q 417 1105 379 1135 q 521 1075 454 1075 q 622 1126 588 1075 q 640 1189 640 1150 q 603 1256 640 1228 q 510 1283 567 1283 q 417 1254 454 1283 q 379 1202 379 1225 q 379 1180 379 1180 m 558 1238 q 578 1179 578 1217 q 558 1121 578 1142 q 509 1100 539 1100 q 460 1121 479 1100 q 442 1179 442 1142 q 460 1238 442 1217 q 509 1260 479 1260 q 549 1249 539 1260 q 558 1238 558 1238 m 164 1019 l 168 1006 q 275 1026 225 1026 q 461 919 386 1026 l 117 94 q 64 34 96 54 q -1 14 32 14 l -14 14 l -14 0 l 265 0 l 265 14 l 254 14 q 209 33 224 14 q 194 68 194 51 q 201 101 194 85 l 297 349 l 678 349 l 732 190 q 935 -178 815 -57 q 1054 -269 990 -236 q 1182 -301 1118 -301 q 1313 -279 1246 -301 l 1311 -265 q 1248 -271 1283 -271 q 1158 -251 1213 -271 q 1054 -184 1104 -232 q 944 -41 1004 -136 q 825 215 883 54 l 656 696 q 571 897 604 842 q 481 1006 521 978 q 338 1057 407 1057 q 164 1019 254 1057 m 313 390 l 496 860 q 554 714 522 807 l 664 390 l 313 390 "},"Æ":{"ha":1211,"x_min":-278,"x_max":1206,"o":"m -74 -106 q 125 76 51 -51 l 340 444 l 564 444 l 564 81 q 542 33 563 53 q 494 14 522 14 l 482 14 l 481 0 l 1128 0 l 1206 193 l 1192 193 q 979 43 1129 44 l 654 43 l 654 444 l 925 444 q 971 424 951 443 q 990 376 990 404 l 990 356 l 1004 356 l 1004 575 l 990 575 l 990 556 q 971 507 990 526 q 924 486 951 488 l 654 486 l 654 929 l 822 929 q 869 909 850 929 q 889 861 889 889 l 889 840 l 903 840 l 903 997 q 832 981 883 989 q 738 972 781 972 l 525 972 l 525 958 l 531 958 q 559 943 550 958 q 560 910 568 928 l 51 110 q -99 -56 -21 -4 q -276 -112 -176 -108 l -278 -126 q -213 -133 -246 -133 q -145 -128 -181 -133 q -74 -106 -110 -122 m 564 486 l 364 486 l 564 829 l 564 486 "},"Ç":{"ha":1140,"x_min":61,"x_max":1107,"o":"m 658 -162 q 621 -226 658 -204 q 533 -247 583 -247 l 532 -261 q 597 -271 563 -271 q 667 -254 632 -271 q 728 -166 728 -225 q 689 -85 728 -107 q 582 -79 642 -58 l 633 -19 q 890 46 782 -15 q 985 121 943 75 q 1054 226 1026 167 q 1094 352 1082 285 q 1107 462 1107 419 q 1106 521 1107 504 l 1092 521 q 962 156 1092 289 q 626 22 832 22 q 294 156 421 22 q 167 489 167 290 q 290 819 167 688 q 597 950 413 950 q 832 884 726 950 q 967 701 938 818 l 979 701 l 951 897 q 788 966 886 940 q 596 992 690 992 q 324 926 446 992 q 132 744 201 860 q 63 488 63 629 q 213 131 63 275 q 596 -19 363 -12 l 535 -99 l 542 -112 q 588 -101 565 -101 q 658 -162 658 -101 "},"È":{"ha":843,"x_min":83,"x_max":838,"o":"m 354 1071 q 178 1253 267 1168 q 121 1179 142 1218 q 344 1061 233 1114 l 354 1071 m 101 14 l 83 14 l 83 0 l 757 0 l 838 225 l 824 225 q 733 89 788 135 q 576 43 679 43 l 281 43 l 281 458 l 546 458 q 592 438 574 457 q 611 390 611 418 l 611 369 l 625 369 l 625 589 l 611 589 l 611 569 q 592 521 611 540 q 544 500 572 501 l 281 500 l 281 929 l 439 929 q 494 904 471 928 q 517 847 517 881 l 517 822 l 531 822 l 531 997 q 459 981 510 989 q 365 972 408 972 l 83 972 l 85 958 l 101 958 q 164 935 138 958 q 190 879 190 913 l 190 101 q 163 40 189 65 q 101 14 138 14 "},"É":{"ha":843,"x_min":83,"x_max":838,"o":"m 344 1061 q 568 1179 479 1128 q 511 1253 549 1215 q 335 1071 440 1185 l 344 1061 m 101 14 l 83 14 l 83 0 l 757 0 l 838 225 l 824 225 q 733 89 788 135 q 576 43 679 43 l 281 43 l 281 458 l 546 458 q 592 438 574 457 q 611 390 611 418 l 611 369 l 625 369 l 625 589 l 611 589 l 611 569 q 592 521 611 540 q 544 500 572 501 l 281 500 l 281 929 l 439 929 q 494 904 471 928 q 517 847 517 881 l 517 822 l 531 822 l 531 997 q 472 982 518 992 q 365 972 425 972 l 83 972 l 85 958 l 101 958 q 164 935 138 958 q 190 879 190 913 l 190 101 q 163 40 189 65 q 101 14 138 14 "},"Ê":{"ha":843,"x_min":83,"x_max":838,"o":"m 338 1236 l 190 1071 l 199 1060 l 344 1151 l 501 1060 l 510 1071 l 351 1236 l 338 1236 m 101 14 l 83 14 l 83 0 l 757 0 l 838 225 l 824 225 q 773 129 800 165 q 697 68 746 93 q 576 43 647 43 l 281 43 l 281 458 l 546 458 q 592 438 574 457 q 611 390 611 418 l 611 369 l 625 369 l 625 589 l 611 589 l 611 569 q 592 521 611 540 q 544 500 572 501 l 281 500 l 281 929 l 439 929 q 494 904 471 928 q 517 847 517 881 l 517 822 l 531 822 l 531 997 q 459 981 510 989 q 365 972 408 972 l 83 972 l 85 958 l 101 958 q 164 935 138 958 q 190 879 190 913 l 190 101 q 163 40 189 65 q 101 14 138 14 "},"Ë":{"ha":843,"x_min":83,"x_max":838,"o":"m 252 1077 q 268 1115 268 1093 q 252 1153 268 1138 q 214 1169 236 1169 q 176 1153 192 1169 q 160 1115 160 1138 q 176 1077 160 1093 q 214 1061 192 1061 q 244 1069 236 1061 q 252 1077 252 1077 m 515 1077 q 531 1115 531 1093 q 515 1153 531 1138 q 476 1169 499 1169 q 437 1153 453 1169 q 421 1115 421 1138 q 437 1077 421 1093 q 476 1061 453 1061 q 507 1069 499 1061 q 515 1077 515 1077 m 101 14 l 83 14 l 83 0 l 757 0 l 838 225 l 824 225 q 733 89 788 135 q 576 43 679 43 l 281 43 l 281 458 l 546 458 q 592 438 574 457 q 611 390 611 418 l 611 369 l 625 369 l 625 589 l 611 589 l 611 569 q 592 521 611 540 q 544 500 572 501 l 281 500 l 281 929 l 439 929 q 494 904 471 928 q 517 847 517 881 l 517 822 l 531 822 l 531 997 q 472 982 518 992 q 365 972 425 972 l 83 972 l 85 958 l 101 958 q 164 935 138 958 q 190 879 190 913 l 190 101 q 163 40 189 65 q 101 14 138 14 "},"Ì":{"ha":546,"x_min":-71,"x_max":467,"o":"m 321 1071 q 144 1253 233 1168 q 89 1179 108 1218 q 311 1061 200 1114 l 321 1071 m 446 14 q 384 40 410 14 q 357 101 358 65 l 357 861 q 382 946 357 915 q 467 986 407 976 l 464 1000 q 248 976 385 985 q 110 967 111 967 q -69 829 -69 947 q -51 768 -69 796 q 40 719 -21 719 q 79 724 60 719 l 79 732 q 2 760 26 733 q -22 825 -22 788 q 118 926 -22 918 l 267 935 l 267 101 q 240 40 267 65 q 178 14 214 14 l 160 14 l 160 0 l 464 0 l 464 14 l 446 14 "},"Í":{"ha":546,"x_min":-71,"x_max":536,"o":"m 311 1061 q 535 1179 446 1128 q 478 1253 515 1215 q 301 1071 407 1185 l 311 1061 m 446 14 q 384 40 410 14 q 357 101 358 65 l 357 861 q 382 946 357 915 q 467 986 407 976 l 464 1000 q 248 976 385 985 q 110 967 111 967 q -69 829 -69 947 q -34 747 -69 775 q 30 719 1 719 q 79 724 58 719 l 79 732 q 2 761 26 735 q -22 825 -22 788 q 118 926 -22 918 l 267 935 l 267 101 q 240 40 267 65 q 178 14 214 14 l 160 14 l 160 0 l 464 0 l 464 14 l 446 14 "},"Î":{"ha":546,"x_min":-71,"x_max":478,"o":"m 304 1236 l 157 1071 l 165 1060 l 311 1151 l 468 1060 l 476 1071 l 318 1236 l 304 1236 m 446 14 q 384 40 410 14 q 357 101 358 65 l 357 861 q 382 946 357 915 q 467 986 407 976 l 464 1000 q 248 976 385 985 q 110 967 111 967 q -69 829 -69 947 q -34 747 -69 775 q 30 719 1 719 q 79 724 58 719 l 79 732 q 2 761 26 735 q -22 825 -22 788 q 118 926 -22 918 l 267 935 l 267 101 q 240 40 267 65 q 178 14 214 14 l 160 14 l 160 0 l 464 0 l 464 14 l 446 14 "},"Ï":{"ha":546,"x_min":-71,"x_max":497,"o":"m 219 1077 q 235 1115 235 1093 q 219 1153 235 1138 q 181 1169 203 1169 q 142 1153 158 1169 q 126 1115 126 1138 q 142 1077 126 1093 q 181 1061 158 1061 q 211 1069 203 1061 q 219 1077 219 1077 m 481 1077 q 497 1115 497 1093 q 481 1153 497 1138 q 442 1169 465 1169 q 403 1153 419 1169 q 388 1115 388 1138 q 403 1077 388 1093 q 442 1061 419 1061 q 473 1069 465 1061 q 481 1077 481 1077 m 446 14 q 384 40 410 14 q 357 101 358 65 l 357 861 q 382 946 357 915 q 467 986 407 976 l 464 1000 q 248 976 385 985 q 110 967 111 967 q -69 829 -69 947 q -51 768 -69 796 q 40 719 -21 719 q 79 724 60 719 l 79 732 q 2 761 26 735 q -22 825 -22 788 q 118 926 -22 918 l 267 935 l 267 101 q 240 40 267 65 q 178 14 214 14 l 160 14 l 160 0 l 464 0 l 464 14 l 446 14 "},"Ð":{"ha":1135,"x_min":-169,"x_max":1053,"o":"m -168 769 l -153 764 q -112 825 -132 801 q -56 874 -93 849 q 190 929 17 922 l 190 507 l 83 507 l 83 465 l 190 465 l 190 93 q 161 37 186 60 q 101 14 136 14 l 85 14 l 83 0 l 554 0 q 915 134 776 0 q 1053 486 1053 268 q 990 740 1053 631 q 814 908 926 849 q 554 972 701 968 q 300 976 356 976 q -35 931 58 976 q -168 769 -129 886 m 281 465 l 514 465 l 514 507 l 281 507 l 281 931 l 554 931 q 840 808 732 931 q 949 486 949 686 q 899 253 949 354 q 760 97 850 151 q 554 42 671 42 l 281 42 l 281 465 "},"Ñ":{"ha":1168,"x_min":-262,"x_max":1464,"o":"m 689 1124 q 611 1153 667 1124 q 522 1183 556 1183 q 464 1151 488 1183 q 432 1065 440 1119 l 446 1065 q 522 1122 469 1122 q 599 1092 542 1122 q 685 1061 657 1061 q 732 1074 713 1061 q 781 1171 772 1101 l 767 1171 q 689 1124 747 1124 m 1464 -211 l 1458 -197 q 1401 -203 1428 -203 q 1331 -193 1374 -203 q 1256 -164 1289 -183 q 1213 -137 1232 -149 q 1173 -105 1194 -125 q 1137 -72 1151 -85 q 1101 -35 1122 -58 q 1070 1 1081 -11 q 1034 44 1060 14 q 994 90 1008 75 l 994 875 q 1021 934 996 910 q 1081 958 1046 958 l 1106 958 l 1106 972 l 819 972 l 819 958 l 846 958 q 906 934 881 958 q 932 874 931 910 l 932 161 l 232 939 q 104 1067 156 1024 q -128 1158 -10 1158 q -261 1131 -193 1158 l -256 1117 q -185 1128 -218 1128 q -106 1114 -153 1128 q -17 1068 -58 1100 q 30 1029 10 1046 q 74 985 50 1013 q 111 942 97 958 q 146 898 125 925 q 174 861 167 871 l 174 99 q 149 38 174 63 q 89 14 124 14 l 63 14 l 63 0 l 349 0 l 349 14 l 322 14 q 263 38 288 14 q 238 97 238 63 l 238 792 l 969 -19 q 1103 -146 1038 -93 q 1181 -194 1142 -176 q 1259 -222 1219 -211 q 1348 -232 1299 -232 q 1464 -211 1397 -232 "},"Ò":{"ha":1290,"x_min":83,"x_max":1207,"o":"m 661 1071 q 485 1253 574 1168 q 428 1179 449 1218 q 651 1061 540 1114 l 661 1071 m 385 649 l 399 651 q 396 692 396 667 q 407 751 396 717 q 567 921 446 869 q 721 950 633 950 q 883 913 808 950 q 1004 814 958 876 q 1100 504 1100 686 q 973 155 1100 288 q 647 22 846 22 q 322 150 449 22 q 225 308 260 213 q 190 525 190 403 q 230 760 190 647 q 360 932 269 872 l 351 944 q 153 764 222 879 q 83 498 83 649 q 158 228 83 347 q 360 45 232 110 q 648 -19 489 -19 q 935 46 807 -19 q 1135 230 1063 111 q 1207 493 1207 349 q 1148 749 1207 638 q 978 926 1089 861 q 744 992 868 992 q 547 956 621 992 q 484 916 513 939 q 438 867 456 893 q 406 813 419 842 q 387 756 392 785 q 381 710 382 726 q 379 680 379 693 q 385 649 379 667 "},"Ó":{"ha":1290,"x_min":83,"x_max":1207,"o":"m 651 1061 q 875 1179 785 1128 q 818 1253 856 1215 q 642 1071 747 1185 l 651 1061 m 385 649 l 399 651 q 396 692 396 667 q 407 751 396 717 q 567 921 446 869 q 721 950 633 950 q 883 913 808 950 q 1004 814 958 876 q 1100 504 1100 686 q 973 155 1100 288 q 647 22 846 22 q 322 150 449 22 q 225 308 260 213 q 190 525 190 403 q 230 760 190 647 q 360 932 269 872 l 351 944 q 153 764 222 879 q 83 498 83 649 q 158 228 83 347 q 360 45 232 110 q 648 -19 489 -19 q 935 46 807 -19 q 1135 230 1063 111 q 1207 493 1207 349 q 1148 749 1207 638 q 978 926 1089 861 q 744 992 868 992 q 547 956 621 992 q 484 917 513 939 q 438 868 456 894 q 406 813 419 842 q 387 756 392 785 q 381 710 382 726 q 379 680 379 693 q 385 649 379 667 "},"Ô":{"ha":1290,"x_min":83,"x_max":1208,"o":"m 644 1236 l 497 1071 l 506 1060 l 650 1151 l 808 1060 l 817 1071 l 658 1236 l 644 1236 m 385 649 l 399 651 q 396 692 396 667 q 407 751 396 717 q 567 921 446 869 q 721 950 633 950 q 883 913 808 950 q 1004 814 958 876 q 1100 504 1100 686 q 1042 251 1100 361 q 880 82 983 142 q 644 22 776 22 q 322 150 449 22 q 225 308 260 213 q 190 525 190 403 q 230 760 190 647 q 360 932 269 872 l 351 944 q 153 764 222 879 q 83 517 83 649 q 126 288 83 386 q 245 123 169 190 q 424 18 321 56 q 647 -19 528 -19 q 935 46 807 -19 q 1135 230 1063 111 q 1207 493 1207 349 q 1148 749 1207 638 q 978 926 1089 861 q 744 992 868 992 q 547 956 621 992 q 484 917 513 939 q 438 868 456 894 q 406 813 419 842 q 387 756 392 785 q 381 710 382 726 q 379 680 379 693 q 385 649 379 667 "},"Õ":{"ha":1290,"x_min":83,"x_max":1208,"o":"m 749 1124 q 671 1153 726 1124 q 582 1183 615 1183 q 524 1151 549 1183 q 493 1065 500 1119 l 507 1065 q 582 1122 529 1122 q 660 1092 603 1122 q 745 1061 717 1061 q 792 1074 774 1061 q 840 1171 832 1101 l 826 1171 q 749 1124 807 1124 m 385 649 l 399 651 q 396 692 396 667 q 407 751 396 717 q 567 921 446 869 q 721 950 633 950 q 883 913 808 950 q 1004 814 958 876 q 1100 504 1100 686 q 1042 251 1100 361 q 880 82 983 142 q 644 22 776 22 q 322 150 449 22 q 225 308 260 213 q 190 521 190 403 q 258 818 190 694 q 360 932 299 892 l 351 944 q 153 764 222 879 q 83 498 83 649 q 158 228 83 347 q 360 45 232 110 q 648 -19 489 -19 q 935 46 807 -19 q 1135 230 1063 111 q 1207 493 1207 349 q 1148 749 1207 638 q 978 926 1089 861 q 744 992 868 992 q 547 956 621 992 q 484 917 513 939 q 438 868 456 894 q 406 813 419 842 q 387 756 392 785 q 381 710 382 726 q 379 680 379 693 q 385 649 379 667 "},"Ö":{"ha":1290,"x_min":83,"x_max":1207,"o":"m 559 1077 q 575 1115 575 1093 q 559 1153 575 1138 q 521 1169 543 1169 q 483 1153 499 1169 q 467 1115 467 1138 q 483 1077 467 1093 q 521 1061 499 1061 q 551 1069 543 1061 q 559 1077 559 1077 m 820 1077 q 836 1115 836 1093 q 820 1153 836 1138 q 782 1169 804 1169 q 744 1153 760 1169 q 728 1115 728 1138 q 744 1077 728 1093 q 782 1061 760 1061 q 812 1069 804 1061 q 820 1077 820 1077 m 385 649 l 399 651 q 396 692 396 667 q 407 751 396 717 q 567 921 446 869 q 721 950 633 950 q 883 913 808 950 q 1004 814 958 876 q 1100 504 1100 686 q 973 155 1100 288 q 647 22 846 22 q 322 150 449 22 q 225 308 260 213 q 190 525 190 403 q 230 760 190 647 q 360 932 269 872 l 351 944 q 153 764 222 879 q 83 498 83 649 q 158 228 83 347 q 360 45 232 110 q 648 -19 489 -19 q 935 46 807 -19 q 1135 230 1063 111 q 1207 493 1207 349 q 1148 749 1207 638 q 978 926 1089 861 q 744 992 868 992 q 547 956 621 992 q 484 917 513 939 q 438 868 456 894 q 406 813 419 842 q 387 756 392 785 q 381 710 382 726 q 379 680 379 693 q 385 649 379 667 "},"×":{"ha":576,"x_min":68,"x_max":508,"o":"m 508 606 l 464 650 l 289 475 l 114 650 l 69 606 l 244 431 l 69 256 l 114 211 l 289 386 l 464 211 l 508 256 l 333 431 l 508 606 "},"Ø":{"ha":1290,"x_min":83,"x_max":1208,"o":"m 1025 894 l 1090 972 l 1054 1003 l 986 921 q 726 992 872 992 q 547 956 621 992 q 484 917 513 939 q 438 868 456 894 q 406 813 419 842 q 387 756 392 785 q 381 710 382 726 q 379 680 379 693 q 385 649 379 667 l 399 651 q 396 692 396 667 q 407 751 396 717 q 567 921 446 869 q 715 950 633 950 q 947 874 851 950 l 333 136 q 190 521 190 271 q 230 760 190 647 q 360 932 269 872 l 351 944 q 153 764 222 879 q 83 508 83 649 q 138 261 83 368 q 290 85 193 154 l 219 -1 l 254 -32 l 331 60 q 633 -19 465 -19 q 929 46 800 -19 q 1133 231 1058 111 q 1207 486 1207 350 q 1025 894 1207 753 m 638 22 q 368 106 481 22 l 981 842 q 1047 746 1021 800 q 1100 504 1100 639 q 970 156 1100 289 q 638 22 840 22 "},"Ù":{"ha":1088,"x_min":68,"x_max":1256,"o":"m 596 1071 q 419 1253 507 1168 q 363 1179 382 1218 q 586 1061 474 1114 l 596 1071 m 1232 1211 q 963 1110 1067 1211 q 860 804 860 1008 l 860 343 q 775 112 860 200 q 550 24 690 24 q 337 117 418 24 q 256 361 256 210 l 256 892 q 278 940 257 921 q 329 958 299 958 l 351 958 l 351 972 l 69 972 l 69 958 l 92 958 q 144 939 122 958 q 165 889 165 919 l 165 342 q 272 80 165 179 q 549 -19 378 -19 q 822 81 719 -19 q 925 343 925 181 l 925 806 q 1014 1097 925 996 q 1256 1197 1103 1197 l 1256 1211 q 1232 1211 1243 1211 "},"Ú":{"ha":1088,"x_min":69,"x_max":1256,"o":"m 586 1061 q 808 1179 719 1128 q 753 1253 789 1215 q 576 1071 682 1185 l 586 1061 m 1232 1211 q 963 1110 1067 1211 q 860 804 860 1008 l 860 343 q 775 113 860 200 q 554 25 690 25 q 337 117 418 25 q 256 361 256 210 l 256 892 q 267 926 257 911 q 329 958 288 958 l 351 958 l 351 972 l 69 972 l 69 958 l 92 958 q 144 939 122 958 q 165 890 165 919 l 165 342 q 272 80 165 179 q 549 -19 378 -19 q 822 81 719 -19 q 925 343 925 181 l 925 806 q 1014 1097 925 996 q 1256 1197 1103 1197 l 1256 1211 q 1232 1211 1243 1211 "},"Û":{"ha":1088,"x_min":69,"x_max":1256,"o":"m 578 1236 l 431 1071 l 439 1060 l 585 1151 l 743 1060 l 751 1071 l 592 1236 l 578 1236 m 1232 1211 q 963 1110 1067 1211 q 860 804 860 1008 l 860 343 q 775 113 860 200 q 554 25 690 25 q 337 117 418 25 q 256 361 256 210 l 256 892 q 278 940 257 921 q 329 958 299 958 l 351 958 l 351 972 l 69 972 l 69 958 l 92 958 q 129 950 113 958 q 165 890 165 931 l 165 342 q 272 80 165 179 q 549 -19 378 -19 q 822 81 719 -19 q 925 343 925 181 l 925 806 q 1014 1097 925 996 q 1256 1197 1103 1197 l 1256 1211 q 1232 1211 1243 1211 "},"Ü":{"ha":1088,"x_min":68,"x_max":1256,"o":"m 1232 1211 q 963 1110 1067 1211 q 860 804 860 1008 l 860 343 q 775 113 860 200 q 550 25 690 25 q 337 117 418 25 q 256 361 256 210 l 256 892 q 278 940 257 921 q 329 958 299 958 l 351 958 l 351 972 l 69 972 l 69 958 l 92 958 q 129 950 113 958 q 165 890 165 931 l 165 342 q 272 80 165 179 q 549 -19 378 -19 q 822 81 719 -19 q 925 343 925 181 l 925 806 q 1014 1097 925 996 q 1256 1197 1103 1197 l 1256 1211 q 1232 1211 1243 1211 m 494 1077 q 510 1115 510 1093 q 494 1153 510 1138 q 455 1169 478 1169 q 416 1153 432 1169 q 400 1115 400 1138 q 416 1077 400 1093 q 455 1061 432 1061 q 486 1069 478 1061 q 494 1077 494 1077 m 755 1077 q 771 1115 771 1093 q 755 1153 771 1138 q 717 1169 739 1169 q 678 1153 694 1169 q 663 1115 663 1138 q 678 1077 663 1093 q 717 1061 694 1061 q 747 1069 739 1061 q 755 1077 755 1077 "},"Ý":{"ha":858,"x_min":-56,"x_max":915,"o":"m 460 1061 q 683 1179 594 1128 q 626 1253 664 1215 q 450 1071 556 1185 l 460 1061 m -56 1051 l -56 1038 q 111 958 26 1038 q 257 765 196 879 q 357 525 318 650 q 396 307 396 400 l 396 100 q 368 39 394 64 q 307 14 342 14 l 289 14 l 289 0 l 592 0 l 592 14 l 575 14 q 512 40 538 14 q 486 101 486 67 l 486 306 q 523 517 486 393 q 617 758 560 642 q 756 956 675 874 q 915 1038 838 1038 l 915 1051 q 763 1014 838 1051 q 701 969 732 999 q 647 915 669 940 q 601 848 625 890 q 561 778 576 806 q 526 701 546 750 q 495 626 506 653 q 472 566 485 600 q 456 522 460 532 q 446 547 451 533 q 428 598 444 553 q 388 703 413 643 q 352 779 368 750 q 310 850 336 808 q 260 917 285 892 q 199 973 235 943 q 127 1019 164 1003 q 47 1043 90 1035 q -21 1051 4 1051 q -56 1051 -46 1051 "},"Þ":{"ha":769,"x_min":58,"x_max":701,"o":"m 683 604 q 422 761 626 761 l 257 761 l 257 872 q 283 933 257 908 q 346 958 310 958 l 363 958 l 363 972 l 60 972 l 60 958 l 78 958 q 140 933 114 958 q 167 872 165 908 l 167 101 q 140 40 165 65 q 76 14 114 14 l 60 14 l 60 0 l 363 0 l 363 14 l 346 14 q 301 25 321 14 q 257 101 257 50 l 257 719 l 417 719 q 553 662 504 719 q 604 507 601 604 q 604 476 604 500 q 594 424 604 451 q 492 296 567 333 q 304 274 404 251 l 304 260 q 451 228 365 228 q 519 242 479 228 q 676 379 632 281 q 701 492 701 431 q 683 604 701 554 "},"ß":{"ha":1322,"x_min":79,"x_max":1242,"o":"m 85 57 q 191 -1 122 18 q 321 -19 260 -19 q 510 52 439 -19 q 581 235 581 124 q 511 410 581 346 l 238 663 q 182 785 182 714 q 230 903 182 856 q 349 950 278 950 q 465 911 419 950 q 510 807 510 872 l 522 807 l 522 978 l 468 978 q 349 992 401 992 q 170 922 236 992 q 104 753 104 851 q 179 585 104 654 l 446 338 q 500 208 500 288 q 444 75 500 128 q 300 22 388 22 q 164 78 215 22 q 113 219 113 135 q 114 250 113 235 l 101 250 q 81 132 81 188 q 85 57 81 76 m 746 57 q 851 -1 783 18 q 982 -19 919 -19 q 1171 52 1100 -19 q 1242 235 1242 124 q 1172 410 1242 346 l 899 663 q 843 798 843 714 q 925 928 843 882 q 1022 950 964 950 q 1126 911 1081 950 q 1169 807 1171 872 l 1183 807 l 1183 978 l 1128 978 q 1010 992 1063 992 q 831 922 897 992 q 765 753 765 851 q 840 585 765 654 l 1107 338 q 1161 208 1161 288 q 1105 75 1161 128 q 961 22 1049 22 q 825 78 876 22 q 774 219 774 135 q 775 250 774 235 l 763 250 q 742 132 742 188 q 746 57 742 76 "},"à":{"ha":989,"x_min":-14,"x_max":1004,"o":"m 504 1071 q 328 1253 415 1168 q 271 1179 292 1218 q 494 1061 382 1114 l 504 1071 m 993 14 q 949 22 971 14 q 871 101 897 43 l 499 992 l 486 992 q 435 849 486 961 l 121 101 q 67 36 100 58 q -1 14 33 14 l -14 14 l -14 0 l 265 0 l 265 14 l 253 14 q 219 24 235 14 q 199 48 204 35 q 194 72 194 61 q 200 100 194 83 l 293 338 l 668 338 l 757 101 q 763 68 763 85 q 748 33 763 51 q 704 14 733 14 l 692 14 l 692 0 l 1004 0 l 1004 14 l 993 14 m 310 379 l 485 825 l 651 379 l 310 379 "},"á":{"ha":989,"x_min":-15,"x_max":1004,"o":"m 494 1061 q 718 1179 628 1128 q 661 1253 699 1215 q 485 1071 590 1185 l 494 1061 m 993 14 q 924 36 957 14 q 871 101 890 58 l 499 992 l 486 992 q 435 849 486 961 l 121 101 q 67 36 100 58 q -1 14 33 14 l -14 14 l -14 0 l 265 0 l 265 14 l 253 14 q 209 33 224 14 q 194 67 194 51 q 200 100 194 83 l 293 338 l 668 338 l 757 101 q 763 68 763 85 q 748 33 763 51 q 704 14 733 14 l 692 14 l 692 0 l 1004 0 l 1004 14 l 993 14 m 310 379 l 485 825 l 651 379 l 310 379 "},"â":{"ha":989,"x_min":-14,"x_max":1004,"o":"m 488 1236 l 340 1071 l 349 1060 l 493 1151 l 651 1060 l 660 1071 l 501 1236 l 488 1236 m 993 14 q 924 36 957 14 q 871 101 890 58 l 499 992 l 486 992 q 435 849 486 961 l 121 101 q 67 36 100 58 q -1 14 33 14 l -14 14 l -14 0 l 265 0 l 265 14 l 253 14 q 209 33 224 14 q 194 67 194 51 q 200 100 194 83 l 293 338 l 668 338 l 757 101 q 763 68 763 85 q 748 33 763 51 q 704 14 733 14 l 692 14 l 692 0 l 1004 0 l 1004 14 l 993 14 m 310 379 l 485 825 l 651 379 l 310 379 "},"ã":{"ha":989,"x_min":-14,"x_max":1004,"o":"m 592 1124 q 514 1153 569 1124 q 424 1183 458 1183 q 367 1151 390 1183 q 336 1065 343 1119 l 350 1065 q 425 1122 372 1122 q 502 1092 444 1122 q 588 1061 560 1061 q 635 1074 615 1061 q 683 1171 675 1101 l 669 1171 q 592 1124 650 1124 m 993 14 q 924 36 957 14 q 871 101 890 58 l 499 992 l 486 992 q 435 849 486 961 l 121 101 q 67 36 100 58 q -1 14 33 14 l -14 14 l -14 0 l 265 0 l 265 14 l 253 14 q 209 33 224 14 q 194 67 194 51 q 200 100 194 83 l 293 338 l 668 338 l 757 101 q 763 68 763 85 q 748 33 763 51 q 704 14 733 14 l 692 14 l 692 0 l 1004 0 l 1004 14 l 993 14 m 310 379 l 485 825 l 651 379 l 310 379 "},"ä":{"ha":989,"x_min":-15,"x_max":1004,"o":"m 402 1077 q 418 1115 418 1093 q 402 1153 418 1138 q 364 1169 386 1169 q 326 1153 342 1169 q 310 1115 310 1138 q 326 1077 310 1093 q 364 1061 342 1061 q 394 1069 386 1061 q 402 1077 402 1077 m 663 1077 q 679 1115 679 1093 q 663 1153 679 1138 q 625 1169 647 1169 q 587 1153 603 1169 q 571 1115 571 1138 q 587 1077 571 1093 q 625 1061 603 1061 q 655 1069 647 1061 q 663 1077 663 1077 m 993 14 q 924 36 957 14 q 871 101 890 58 l 499 992 l 486 992 q 435 849 486 961 l 121 101 q 67 36 100 58 q -1 14 33 14 l -14 14 l -14 0 l 265 0 l 265 14 l 253 14 q 228 19 240 14 q 200 100 181 42 l 293 338 l 668 338 l 757 101 q 763 68 763 85 q 748 33 763 51 q 704 14 733 14 l 692 14 l 692 0 l 1004 0 l 1004 14 l 993 14 m 310 379 l 485 825 l 651 379 l 310 379 "},"å":{"ha":989,"x_min":-15,"x_max":1004,"o":"m 381 1219 q 364 1158 364 1196 q 401 1091 364 1121 q 485 1061 439 1061 q 561 1075 532 1061 q 625 1165 625 1104 q 588 1242 625 1214 q 505 1269 551 1269 q 428 1256 458 1269 q 390 1231 399 1243 q 381 1219 381 1219 m 544 1224 q 563 1165 563 1203 q 544 1107 563 1128 q 495 1086 525 1086 q 446 1107 465 1086 q 426 1165 426 1128 q 446 1224 426 1203 q 495 1246 465 1246 q 534 1235 525 1246 q 544 1224 544 1224 m 993 14 q 924 36 957 14 q 871 101 890 58 l 499 992 l 486 992 q 435 849 486 961 l 121 101 q 67 36 100 58 q -1 14 33 14 l -14 14 l -14 0 l 265 0 l 265 14 l 253 14 q 209 33 224 14 q 194 67 194 51 q 200 100 194 83 l 293 338 l 668 338 l 757 101 q 763 68 763 85 q 748 33 763 51 q 704 14 733 14 l 692 14 l 692 0 l 1004 0 l 1004 14 l 993 14 m 310 379 l 485 825 l 651 379 l 310 379 "},"æ":{"ha":1251,"x_min":-15,"x_max":1192,"o":"m 578 14 l 565 14 l 564 0 l 1114 0 l 1192 193 l 1178 193 q 965 43 1115 44 l 738 43 l 738 444 l 974 444 q 1019 424 1000 443 q 1039 376 1039 404 l 1039 356 l 1053 356 l 1053 575 l 1039 575 l 1039 556 q 1019 507 1039 526 q 972 486 1000 488 l 738 486 l 738 929 l 1031 929 q 1078 909 1058 929 q 1097 861 1097 889 l 1097 840 l 1111 840 l 1111 997 q 1040 981 1092 989 q 946 972 989 972 l 608 972 l 608 958 l 614 958 q 642 943 633 958 q 643 910 651 928 l 124 99 q 66 40 103 65 q -4 14 29 14 l -14 14 l -14 0 l 263 0 l 263 14 l 249 14 q 244 14 247 14 q 206 38 217 14 q 201 62 201 49 q 211 93 201 75 l 419 444 l 647 444 l 647 81 q 626 33 646 53 q 578 14 606 14 m 647 486 l 443 486 l 647 831 l 647 486 "},"ç":{"ha":1056,"x_min":83,"x_max":988,"o":"m 547 -85 l 604 -19 q 763 13 690 -17 q 969 188 894 64 l 986 406 l 975 406 q 839 107 951 199 q 579 22 735 22 q 295 153 403 26 q 188 489 188 281 q 297 824 188 697 q 588 950 406 950 q 808 885 715 950 q 932 701 901 821 l 944 701 l 917 897 q 588 992 774 992 q 222 853 360 992 q 83 489 83 714 q 217 126 83 264 q 565 -19 351 -12 l 500 -104 l 507 -118 q 553 -107 531 -107 q 624 -168 624 -107 q 586 -232 624 -211 q 499 -253 549 -253 l 497 -267 q 563 -276 529 -276 q 632 -260 597 -276 q 693 -164 693 -231 q 625 -79 693 -97 q 547 -85 590 -69 "},"è":{"ha":801,"x_min":83,"x_max":740,"o":"m 422 1071 q 246 1253 333 1168 q 189 1179 210 1218 q 413 1061 301 1114 l 422 1071 m 101 14 l 83 14 l 83 0 l 660 0 l 740 224 l 726 225 q 636 89 690 135 q 479 43 582 43 l 281 43 l 281 458 l 517 458 q 542 453 531 458 q 582 390 582 433 l 582 369 l 596 369 l 596 589 l 582 589 l 582 569 q 563 521 582 540 q 515 500 543 501 l 281 500 l 281 929 l 564 929 q 619 904 596 928 q 642 847 642 881 l 642 822 l 656 822 l 656 997 q 597 982 643 992 q 490 972 550 972 l 83 972 l 85 958 l 101 958 q 164 935 138 958 q 190 879 190 913 l 190 101 q 163 40 189 65 q 101 14 138 14 "},"é":{"ha":801,"x_min":83,"x_max":740,"o":"m 413 1061 q 636 1179 546 1128 q 579 1253 617 1215 q 403 1071 508 1185 l 413 1061 m 101 14 l 83 14 l 83 0 l 660 0 l 740 225 l 726 225 q 636 89 690 135 q 479 43 582 43 l 281 43 l 281 458 l 517 458 q 563 438 544 457 q 582 390 582 418 l 582 369 l 596 369 l 596 589 l 582 589 l 582 569 q 563 521 582 540 q 515 500 543 501 l 281 500 l 281 929 l 564 929 q 619 904 596 928 q 642 847 642 881 l 642 822 l 656 822 l 656 997 q 597 982 643 992 q 490 972 550 972 l 83 972 l 85 958 l 101 958 q 164 935 138 958 q 190 879 190 913 l 190 101 q 163 40 189 65 q 101 14 138 14 "},"ê":{"ha":801,"x_min":83,"x_max":740,"o":"m 406 1236 l 258 1071 l 267 1060 l 411 1151 l 569 1060 l 578 1071 l 419 1236 l 406 1236 m 101 14 l 83 14 l 83 0 l 660 0 l 740 225 l 726 225 q 636 89 690 135 q 479 43 582 43 l 281 43 l 281 458 l 517 458 q 563 438 544 457 q 582 390 582 418 l 582 369 l 596 369 l 596 589 l 582 589 l 582 569 q 563 521 582 540 q 515 500 543 501 l 281 500 l 281 929 l 564 929 q 619 904 596 928 q 642 847 642 881 l 642 822 l 656 822 l 656 997 q 597 982 643 992 q 490 972 550 972 l 83 972 l 85 958 l 101 958 q 164 935 138 958 q 190 879 190 913 l 190 101 q 163 40 189 65 q 101 14 138 14 "},"ë":{"ha":801,"x_min":83,"x_max":740,"o":"m 320 1077 q 336 1115 336 1093 q 320 1153 336 1138 q 282 1169 304 1169 q 244 1153 260 1169 q 228 1115 228 1138 q 244 1077 228 1093 q 282 1061 260 1061 q 312 1069 304 1061 q 320 1077 320 1077 m 581 1077 q 597 1115 597 1093 q 581 1153 597 1138 q 543 1169 565 1169 q 505 1153 521 1169 q 489 1115 489 1138 q 505 1077 489 1093 q 543 1061 521 1061 q 573 1069 565 1061 q 581 1077 581 1077 m 101 14 l 83 14 l 83 0 l 660 0 l 740 225 l 726 225 q 636 89 690 135 q 479 43 582 43 l 281 43 l 281 458 l 517 458 q 542 453 531 458 q 582 390 582 433 l 582 369 l 596 369 l 596 589 l 582 589 l 582 569 q 563 521 582 540 q 515 500 543 501 l 281 500 l 281 929 l 564 929 q 619 904 596 928 q 642 847 642 881 l 642 822 l 656 822 l 656 997 q 597 982 643 992 q 490 972 550 972 l 83 972 l 85 958 l 101 958 q 164 935 138 958 q 190 879 190 913 l 190 101 q 163 40 189 65 q 101 14 138 14 "},"ì":{"ha":469,"x_min":11,"x_max":388,"o":"m 246 1071 q 69 1253 157 1168 q 13 1179 32 1218 q 236 1061 124 1114 l 246 1071 m 101 14 l 83 14 l 83 0 l 388 0 l 388 14 l 369 14 q 307 40 333 14 q 281 101 281 65 l 281 872 q 308 933 282 908 q 369 958 333 958 l 388 958 l 388 972 l 83 972 l 83 958 l 101 958 q 163 933 138 958 q 190 872 189 908 l 190 101 q 163 40 189 65 q 101 14 138 14 "},"í":{"ha":469,"x_min":82,"x_max":460,"o":"m 236 1061 q 458 1179 369 1128 q 401 1253 439 1215 q 226 1071 332 1185 l 236 1061 m 101 14 l 83 14 l 83 0 l 388 0 l 388 14 l 369 14 q 307 40 333 14 q 281 101 281 65 l 281 872 q 308 933 282 908 q 369 958 333 958 l 388 958 l 388 972 l 83 972 l 83 958 l 101 958 q 163 933 138 958 q 190 872 189 908 l 190 101 q 163 40 189 65 q 101 14 138 14 "},"î":{"ha":469,"x_min":81,"x_max":401,"o":"m 228 1236 l 81 1071 l 89 1060 l 235 1151 l 393 1060 l 401 1071 l 242 1236 l 228 1236 m 101 14 l 83 14 l 83 0 l 388 0 l 388 14 l 369 14 q 307 40 333 14 q 281 101 281 65 l 281 872 q 308 933 282 908 q 369 958 333 958 l 388 958 l 388 972 l 83 972 l 83 958 l 101 958 q 163 933 138 958 q 190 872 189 908 l 190 101 q 163 40 189 65 q 101 14 138 14 "},"ï":{"ha":469,"x_min":50,"x_max":421,"o":"m 143 1077 q 158 1115 158 1093 q 143 1153 158 1138 q 105 1169 128 1169 q 66 1153 82 1169 q 50 1115 50 1138 q 66 1077 50 1093 q 105 1061 82 1061 q 135 1069 128 1061 q 143 1077 143 1077 m 405 1077 q 421 1115 421 1093 q 405 1153 421 1138 q 367 1169 389 1169 q 328 1153 344 1169 q 313 1115 313 1138 q 328 1077 313 1093 q 367 1061 344 1061 q 397 1069 389 1061 q 405 1077 405 1077 m 101 14 l 83 14 l 83 0 l 388 0 l 388 14 l 369 14 q 307 40 333 14 q 281 101 281 65 l 281 872 q 308 933 282 908 q 369 958 333 958 l 388 958 l 388 972 l 83 972 l 83 958 l 101 958 q 163 933 138 958 q 190 872 189 908 l 190 101 q 163 40 189 65 q 101 14 138 14 "},"ð":{"ha":1135,"x_min":83,"x_max":1053,"o":"m 560 972 l 90 972 l 90 958 l 108 958 q 170 935 143 958 q 197 879 197 913 l 197 507 l 83 507 l 83 465 l 197 465 l 197 101 q 170 40 196 65 q 108 14 144 14 l 90 14 l 90 0 l 560 0 q 917 133 782 0 q 1053 485 1053 267 q 917 838 1053 704 q 560 972 782 972 m 288 465 l 514 465 l 514 507 l 288 507 l 288 931 l 560 931 q 847 808 738 931 q 956 486 956 686 q 847 164 956 286 q 560 42 738 42 l 288 42 l 288 465 "},"ñ":{"ha":1168,"x_min":61,"x_max":1107,"o":"m 689 1124 q 611 1153 667 1124 q 522 1183 556 1183 q 464 1151 488 1183 q 432 1065 440 1119 l 446 1065 q 522 1122 469 1122 q 599 1092 542 1122 q 685 1061 657 1061 q 732 1074 713 1061 q 781 1171 772 1101 l 767 1171 q 689 1124 747 1124 m 1081 958 l 1106 958 l 1106 972 l 819 972 l 819 958 l 846 958 q 906 934 881 958 q 932 874 931 910 l 932 185 l 175 993 l 161 993 l 164 971 q 174 819 174 904 l 174 99 q 149 38 174 63 q 89 14 124 14 l 63 14 l 63 0 l 349 0 l 349 14 l 322 14 q 263 38 288 14 q 238 97 238 63 l 238 789 l 994 -19 l 1007 -19 l 1004 6 q 994 158 994 78 l 994 875 q 1021 934 996 910 q 1081 958 1046 958 "},"ò":{"ha":1178,"x_min":54,"x_max":1124,"o":"m 600 1071 q 424 1253 513 1168 q 368 1179 388 1218 q 590 1061 479 1114 l 600 1071 m 204 852 q 56 486 56 713 q 204 120 56 260 q 590 -19 353 -19 q 975 120 826 -19 q 1124 486 1124 260 q 975 852 1124 713 q 590 992 826 992 q 278 922 353 992 q 204 852 204 852 m 280 150 q 163 486 163 278 q 280 822 163 694 q 589 950 397 950 q 898 822 781 950 q 1015 486 1015 694 q 898 150 1015 278 q 589 22 781 22 q 339 86 397 22 q 280 150 280 150 "},"ó":{"ha":1178,"x_min":54,"x_max":1124,"o":"m 590 1061 q 814 1179 725 1128 q 757 1253 794 1215 q 581 1071 688 1185 l 590 1061 m 204 852 q 56 486 56 713 q 204 120 56 260 q 589 -19 353 -19 q 867 43 746 -19 q 1056 221 989 106 q 1124 486 1124 336 q 975 852 1124 713 q 590 992 826 992 q 278 922 353 992 q 204 852 204 852 m 280 150 q 163 486 163 278 q 280 822 163 694 q 589 950 397 950 q 898 822 781 950 q 1015 486 1015 694 q 898 150 1015 278 q 589 22 781 22 q 339 86 397 22 q 280 150 280 150 "},"ô":{"ha":1178,"x_min":56,"x_max":1124,"o":"m 583 1236 l 436 1071 l 444 1060 l 590 1151 l 747 1060 l 756 1071 l 597 1236 l 583 1236 m 204 852 q 56 486 56 713 q 204 120 56 260 q 590 -19 353 -19 q 975 120 826 -19 q 1124 486 1124 260 q 975 852 1124 713 q 590 992 826 992 q 278 922 353 992 q 204 852 204 852 m 280 150 q 163 486 163 278 q 280 822 163 694 q 589 950 397 950 q 898 822 781 950 q 1015 486 1015 694 q 898 150 1015 278 q 589 22 781 22 q 339 86 397 22 q 280 150 280 150 "},"õ":{"ha":1178,"x_min":54,"x_max":1124,"o":"m 689 1124 q 610 1153 667 1124 q 521 1183 554 1183 q 464 1151 488 1183 q 432 1065 440 1119 l 446 1065 q 521 1122 468 1122 q 599 1092 542 1122 q 685 1061 657 1061 q 732 1074 713 1061 q 779 1171 771 1101 l 765 1171 q 689 1124 746 1124 m 204 852 q 56 486 56 713 q 204 120 56 260 q 590 -19 353 -19 q 975 120 826 -19 q 1124 486 1124 260 q 975 852 1124 713 q 590 992 826 992 q 278 922 353 992 q 204 852 204 852 m 280 150 q 163 486 163 278 q 280 822 163 694 q 589 950 397 950 q 898 822 781 950 q 1015 486 1015 694 q 898 150 1015 278 q 589 22 781 22 q 339 86 397 22 q 280 150 280 150 "},"ö":{"ha":1178,"x_min":54,"x_max":1124,"o":"m 498 1077 q 514 1115 514 1093 q 498 1153 514 1138 q 460 1169 482 1169 q 422 1153 438 1169 q 406 1115 406 1138 q 422 1077 406 1093 q 460 1061 438 1061 q 490 1069 482 1061 q 498 1077 498 1077 m 760 1077 q 776 1115 776 1093 q 760 1153 776 1138 q 722 1169 744 1169 q 683 1153 699 1169 q 668 1115 668 1138 q 683 1077 668 1093 q 722 1061 699 1061 q 752 1069 744 1061 q 760 1077 760 1077 m 204 852 q 56 486 56 713 q 204 120 56 260 q 589 -19 353 -19 q 867 43 746 -19 q 1056 221 989 106 q 1124 486 1124 336 q 975 852 1124 713 q 590 992 826 992 q 278 922 353 992 q 204 852 204 852 m 280 150 q 163 486 163 278 q 280 822 163 694 q 589 950 397 950 q 898 822 781 950 q 1015 486 1015 694 q 898 150 1015 278 q 589 22 781 22 q 339 86 397 22 q 280 150 280 150 "},"÷":{"ha":668,"x_min":56,"x_max":614,"o":"m 369 616 q 383 651 383 631 q 369 685 383 671 q 334 699 354 699 q 299 685 314 699 q 285 651 285 671 q 299 616 285 631 q 334 601 314 601 q 361 609 354 601 q 369 616 369 616 m 56 399 l 614 399 l 614 461 l 56 461 l 56 399 m 369 177 q 383 212 383 192 q 369 246 383 232 q 334 260 354 260 q 299 246 314 260 q 285 212 285 232 q 299 177 285 192 q 334 163 314 163 q 361 170 354 163 q 369 177 369 177 "},"ø":{"ha":1178,"x_min":54,"x_max":1124,"o":"m 935 886 l 1007 972 l 971 1003 l 896 913 q 589 992 765 992 q 204 852 353 992 q 56 486 56 713 q 99 269 56 367 q 222 103 143 171 l 136 -1 l 171 -32 l 260 75 q 589 -19 397 -19 q 867 43 746 -19 q 1056 221 989 106 q 1124 475 1124 336 q 935 886 1124 744 m 589 950 q 856 863 746 950 l 271 161 q 163 491 163 288 q 280 822 163 694 q 589 950 397 950 m 303 126 l 890 832 q 1015 490 1015 703 q 898 150 1015 278 q 599 22 781 22 q 303 126 417 22 "},"ù":{"ha":1090,"x_min":68,"x_max":1022,"o":"m 568 1071 q 392 1253 479 1168 q 335 1179 354 1218 q 558 1061 446 1114 l 568 1071 m 1021 958 l 1021 972 l 764 972 l 764 958 l 786 958 q 838 940 817 958 q 860 892 858 921 l 860 343 q 775 112 860 200 q 554 24 690 24 q 337 117 418 24 q 256 361 256 210 l 256 892 q 278 940 257 921 q 329 958 299 958 l 351 958 l 351 972 l 69 972 l 69 958 l 92 958 q 129 950 113 958 q 165 889 165 931 l 165 342 q 272 80 165 179 q 549 -19 378 -19 q 822 81 719 -19 q 925 343 925 181 l 925 893 q 948 940 926 921 q 999 958 969 958 l 1021 958 "},"ú":{"ha":1090,"x_min":69,"x_max":1022,"o":"m 558 1061 q 781 1179 692 1128 q 725 1253 761 1215 q 549 1071 654 1185 l 558 1061 m 1021 958 l 1021 972 l 764 972 l 764 958 l 786 958 q 815 953 801 958 q 860 892 858 938 l 860 343 q 775 112 860 200 q 550 24 690 24 q 337 117 418 24 q 256 361 256 210 l 256 892 q 267 926 257 911 q 329 958 288 958 l 351 958 l 351 972 l 69 972 l 69 958 l 92 958 q 144 939 122 958 q 165 890 165 919 l 165 342 q 272 80 165 179 q 549 -19 378 -19 q 822 81 719 -19 q 925 343 925 181 l 925 893 q 948 940 926 921 q 999 958 969 958 l 1021 958 "},"û":{"ha":1090,"x_min":69,"x_max":1022,"o":"m 550 1236 l 403 1071 l 411 1060 l 557 1151 l 715 1060 l 724 1071 l 564 1236 l 550 1236 m 1021 958 l 1021 972 l 764 972 l 764 958 l 786 958 q 815 953 801 958 q 860 892 858 938 l 860 343 q 775 112 860 200 q 554 24 690 24 q 337 117 418 24 q 256 361 256 210 l 256 892 q 278 940 257 921 q 329 958 299 958 l 351 958 l 351 972 l 69 972 l 69 958 l 92 958 q 144 939 122 958 q 165 889 165 919 l 165 342 q 272 80 165 179 q 549 -19 378 -19 q 822 81 719 -19 q 925 343 925 181 l 925 893 q 948 940 926 921 q 999 958 969 958 l 1021 958 "},"ü":{"ha":1090,"x_min":69,"x_max":1022,"o":"m 466 1077 q 482 1115 482 1093 q 466 1153 482 1138 q 427 1169 450 1169 q 388 1153 404 1169 q 372 1115 372 1138 q 388 1077 372 1093 q 427 1061 404 1061 q 458 1069 450 1061 q 466 1077 466 1077 m 727 1077 q 743 1115 743 1093 q 727 1153 743 1138 q 689 1169 711 1169 q 651 1153 667 1169 q 635 1115 635 1138 q 651 1077 635 1093 q 689 1061 667 1061 q 719 1069 711 1061 q 727 1077 727 1077 m 1021 958 l 1021 972 l 764 972 l 764 958 l 786 958 q 815 953 801 958 q 860 892 858 938 l 860 343 q 775 112 860 200 q 550 24 690 24 q 337 117 418 24 q 256 361 256 210 l 256 892 q 267 926 257 911 q 329 958 288 958 l 351 958 l 351 972 l 69 972 l 69 958 l 92 958 q 129 950 113 958 q 165 889 165 931 l 165 342 q 272 80 165 179 q 549 -19 378 -19 q 822 81 719 -19 q 925 343 925 181 l 925 893 q 948 940 926 921 q 999 958 969 958 l 1021 958 "},"ý":{"ha":918,"x_min":-14,"x_max":933,"o":"m 476 1061 q 700 1179 611 1128 q 643 1253 681 1215 q 467 1071 574 1185 l 476 1061 m 933 958 l 933 972 l 625 972 l 625 958 l 642 958 q 689 931 672 958 q 699 901 699 915 q 692 874 699 888 l 469 483 l 261 872 q 254 901 254 886 q 263 931 254 915 q 310 958 279 958 l 328 958 l 328 972 l -14 972 l -14 958 l 6 958 q 85 935 47 958 q 144 878 124 911 l 410 435 l 410 100 q 383 39 408 64 q 321 14 357 14 l 303 14 l 303 0 l 606 0 l 606 14 l 589 14 q 526 40 551 14 q 500 101 500 65 l 500 433 l 774 878 q 835 935 799 913 q 914 958 872 958 l 933 958 "},"þ":{"ha":769,"x_min":58,"x_max":701,"o":"m 683 604 q 422 761 626 761 l 257 761 l 257 872 q 283 933 257 908 q 346 958 310 958 l 363 958 l 363 972 l 60 972 l 60 958 l 78 958 q 140 933 114 958 q 167 872 165 908 l 167 101 q 140 40 165 65 q 76 14 114 14 l 60 14 l 60 0 l 363 0 l 363 14 l 346 14 q 301 25 321 14 q 257 101 257 50 l 257 719 l 417 719 q 553 662 504 719 q 604 507 601 604 q 604 476 604 500 q 594 424 604 451 q 492 296 567 333 q 304 274 404 251 l 304 260 q 451 228 365 228 q 519 242 479 228 q 676 379 632 281 q 701 492 701 431 q 683 604 701 554 "},"ÿ":{"ha":918,"x_min":-14,"x_max":933,"o":"m 384 1077 q 400 1115 400 1093 q 384 1153 400 1138 q 346 1169 368 1169 q 308 1153 324 1169 q 292 1115 292 1138 q 308 1077 292 1093 q 346 1061 324 1061 q 376 1069 368 1061 q 384 1077 384 1077 m 647 1077 q 663 1115 663 1093 q 647 1153 663 1138 q 608 1169 631 1169 q 569 1153 585 1169 q 554 1115 554 1138 q 569 1077 554 1093 q 608 1061 585 1061 q 639 1069 631 1061 q 647 1077 647 1077 m 933 958 l 933 972 l 625 972 l 625 958 l 642 958 q 689 931 672 958 q 699 901 699 915 q 692 874 699 888 l 469 483 l 261 872 q 254 901 254 886 q 263 931 254 915 q 310 958 279 958 l 328 958 l 328 972 l -14 972 l -14 958 l 6 958 q 85 935 47 958 q 144 878 124 911 l 410 435 l 410 100 q 383 39 408 64 q 321 14 357 14 l 303 14 l 303 0 l 606 0 l 606 14 l 589 14 q 526 40 551 14 q 500 101 500 65 l 500 433 l 774 878 q 835 935 799 913 q 914 958 872 958 l 933 958 "},"Ā":{"ha":989,"x_min":-14,"x_max":1314,"o":"m 339 1118 l 686 1118 l 686 1167 l 339 1167 l 339 1118 m 164 1019 l 168 1006 q 275 1026 225 1026 q 461 919 386 1026 l 117 94 q 64 34 96 54 q -1 14 32 14 l -14 14 l -14 0 l 265 0 l 265 14 l 254 14 q 209 33 224 14 q 194 68 194 51 q 201 101 194 85 l 297 349 l 678 349 l 732 190 q 935 -178 815 -57 q 1054 -269 990 -236 q 1182 -301 1118 -301 q 1313 -279 1246 -301 l 1311 -265 q 1248 -271 1283 -271 q 1158 -251 1213 -271 q 1054 -184 1104 -232 q 944 -41 1004 -136 q 825 215 883 54 l 656 696 q 571 897 604 842 q 481 1006 521 978 q 338 1057 407 1057 q 164 1019 254 1057 m 313 390 l 496 860 q 554 714 522 807 l 664 390 l 313 390 "},"ā":{"ha":989,"x_min":-15,"x_max":1004,"o":"m 325 1104 l 672 1104 l 672 1153 l 325 1153 l 325 1104 m 993 14 q 924 36 957 14 q 871 101 890 58 l 499 992 l 486 992 q 435 849 486 961 l 121 101 q 67 36 100 58 q -1 14 33 14 l -14 14 l -14 0 l 265 0 l 265 14 l 253 14 q 209 33 224 14 q 194 67 194 51 q 200 100 194 83 l 293 338 l 668 338 l 757 101 q 763 68 763 85 q 748 33 763 51 q 704 14 733 14 l 692 14 l 692 0 l 1004 0 l 1004 14 l 993 14 m 310 379 l 485 825 l 651 379 l 310 379 "},"Ă":{"ha":989,"x_min":-14,"x_max":1314,"o":"m 653 1219 l 639 1219 q 568 1156 624 1178 q 502 1144 540 1144 q 428 1167 464 1144 q 381 1219 392 1189 l 367 1219 q 409 1118 367 1161 q 499 1075 451 1075 q 581 1094 547 1075 q 633 1147 614 1114 q 653 1219 653 1181 m 164 1019 l 168 1006 q 275 1026 225 1026 q 461 919 386 1026 l 117 94 q 64 34 96 54 q -1 14 32 14 l -14 14 l -14 0 l 265 0 l 265 14 l 253 14 q 209 33 224 14 q 194 68 194 51 q 200 101 194 85 l 297 349 l 678 349 l 732 190 q 935 -178 815 -57 q 1054 -269 990 -236 q 1182 -301 1118 -301 q 1313 -279 1246 -301 l 1311 -265 q 1248 -271 1283 -271 q 1158 -251 1213 -271 q 1054 -184 1104 -232 q 944 -41 1004 -136 q 825 215 883 54 l 656 696 q 571 897 604 842 q 481 1006 521 978 q 338 1057 407 1057 q 164 1019 254 1057 m 313 390 l 496 860 q 554 714 522 807 l 664 390 l 313 390 "},"ă":{"ha":989,"x_min":-15,"x_max":1004,"o":"m 638 1206 l 624 1206 q 576 1153 613 1175 q 494 1131 540 1131 q 413 1153 449 1131 q 365 1206 376 1175 l 351 1206 q 394 1104 351 1147 q 485 1061 436 1061 q 566 1081 533 1061 q 618 1133 599 1100 q 638 1206 638 1167 m 993 14 q 924 36 957 14 q 871 101 890 58 l 499 992 l 486 992 q 435 849 486 961 l 121 101 q 67 36 100 58 q -1 14 33 14 l -14 14 l -14 0 l 265 0 l 265 14 l 253 14 q 209 33 224 14 q 194 67 194 51 q 200 100 194 83 l 293 338 l 668 338 l 757 101 q 763 68 763 85 q 748 33 763 51 q 704 14 733 14 l 692 14 l 692 0 l 1004 0 l 1004 14 l 993 14 m 310 379 l 485 825 l 651 379 l 310 379 "},"Ą":{"ha":1010,"x_min":-15,"x_max":1293,"o":"m 143 1000 l 147 986 q 219 992 185 992 q 447 886 358 992 l 117 94 q 64 34 96 54 q -1 14 32 14 l -14 14 l -14 0 l 265 0 l 265 14 l 253 14 q 209 33 224 14 q 194 68 194 51 q 200 101 194 85 l 297 349 l 679 349 l 739 190 q 825 4 779 82 q 814 4 819 4 q 738 -15 774 4 q 692 -69 703 -35 q 681 -129 681 -104 q 725 -219 681 -183 q 806 -247 760 -247 q 899 -206 863 -247 l 893 -194 q 840 -207 865 -207 q 760 -156 786 -207 q 749 -115 749 -133 q 754 -82 749 -97 q 836 -15 774 -24 q 1049 -207 932 -169 q 1142 -226 1104 -224 q 1210 -228 1179 -228 q 1293 -218 1242 -228 l 1292 -204 q 1279 -204 1286 -204 q 1046 -122 1146 -204 q 832 219 932 -28 l 640 693 q 567 849 603 786 q 515 919 540 892 q 451 974 490 947 q 373 1011 413 1001 q 275 1021 333 1021 q 143 1000 217 1021 m 313 390 l 485 832 q 543 708 515 782 l 664 390 l 313 390 "},"ą":{"ha":1024,"x_min":-15,"x_max":1040,"o":"m 935 -157 q 857 -190 903 -190 q 781 -151 811 -190 q 764 -96 764 -128 q 786 -35 764 -64 q 848 0 808 -7 q 942 3 888 7 q 1039 0 976 0 l 1039 13 l 1026 13 q 1001 15 1014 13 q 911 94 940 31 l 518 992 l 506 992 q 454 849 506 961 l 121 101 q 67 36 100 58 q -1 14 33 14 l -14 14 l -14 0 l 265 0 l 265 14 l 253 14 q 209 33 224 14 q 194 67 194 51 q 200 100 194 83 l 299 338 l 697 338 l 793 99 q 804 38 804 67 q 768 -11 804 10 q 719 -53 739 -26 q 703 -83 710 -67 q 698 -131 697 -99 q 720 -194 699 -162 q 770 -235 742 -226 q 815 -244 799 -244 q 853 -242 832 -244 q 903 -219 874 -240 q 943 -165 932 -199 l 935 -157 m 317 379 l 503 828 l 681 379 l 317 379 "},"Ć":{"ha":1140,"x_min":61,"x_max":1107,"o":"m 614 1061 q 838 1179 749 1128 q 781 1253 818 1215 q 604 1071 710 1185 l 614 1061 m 1107 488 q 1106 521 1107 504 l 1092 521 q 962 156 1092 289 q 622 22 832 22 q 384 85 489 22 q 223 253 279 147 q 167 490 167 360 q 290 819 167 688 q 597 950 413 950 q 832 884 726 950 q 967 701 938 818 l 979 701 l 951 899 q 788 966 886 940 q 596 992 690 992 q 324 926 446 992 q 132 744 201 860 q 63 487 63 629 q 133 229 63 344 q 330 47 203 114 q 615 -19 457 -19 q 978 115 850 -19 q 1107 488 1107 249 "},"ć":{"ha":1056,"x_min":83,"x_max":988,"o":"m 589 1061 q 813 1179 724 1128 q 756 1253 793 1215 q 579 1071 685 1185 l 589 1061 m 579 -19 q 969 188 843 -19 l 986 406 l 975 406 q 839 107 951 199 q 579 22 735 22 q 295 153 403 26 q 188 489 188 281 q 297 824 188 697 q 588 950 406 950 q 808 885 715 950 q 932 701 901 821 l 944 701 l 917 897 q 588 992 774 992 q 222 853 360 992 q 83 487 83 714 q 222 121 83 260 q 579 -19 360 -18 "},"Ċ":{"ha":1140,"x_min":61,"x_max":1107,"o":"m 655 1080 q 672 1122 672 1097 q 655 1165 672 1147 q 613 1182 638 1182 q 570 1165 588 1182 q 553 1122 553 1147 q 570 1080 553 1097 q 613 1063 588 1063 q 646 1071 638 1063 q 655 1080 655 1080 m 1107 488 q 1106 521 1107 504 l 1092 521 q 962 156 1092 289 q 626 22 832 22 q 294 156 421 22 q 167 489 167 290 q 290 819 167 688 q 597 950 413 950 q 832 884 726 950 q 967 701 938 818 l 979 701 l 951 897 q 788 966 886 940 q 596 992 690 992 q 324 926 446 992 q 132 744 201 860 q 63 487 63 629 q 133 229 63 344 q 330 47 203 114 q 615 -19 457 -19 q 978 115 850 -19 q 1107 488 1107 249 "},"ċ":{"ha":1056,"x_min":83,"x_max":988,"o":"m 630 1080 q 647 1122 647 1097 q 630 1165 647 1147 q 588 1182 613 1182 q 545 1165 563 1182 q 528 1122 528 1147 q 545 1080 528 1097 q 588 1063 563 1063 q 621 1071 613 1063 q 630 1080 630 1080 m 579 -19 q 969 188 843 -19 l 986 406 l 975 406 q 839 107 951 199 q 579 22 735 22 q 295 153 403 26 q 188 489 188 281 q 297 824 188 697 q 588 950 406 950 q 808 885 715 950 q 932 701 901 821 l 944 701 l 917 897 q 588 992 774 992 q 222 853 360 992 q 83 487 83 714 q 222 121 83 260 q 579 -19 360 -18 "},"Č":{"ha":1140,"x_min":61,"x_max":1107,"o":"m 621 1061 l 768 1226 l 760 1238 l 615 1146 l 457 1238 l 449 1226 l 607 1061 l 621 1061 m 1107 488 q 1106 521 1107 504 l 1092 521 q 962 156 1092 289 q 626 22 832 22 q 293 156 419 22 q 167 489 167 290 q 290 819 167 688 q 597 950 413 950 q 832 884 726 950 q 967 701 938 818 l 979 701 l 950 897 q 788 966 886 940 q 596 992 690 992 q 324 926 446 992 q 132 744 201 860 q 63 487 63 629 q 133 229 63 344 q 330 47 203 114 q 615 -19 457 -19 q 978 115 850 -19 q 1107 488 1107 249 "},"č":{"ha":1056,"x_min":82,"x_max":988,"o":"m 596 1061 l 743 1226 l 735 1238 l 590 1146 l 432 1238 l 424 1226 l 582 1061 l 596 1061 m 579 -19 q 969 188 843 -19 l 986 406 l 975 406 q 839 107 951 199 q 579 22 735 22 q 295 153 403 26 q 188 489 188 281 q 297 824 188 697 q 588 950 406 950 q 808 885 715 950 q 932 701 901 821 l 944 701 l 917 897 q 588 992 774 992 q 222 853 360 992 q 83 487 83 714 q 222 121 83 260 q 579 -19 360 -18 "},"Ď":{"ha":1164,"x_min":-140,"x_max":1082,"o":"m 590 1061 l 738 1226 l 729 1238 l 585 1146 l 426 1238 l 418 1226 l 576 1061 l 590 1061 m -139 769 l -124 764 q -93 814 -107 794 q -53 857 -79 833 q 219 931 25 925 l 219 93 q 190 37 215 60 q 131 14 165 14 l 114 14 l 113 0 l 583 0 q 944 134 806 0 q 1082 486 1082 268 q 1045 684 1082 594 q 943 836 1008 774 q 583 972 807 967 q 331 976 381 976 q -4 932 90 976 q -139 769 -99 888 m 310 931 l 583 931 q 790 875 700 931 q 928 719 879 819 q 978 486 978 618 q 869 164 978 286 q 583 42 760 42 l 310 42 l 310 931 "},"ď":{"ha":1121,"x_min":82,"x_max":1053,"o":"m 564 1061 l 713 1226 l 704 1238 l 558 1146 l 400 1238 l 392 1226 l 550 1061 l 564 1061 m 554 972 l 83 972 l 85 958 l 101 958 q 163 935 136 958 q 190 879 190 913 l 190 101 q 163 40 189 65 q 101 14 138 14 l 83 14 l 83 0 l 554 0 q 915 134 776 0 q 1053 486 1053 268 q 915 838 1053 704 q 554 972 776 972 m 281 931 l 554 931 q 840 808 731 931 q 949 486 949 686 q 840 164 949 286 q 554 42 732 42 l 281 42 l 281 931 "},"Đ":{"ha":1164,"x_min":-139,"x_max":1082,"o":"m 414 1104 l 761 1104 l 761 1153 l 414 1153 l 414 1104 m -1 933 q -85 871 -53 911 q -139 769 -118 831 l -124 764 q -83 826 -103 801 q -26 876 -64 850 q 219 931 46 926 l 219 93 q 190 37 215 60 q 131 14 165 14 l 114 14 l 113 0 l 583 0 q 944 134 806 0 q 1082 486 1082 268 q 1019 739 1082 629 q 843 908 956 849 q 583 972 731 968 q 331 976 381 976 q 229 976 282 976 q 114 965 176 975 q 25 944 51 956 q -1 933 -1 933 m 310 931 l 583 931 q 790 875 700 931 q 928 719 879 819 q 978 486 978 618 q 869 164 978 286 q 583 42 760 42 l 310 42 l 310 931 "},"đ":{"ha":1121,"x_min":82,"x_max":1053,"o":"m 388 1104 l 735 1104 l 735 1153 l 388 1153 l 388 1104 m 554 972 l 83 972 l 85 958 l 101 958 q 163 935 136 958 q 190 879 190 913 l 190 101 q 163 40 189 65 q 101 14 138 14 l 83 14 l 83 0 l 554 0 q 915 134 776 0 q 1053 486 1053 268 q 915 838 1053 704 q 554 972 776 972 m 281 931 l 554 931 q 840 808 731 931 q 949 486 949 686 q 840 164 949 286 q 554 42 732 42 l 281 42 l 281 931 "},"Ē":{"ha":843,"x_min":83,"x_max":838,"o":"m 175 1104 l 522 1104 l 522 1153 l 175 1153 l 175 1104 m 101 14 l 83 14 l 83 0 l 757 0 l 838 225 l 824 225 q 733 89 788 135 q 576 43 679 43 l 281 43 l 281 458 l 546 458 q 592 438 574 457 q 611 390 611 418 l 611 369 l 625 369 l 625 589 l 611 589 l 611 569 q 592 521 611 540 q 544 500 572 501 l 281 500 l 281 929 l 439 929 q 494 904 471 928 q 517 847 517 881 l 517 822 l 531 822 l 531 997 q 459 981 510 989 q 365 972 408 972 l 83 972 l 85 958 l 101 958 q 164 935 138 958 q 190 879 190 913 l 190 101 q 163 40 189 65 q 101 14 138 14 "},"ē":{"ha":801,"x_min":83,"x_max":740,"o":"m 243 1104 l 590 1104 l 590 1153 l 243 1153 l 243 1104 m 101 14 l 83 14 l 83 0 l 660 0 l 740 225 l 726 225 q 636 89 690 135 q 479 43 582 43 l 281 43 l 281 458 l 517 458 q 563 438 544 457 q 582 390 582 418 l 582 369 l 596 369 l 596 589 l 582 589 l 582 569 q 563 521 582 540 q 515 500 543 501 l 281 500 l 281 929 l 564 929 q 619 904 596 928 q 642 847 642 881 l 642 822 l 656 822 l 656 997 q 584 981 635 989 q 490 972 533 972 l 83 972 l 85 958 l 101 958 q 164 935 138 958 q 190 879 190 913 l 190 101 q 163 40 189 65 q 101 14 138 14 "},"Ė":{"ha":843,"x_min":83,"x_max":838,"o":"m 385 1080 q 403 1122 403 1097 q 385 1165 403 1147 q 343 1182 368 1182 q 301 1165 318 1182 q 283 1122 283 1147 q 301 1080 283 1097 q 343 1063 318 1063 q 377 1071 368 1063 q 385 1080 385 1080 m 101 14 l 83 14 l 83 0 l 757 0 l 838 225 l 824 225 q 733 89 788 135 q 576 43 679 43 l 281 43 l 281 458 l 546 458 q 592 438 574 457 q 611 390 611 418 l 611 369 l 625 369 l 625 589 l 611 589 l 611 569 q 592 521 611 540 q 544 500 572 501 l 281 500 l 281 929 l 439 929 q 494 904 471 928 q 517 847 517 881 l 517 822 l 531 822 l 531 997 q 459 981 510 989 q 365 972 408 972 l 83 972 l 85 958 l 101 958 q 164 935 138 958 q 190 879 190 913 l 190 101 q 163 40 189 65 q 101 14 138 14 "},"ė":{"ha":801,"x_min":83,"x_max":740,"o":"m 453 1080 q 471 1122 471 1097 q 453 1165 471 1147 q 410 1182 435 1182 q 368 1165 386 1182 q 350 1122 350 1147 q 368 1080 350 1097 q 410 1063 386 1063 q 444 1071 435 1063 q 453 1080 453 1080 m 101 14 l 83 14 l 83 0 l 660 0 l 740 225 l 726 225 q 636 89 690 135 q 479 43 582 43 l 281 43 l 281 458 l 517 458 q 563 438 544 457 q 582 390 582 418 l 582 369 l 596 369 l 596 589 l 582 589 l 582 569 q 563 521 582 540 q 515 500 543 501 l 281 500 l 281 929 l 564 929 q 619 904 596 928 q 642 847 642 881 l 642 822 l 656 822 l 656 997 q 597 982 643 992 q 490 972 550 972 l 83 972 l 85 958 l 101 958 q 164 935 138 958 q 190 879 190 913 l 190 101 q 163 40 189 65 q 101 14 138 14 "},"Ę":{"ha":843,"x_min":83,"x_max":838,"o":"m 653 -104 q 757 0 653 -25 l 838 225 l 824 225 q 733 89 788 135 q 576 43 679 43 l 281 43 l 281 458 l 546 458 q 592 438 574 457 q 611 390 611 418 l 611 369 l 625 369 l 625 589 l 611 589 l 611 569 q 592 521 611 540 q 544 500 572 501 l 281 500 l 281 929 l 439 929 q 494 904 471 928 q 517 847 517 881 l 517 822 l 531 822 l 531 997 q 459 981 510 989 q 365 972 408 972 l 83 972 l 85 958 l 101 958 q 164 935 138 958 q 190 879 190 913 l 190 101 q 163 40 189 65 q 101 14 138 14 l 83 14 l 83 0 l 703 0 q 621 -44 653 -11 q 589 -124 589 -78 q 610 -201 589 -169 q 660 -243 632 -233 q 723 -253 689 -253 q 790 -229 757 -253 q 831 -175 818 -208 l 822 -167 q 749 -201 789 -201 q 681 -174 710 -201 q 653 -104 653 -146 "},"ę":{"ha":801,"x_min":83,"x_max":740,"o":"m 556 -104 q 658 0 556 -25 l 740 225 l 726 225 q 636 89 690 135 q 479 43 582 43 l 281 43 l 281 458 l 517 458 q 563 438 544 457 q 582 390 582 418 l 582 369 l 596 369 l 596 589 l 582 589 l 582 569 q 563 521 582 540 q 515 500 543 501 l 281 500 l 281 929 l 564 929 q 619 904 596 928 q 642 847 642 881 l 642 822 l 656 822 l 656 997 q 584 981 635 989 q 490 972 533 972 l 83 972 l 85 958 l 101 958 q 164 935 138 958 q 190 879 190 913 l 190 101 q 163 40 189 65 q 101 14 138 14 l 83 14 l 83 0 l 606 0 q 524 -44 556 -11 q 492 -124 492 -78 q 513 -201 492 -169 q 563 -243 535 -233 q 626 -253 592 -253 q 692 -229 660 -253 q 733 -175 721 -208 l 725 -167 q 651 -201 692 -201 q 583 -174 611 -201 q 556 -104 556 -146 "},"Ě":{"ha":843,"x_min":83,"x_max":838,"o":"m 351 1061 l 499 1226 l 490 1238 l 346 1146 l 188 1238 l 179 1226 l 338 1061 l 351 1061 m 101 14 l 83 14 l 83 0 l 757 0 l 838 225 l 824 225 q 733 89 788 135 q 576 43 679 43 l 281 43 l 281 458 l 546 458 q 592 438 574 457 q 611 390 611 418 l 611 369 l 625 369 l 625 589 l 611 589 l 611 569 q 592 521 611 540 q 544 500 572 501 l 281 500 l 281 929 l 439 929 q 494 904 471 928 q 517 847 517 881 l 517 822 l 531 822 l 531 997 q 459 981 510 989 q 365 972 408 972 l 83 972 l 85 958 l 101 958 q 164 935 138 958 q 190 879 190 913 l 190 101 q 163 40 189 65 q 101 14 138 14 "},"ě":{"ha":801,"x_min":83,"x_max":740,"o":"m 419 1061 l 567 1226 l 558 1238 l 413 1146 l 256 1238 l 247 1226 l 406 1061 l 419 1061 m 101 14 l 83 14 l 83 0 l 660 0 l 740 225 l 726 225 q 636 89 690 135 q 479 43 582 43 l 281 43 l 281 458 l 517 458 q 542 453 531 458 q 582 390 582 433 l 582 369 l 596 369 l 596 589 l 582 589 l 582 569 q 563 521 582 540 q 515 500 543 501 l 281 500 l 281 929 l 564 929 q 619 904 596 928 q 642 847 642 881 l 642 822 l 656 822 l 656 997 q 584 981 635 989 q 490 972 533 972 l 83 972 l 85 958 l 101 958 q 164 935 138 958 q 190 879 190 913 l 190 101 q 163 40 189 65 q 101 14 138 14 "},"Ğ":{"ha":1175,"x_min":82,"x_max":1551,"o":"m 768 1206 l 754 1206 q 707 1153 743 1175 q 624 1131 671 1131 q 542 1153 578 1131 q 496 1206 507 1175 l 482 1206 q 524 1104 482 1147 q 615 1061 567 1061 q 696 1081 663 1061 q 749 1133 729 1100 q 768 1206 768 1167 m 1346 -242 q 1551 -207 1440 -242 l 1550 -193 q 1414 -206 1476 -206 q 1169 -139 1264 -206 q 1026 175 1035 -44 l 1026 389 q 1043 435 1025 419 q 1096 451 1061 451 l 1117 451 l 1117 465 l 844 465 l 844 451 l 867 451 q 918 435 900 451 q 936 389 936 419 l 936 143 q 849 78 897 106 q 624 22 744 22 q 312 156 436 24 q 188 488 188 288 q 312 819 188 689 q 624 950 436 950 q 853 885 761 950 q 976 701 946 821 l 989 701 l 961 897 q 624 992 815 992 q 347 928 471 992 q 153 748 224 864 q 83 488 83 632 q 153 228 83 343 q 348 47 224 113 q 624 -19 472 -19 q 947 81 815 -19 q 1057 -129 974 -46 q 1346 -242 1169 -242 "},"ğ":{"ha":1108,"x_min":82,"x_max":1075,"o":"m 721 1206 l 707 1206 q 660 1153 696 1175 q 578 1131 625 1131 q 496 1153 532 1131 q 449 1206 460 1175 l 435 1206 q 477 1104 435 1147 q 568 1061 519 1061 q 649 1081 617 1061 q 701 1133 682 1100 q 721 1206 721 1167 m 582 -19 q 826 33 725 -19 q 985 160 928 85 l 985 389 q 1001 435 983 419 q 1054 451 1019 451 l 1075 451 l 1075 465 l 803 465 l 803 451 l 825 451 q 877 435 858 451 q 896 389 896 419 l 896 143 q 753 54 835 86 q 582 22 672 22 q 297 151 406 24 q 188 486 188 278 q 297 822 188 694 q 582 950 406 950 q 812 885 719 950 q 935 701 904 821 l 947 701 l 919 897 q 582 992 774 992 q 222 852 360 992 q 83 486 83 713 q 222 121 83 260 q 582 -19 360 -18 "},"Ġ":{"ha":1175,"x_min":83,"x_max":1551,"o":"m 665 1080 q 682 1122 682 1097 q 665 1165 682 1147 q 622 1182 647 1182 q 580 1165 597 1182 q 563 1122 563 1147 q 580 1080 563 1097 q 622 1063 597 1063 q 656 1071 647 1063 q 665 1080 665 1080 m 1346 -242 q 1551 -207 1440 -242 l 1550 -193 q 1414 -206 1476 -206 q 1169 -139 1264 -206 q 1026 175 1035 -44 l 1026 389 q 1043 435 1025 419 q 1096 451 1061 451 l 1117 451 l 1117 465 l 844 465 l 844 451 l 867 451 q 918 435 900 451 q 936 389 936 419 l 936 143 q 796 54 878 86 q 624 22 714 22 q 313 156 438 24 q 188 488 188 288 q 312 819 188 689 q 624 950 436 950 q 788 921 715 950 q 976 701 935 863 l 989 701 l 961 897 q 624 992 815 992 q 347 928 471 992 q 153 748 224 864 q 83 488 83 632 q 153 228 83 343 q 348 47 224 113 q 624 -19 472 -19 q 947 81 815 -19 q 1057 -129 974 -46 q 1346 -242 1169 -242 "},"ġ":{"ha":1108,"x_min":83,"x_max":1075,"o":"m 619 1080 q 636 1122 636 1097 q 619 1165 636 1147 q 576 1182 601 1182 q 534 1165 551 1182 q 517 1122 517 1147 q 534 1080 517 1097 q 576 1063 551 1063 q 610 1071 601 1063 q 619 1080 619 1080 m 582 -19 q 765 9 681 -19 q 899 75 849 38 q 985 160 949 113 l 985 389 q 1001 435 983 419 q 1054 451 1019 451 l 1075 451 l 1075 465 l 803 465 l 803 451 l 825 451 q 877 435 858 451 q 896 389 896 419 l 896 143 q 753 54 835 86 q 582 22 672 22 q 297 151 406 24 q 188 486 188 278 q 297 822 188 694 q 582 950 406 950 q 812 885 719 950 q 935 701 904 821 l 947 701 l 919 897 q 582 992 774 992 q 222 852 360 992 q 83 486 83 713 q 222 121 83 260 q 582 -19 360 -18 "},"Ģ":{"ha":1175,"x_min":83,"x_max":1551,"o":"m 1346 -242 q 1551 -207 1440 -242 l 1550 -193 q 1414 -206 1476 -206 q 1169 -139 1264 -206 q 1026 175 1035 -44 l 1026 389 q 1043 435 1025 419 q 1096 451 1061 451 l 1117 451 l 1117 465 l 844 465 l 844 451 l 867 451 q 918 435 900 451 q 936 389 936 419 l 936 143 q 796 54 878 86 q 624 22 714 22 q 313 156 438 24 q 188 488 188 288 q 312 819 188 689 q 624 950 436 950 q 788 921 715 950 q 976 701 935 863 l 989 701 l 961 897 q 624 992 815 992 q 347 928 471 992 q 153 748 224 864 q 83 488 83 632 q 153 228 83 343 q 348 47 224 113 q 624 -19 472 -19 q 947 81 815 -19 q 1057 -129 974 -46 q 1346 -242 1169 -242 m 586 -112 q 585 -137 581 -125 q 589 -149 585 -143 q 596 -159 593 -156 q 604 -169 599 -162 q 613 -178 610 -175 q 618 -249 640 -211 q 575 -279 606 -269 l 578 -289 q 667 -236 635 -286 q 685 -180 685 -208 q 672 -120 685 -151 q 626 -89 658 -89 q 586 -112 597 -89 "},"ģ":{"ha":1108,"x_min":83,"x_max":1075,"o":"m 582 -19 q 765 9 681 -19 q 899 75 849 38 q 985 160 949 113 l 985 389 q 1001 435 983 419 q 1054 451 1019 451 l 1075 451 l 1075 465 l 803 465 l 803 451 l 825 451 q 877 435 858 451 q 896 389 896 419 l 896 143 q 753 54 835 86 q 582 22 672 22 q 297 151 406 24 q 188 486 188 278 q 297 822 188 694 q 582 950 406 950 q 812 885 719 950 q 935 701 904 821 l 947 701 l 919 897 q 582 992 774 992 q 222 852 360 992 q 83 486 83 713 q 222 121 83 260 q 582 -19 360 -18 m 543 -126 q 542 -151 538 -139 q 546 -163 542 -157 q 553 -173 550 -169 q 561 -183 556 -176 q 569 -192 567 -189 q 575 -262 597 -225 q 532 -293 563 -283 l 535 -303 q 606 -273 571 -301 q 642 -185 642 -244 q 628 -134 642 -165 q 583 -103 615 -103 q 543 -126 554 -103 "},"Ħ":{"ha":1133,"x_min":82,"x_max":1047,"o":"m 1013 14 q 968 25 988 14 q 924 101 924 50 l 924 692 l 1013 692 l 1013 733 l 924 733 l 924 847 q 955 1039 925 969 q 1047 1142 985 1108 l 1040 1154 q 890 1069 940 1132 q 833 847 835 1001 l 833 733 l 296 733 l 296 872 q 323 933 297 908 q 385 958 349 958 l 403 958 l 403 972 l 99 972 l 100 958 l 117 958 q 179 933 153 958 q 206 872 206 908 l 206 733 l 83 733 l 83 692 l 206 692 l 206 97 q 176 -94 206 -25 q 83 -197 146 -164 l 90 -210 q 201 -164 158 -194 q 296 97 296 -97 l 296 460 l 833 460 l 833 99 q 805 38 831 63 q 744 14 779 14 l 726 14 l 726 0 l 1029 0 l 1029 14 l 1013 14 m 296 501 l 296 692 l 833 692 l 833 501 l 296 501 "},"ħ":{"ha":1129,"x_min":82,"x_max":1047,"o":"m 760 14 l 742 14 l 742 0 l 1046 0 l 1046 14 l 1028 14 q 966 40 992 14 q 939 101 940 65 l 939 692 l 1031 692 l 1031 733 l 939 733 l 939 871 q 972 940 940 907 q 1028 958 992 958 l 1046 958 l 1046 972 l 742 972 l 742 958 l 760 958 q 804 947 783 958 q 849 872 847 922 l 849 733 l 281 733 l 281 872 q 308 933 282 908 q 369 958 333 958 l 388 958 l 388 972 l 83 972 l 83 958 l 101 958 q 163 933 138 958 q 190 872 189 908 l 190 733 l 103 733 l 103 692 l 190 692 l 190 101 q 163 40 189 65 q 101 14 138 14 l 83 14 l 83 0 l 388 0 l 388 14 l 369 14 q 307 40 333 14 q 281 101 281 65 l 281 460 l 849 460 l 849 100 q 822 39 847 64 q 760 14 796 14 m 281 501 l 281 692 l 849 692 l 849 501 l 281 501 "},"Ī":{"ha":546,"x_min":-71,"x_max":490,"o":"m 142 1104 l 489 1104 l 489 1153 l 142 1153 l 142 1104 m 446 14 q 384 40 410 14 q 357 101 358 65 l 357 861 q 382 946 357 915 q 467 986 407 976 l 464 1000 q 248 976 385 985 q 110 967 111 967 q -69 829 -69 947 q -34 747 -69 775 q 30 719 1 719 q 79 724 58 719 l 79 732 q 2 761 26 735 q -22 825 -22 788 q 118 926 -22 918 l 267 935 l 267 101 q 240 40 267 65 q 178 14 214 14 l 160 14 l 160 0 l 464 0 l 464 14 l 446 14 "},"ī":{"ha":469,"x_min":65,"x_max":414,"o":"m 65 1104 l 413 1104 l 413 1153 l 65 1153 l 65 1104 m 101 14 l 83 14 l 83 0 l 388 0 l 388 14 l 369 14 q 307 40 333 14 q 281 101 281 65 l 281 872 q 308 933 282 908 q 369 958 333 958 l 388 958 l 388 972 l 83 972 l 83 958 l 101 958 q 163 933 138 958 q 190 872 189 908 l 190 101 q 163 40 189 65 q 101 14 138 14 "},"Į":{"ha":546,"x_min":-71,"x_max":467,"o":"m 235 -104 q 338 0 235 -24 l 464 0 l 464 14 l 446 14 q 383 40 410 14 q 357 101 357 65 l 357 861 q 382 946 357 915 q 467 986 407 976 l 464 1000 q 248 976 385 985 q 110 967 111 967 q -69 829 -69 947 q -34 747 -69 775 q 30 719 1 719 q 79 724 58 719 l 79 732 q 2 761 26 735 q -22 825 -22 788 q 118 926 -22 918 l 267 935 l 267 101 q 240 40 267 65 q 178 14 214 14 l 160 14 l 160 0 l 285 0 q 203 -44 235 -11 q 171 -124 171 -78 q 192 -201 171 -169 q 241 -243 213 -233 q 304 -253 269 -253 q 371 -229 339 -253 q 413 -175 400 -208 l 404 -167 q 331 -201 371 -201 q 263 -174 290 -201 q 235 -104 235 -146 "},"į":{"ha":469,"x_min":82,"x_max":388,"o":"m 158 -104 q 263 0 158 -24 l 388 0 l 388 14 l 369 14 q 307 40 333 14 q 281 101 281 65 l 281 872 q 308 933 282 908 q 369 958 333 958 l 388 958 l 388 972 l 83 972 l 83 958 l 101 958 q 163 933 138 958 q 190 872 189 908 l 190 101 q 163 40 189 65 q 101 14 138 14 l 83 14 l 83 0 l 208 0 q 126 -44 158 -11 q 94 -124 94 -78 q 116 -201 94 -169 q 166 -243 138 -233 q 228 -253 194 -253 q 296 -229 263 -253 q 336 -175 324 -208 l 328 -167 q 255 -201 294 -201 q 187 -174 215 -201 q 158 -104 158 -146 "},"İ":{"ha":546,"x_min":-71,"x_max":467,"o":"m 352 1080 q 369 1122 369 1097 q 352 1165 369 1147 q 310 1182 335 1182 q 267 1165 285 1182 q 250 1122 250 1147 q 267 1080 250 1097 q 310 1063 285 1063 q 343 1071 335 1063 q 352 1080 352 1080 m 446 14 q 384 40 410 14 q 357 101 358 65 l 357 861 q 382 946 357 915 q 467 986 407 976 l 464 1000 q 248 976 385 985 q 110 967 111 967 q -69 829 -69 947 q -51 768 -69 796 q 40 719 -21 719 q 79 724 60 719 l 79 732 q 2 761 26 735 q -22 825 -22 788 q 118 926 -22 918 l 267 935 l 267 101 q 240 40 267 65 q 178 14 214 14 l 160 14 l 160 0 l 464 0 l 464 14 l 446 14 "},"ı":{"ha":469,"x_min":82,"x_max":388,"o":"m 101 14 l 83 14 l 83 0 l 388 0 l 388 14 l 369 14 q 307 40 333 14 q 281 101 281 65 l 281 872 q 308 933 282 908 q 369 958 333 958 l 388 958 l 388 972 l 83 972 l 83 958 l 101 958 q 163 933 138 958 q 190 872 189 908 l 190 101 q 163 40 189 65 q 101 14 138 14 "},"Ĳ":{"ha":1017,"x_min":-71,"x_max":935,"o":"m 446 14 q 384 40 410 14 q 357 101 358 65 l 357 861 q 382 946 357 915 q 467 986 407 976 l 464 1000 q 248 976 385 985 q 110 967 111 967 q -69 829 -69 947 q -51 768 -69 796 q 40 719 -21 719 q 79 724 60 719 l 79 732 q 2 761 26 735 q -22 825 -22 788 q 118 926 -22 918 l 267 935 l 267 101 q 240 40 267 65 q 178 14 214 14 l 160 14 l 160 0 l 464 0 l 464 14 l 446 14 m 435 -187 l 429 -203 q 539 -226 479 -226 q 724 -161 640 -226 q 797 -54 768 -125 q 826 111 826 17 l 826 871 q 853 933 828 908 q 915 958 879 958 l 933 958 l 933 972 l 629 972 l 629 958 l 647 958 q 710 933 683 958 q 736 871 736 907 l 736 115 q 715 -39 736 26 q 660 -137 693 -104 q 586 -185 626 -169 q 509 -200 546 -200 q 435 -187 472 -200 "},"ĳ":{"ha":919,"x_min":82,"x_max":858,"o":"m 839 958 l 857 958 l 857 972 l 553 972 l 553 958 l 571 958 q 633 933 607 958 q 660 871 658 907 l 660 4 q 613 -163 660 -85 q 497 -265 565 -242 l 497 -278 q 677 -197 604 -278 q 750 0 750 -117 l 750 871 q 763 915 751 896 q 839 958 789 958 m 101 14 l 83 14 l 83 0 l 388 0 l 388 14 l 369 14 q 307 40 333 14 q 281 101 281 65 l 281 872 q 308 933 282 908 q 369 958 333 958 l 388 958 l 388 972 l 83 972 l 83 958 l 101 958 q 163 933 138 958 q 190 872 189 908 l 190 101 q 163 40 189 65 q 101 14 138 14 "},"Ķ":{"ha":929,"x_min":82,"x_max":1333,"o":"m 369 14 q 307 40 333 14 q 281 101 281 65 l 281 872 q 308 933 282 908 q 369 958 333 958 l 388 958 l 388 972 l 83 972 l 83 958 l 101 958 q 163 933 138 958 q 190 872 189 908 l 190 101 q 163 40 189 65 q 101 14 138 14 l 83 14 l 83 0 l 388 0 l 388 14 l 369 14 m 1332 -208 q 1098 -145 1213 -208 q 892 17 983 -82 l 419 521 l 743 894 q 893 960 801 960 l 899 960 l 899 972 l 606 972 l 606 960 l 619 960 q 660 939 649 960 q 664 919 664 931 q 653 894 664 908 l 325 483 l 785 -7 q 1226 -235 999 -235 q 1332 -222 1279 -235 l 1332 -208 m 506 -112 q 503 -137 500 -125 q 508 -149 504 -143 q 515 -159 513 -156 q 524 -169 518 -162 q 531 -178 529 -175 q 538 -249 560 -211 q 493 -279 525 -269 l 496 -289 q 568 -259 533 -287 q 603 -171 603 -231 q 590 -120 603 -151 q 546 -89 578 -89 q 506 -112 517 -89 "},"ķ":{"ha":913,"x_min":82,"x_max":928,"o":"m 369 14 q 307 40 333 14 q 281 101 281 65 l 281 872 q 308 933 282 908 q 369 958 333 958 l 388 958 l 388 972 l 83 972 l 83 958 l 101 958 q 163 933 138 958 q 190 872 189 908 l 190 101 q 163 40 189 65 q 101 14 138 14 l 83 14 l 83 0 l 388 0 l 388 14 l 369 14 m 928 0 l 928 14 q 796 71 851 15 l 417 517 l 743 894 q 893 960 801 960 l 899 960 l 899 972 l 606 972 l 606 960 l 619 960 q 660 939 649 960 q 664 919 664 931 q 653 894 664 908 l 325 483 l 660 79 q 868 0 726 0 l 928 0 m 510 -112 q 507 -137 504 -125 q 513 -149 508 -143 q 519 -159 517 -156 q 528 -169 522 -162 q 535 -178 533 -175 q 540 -249 563 -211 q 497 -279 529 -269 l 500 -289 q 572 -259 536 -287 q 607 -171 607 -231 q 594 -120 607 -151 q 550 -89 582 -89 q 510 -112 521 -89 "},"Ĺ":{"ha":557,"x_min":83,"x_max":1288,"o":"m 235 1061 q 458 1179 369 1128 q 401 1253 439 1215 q 225 1071 332 1185 l 235 1061 m 347 -26 q 301 1 317 -15 q 283 31 286 18 q 281 69 281 44 l 281 871 q 293 915 281 894 q 369 958 319 958 l 388 958 l 388 972 l 83 972 l 83 958 l 101 958 q 163 933 138 958 q 190 871 189 907 l 190 101 q 163 39 189 64 q 101 14 138 14 l 83 14 l 83 0 q 328 -68 179 -1 q 543 -172 369 -86 q 944 -282 768 -282 q 1286 -165 1117 -282 l 1279 -154 q 1045 -203 1151 -203 q 791 -166 939 -203 q 347 -26 643 -129 "},"ĺ":{"ha":781,"x_min":83,"x_max":740,"o":"m 236 1061 q 460 1179 371 1128 q 403 1253 440 1215 q 226 1071 332 1185 l 236 1061 m 101 14 l 83 14 l 83 0 l 660 0 l 740 225 l 726 225 q 636 89 690 135 q 479 43 582 43 l 281 43 l 281 871 q 293 915 281 894 q 369 958 319 958 l 388 958 l 388 972 l 83 972 l 83 958 l 101 958 q 163 933 138 958 q 190 871 189 907 l 190 101 q 163 40 189 65 q 101 14 138 14 "},"Ļ":{"ha":557,"x_min":83,"x_max":1288,"o":"m 347 -26 q 301 1 317 -15 q 283 31 286 18 q 281 69 281 44 l 281 871 q 307 933 281 907 q 369 958 333 958 l 388 958 l 388 972 l 83 972 l 83 958 l 101 958 q 163 933 138 958 q 190 871 189 907 l 190 101 q 163 39 189 64 q 101 14 138 14 l 83 14 l 83 0 q 328 -68 179 -1 q 543 -172 369 -86 q 944 -282 768 -282 q 1286 -165 1117 -282 l 1279 -154 q 1045 -203 1151 -203 q 791 -166 939 -203 q 347 -26 643 -129 m 292 -176 q 289 -201 286 -189 q 294 -213 290 -207 q 301 -223 299 -219 q 310 -233 304 -226 q 317 -242 315 -239 q 324 -312 346 -275 q 279 -343 311 -333 l 282 -353 q 372 -300 340 -350 q 390 -244 390 -272 q 377 -184 390 -215 q 332 -153 364 -153 q 292 -176 303 -153 "},"ļ":{"ha":781,"x_min":83,"x_max":740,"o":"m 101 14 l 83 14 l 83 0 l 660 0 l 740 225 l 726 225 q 636 89 690 135 q 479 43 582 43 l 281 43 l 281 871 q 293 915 281 894 q 369 958 319 958 l 388 958 l 388 972 l 83 972 l 83 958 l 101 958 q 163 933 138 958 q 190 871 189 907 l 190 101 q 163 40 189 65 q 101 14 138 14 m 383 -112 q 381 -137 378 -125 q 386 -149 382 -143 q 393 -159 390 -156 q 401 -169 396 -162 q 408 -178 407 -175 q 414 -249 436 -211 q 371 -279 403 -269 l 374 -289 q 464 -236 431 -286 q 482 -180 482 -208 q 469 -120 482 -151 q 424 -89 456 -89 q 383 -112 393 -89 "},"Ľ":{"ha":557,"x_min":83,"x_max":1288,"o":"m 556 981 q 514 956 524 981 q 533 899 504 932 q 546 819 568 860 q 503 789 533 799 l 506 781 q 594 832 563 782 q 613 890 613 861 q 600 949 613 918 q 572 981 588 981 q 556 981 556 981 m 347 -26 q 301 1 317 -15 q 283 31 286 18 q 281 69 281 44 l 281 871 q 293 915 281 894 q 369 958 319 958 l 388 958 l 388 972 l 83 972 l 83 958 l 101 958 q 163 933 138 958 q 190 871 189 907 l 190 101 q 163 39 189 64 q 101 14 138 14 l 83 14 l 83 0 q 328 -68 179 -1 q 543 -172 369 -86 q 944 -282 768 -282 q 1286 -165 1117 -282 l 1279 -154 q 1045 -203 1151 -203 q 791 -166 939 -203 q 347 -26 643 -129 "},"ľ":{"ha":781,"x_min":83,"x_max":740,"o":"m 556 981 q 514 956 524 981 q 533 899 504 932 q 546 819 568 860 q 503 789 533 799 l 506 781 q 594 832 563 782 q 613 890 613 861 q 600 949 613 918 q 572 981 588 981 q 556 981 556 981 m 101 14 l 83 14 l 83 0 l 660 0 l 740 225 l 726 225 q 636 89 690 135 q 479 43 582 43 l 281 43 l 281 871 q 307 933 281 907 q 369 958 333 958 l 388 958 l 388 972 l 83 972 l 83 958 l 101 958 q 163 933 138 958 q 190 871 189 907 l 190 101 q 163 40 189 65 q 101 14 138 14 "},"Ŀ":{"ha":661,"x_min":83,"x_max":1288,"o":"m 347 -26 q 301 1 317 -15 q 283 31 286 18 q 281 69 281 44 l 281 871 q 307 933 281 907 q 369 958 333 958 l 388 958 l 388 972 l 83 972 l 83 958 l 101 958 q 163 933 138 958 q 190 871 189 907 l 190 101 q 163 39 189 64 q 101 14 138 14 l 83 14 l 83 0 q 328 -68 179 -1 q 543 -172 369 -86 q 944 -282 768 -282 q 1286 -165 1117 -282 l 1279 -154 q 1045 -203 1151 -203 q 791 -166 939 -203 q 347 -26 643 -129 m 508 578 q 526 622 526 596 q 508 667 526 649 q 465 685 490 685 q 420 667 439 685 q 401 622 401 649 q 420 578 401 596 q 465 560 439 560 q 499 569 490 560 q 508 578 508 578 "},"ŀ":{"ha":781,"x_min":83,"x_max":740,"o":"m 101 14 l 83 14 l 83 0 l 660 0 l 740 225 l 726 225 q 636 89 690 135 q 479 43 582 43 l 281 43 l 281 871 q 293 915 281 894 q 369 958 319 958 l 388 958 l 388 972 l 83 972 l 83 958 l 101 958 q 163 933 138 958 q 190 871 189 907 l 190 101 q 163 40 189 65 q 101 14 138 14 m 508 578 q 526 622 526 596 q 508 667 526 649 q 465 685 490 685 q 420 667 439 685 q 401 622 401 649 q 420 578 401 596 q 465 560 439 560 q 499 569 490 560 q 508 578 508 578 "},"Ł":{"ha":615,"x_min":83,"x_max":1288,"o":"m 347 -26 q 301 1 317 -15 q 283 31 286 18 q 281 69 281 44 l 281 446 l 533 592 l 513 628 l 281 494 l 281 871 q 293 915 281 894 q 369 958 319 958 l 388 958 l 388 972 l 83 972 l 83 958 l 101 958 q 163 933 138 958 q 190 871 189 907 l 190 442 l 83 381 l 104 344 l 190 394 l 190 101 q 163 39 189 64 q 101 14 138 14 l 83 14 l 83 0 q 328 -68 179 -1 q 543 -172 369 -86 q 944 -282 768 -282 q 1286 -165 1117 -282 l 1279 -154 q 1045 -203 1151 -203 q 791 -166 939 -203 q 347 -26 643 -129 "},"ł":{"ha":781,"x_min":24,"x_max":740,"o":"m 101 14 l 83 14 l 83 0 l 660 0 l 740 225 l 726 225 q 636 89 690 135 q 479 43 582 43 l 281 43 l 281 481 l 474 592 l 453 628 l 281 528 l 281 871 q 307 933 281 907 q 369 958 333 958 l 388 958 l 388 972 l 83 972 l 83 958 l 101 958 q 163 933 138 958 q 190 871 189 907 l 190 476 l 25 381 l 46 344 l 190 428 l 190 101 q 163 40 189 65 q 101 14 138 14 "},"Ń":{"ha":1168,"x_min":-262,"x_max":1464,"o":"m 592 1061 q 815 1179 725 1128 q 758 1253 796 1215 q 582 1071 688 1185 l 592 1061 m 1464 -211 l 1458 -197 q 1401 -203 1428 -203 q 1331 -193 1374 -203 q 1256 -164 1289 -183 q 1213 -137 1232 -149 q 1173 -105 1194 -125 q 1137 -72 1151 -85 q 1101 -35 1122 -58 q 1070 1 1081 -11 q 1034 44 1060 14 q 994 90 1008 75 l 994 875 q 1021 934 996 910 q 1081 958 1046 958 l 1106 958 l 1106 972 l 819 972 l 819 958 l 846 958 q 906 934 881 958 q 932 874 931 910 l 932 161 l 232 939 q 176 999 200 974 q -119 1160 21 1160 q -261 1131 -192 1160 l -256 1117 q -190 1126 -221 1126 q -126 1121 -160 1126 q -37 1082 -92 1115 q 7 1049 -17 1069 q 47 1013 31 1029 q 85 972 64 996 q 118 933 106 949 q 148 894 131 917 q 174 861 165 872 l 174 99 q 149 38 174 63 q 89 14 124 14 l 63 14 l 63 0 l 349 0 l 349 14 l 322 14 q 281 25 300 14 q 238 97 239 49 l 238 792 l 969 -19 q 1103 -146 1038 -93 q 1181 -194 1142 -176 q 1259 -222 1219 -211 q 1348 -232 1299 -232 q 1464 -211 1397 -232 "},"ń":{"ha":1168,"x_min":61,"x_max":1107,"o":"m 592 1061 q 815 1179 725 1128 q 758 1253 796 1215 q 582 1071 688 1185 l 592 1061 m 1081 958 l 1106 958 l 1106 972 l 819 972 l 819 958 l 846 958 q 906 934 881 958 q 932 874 931 910 l 932 185 l 175 993 l 161 993 l 164 971 q 174 819 174 904 l 174 99 q 149 38 174 63 q 89 14 124 14 l 63 14 l 63 0 l 349 0 l 349 14 l 322 14 q 263 38 288 14 q 238 97 238 63 l 238 789 l 994 -19 l 1007 -19 l 1004 6 q 994 158 994 78 l 994 875 q 1021 934 996 910 q 1081 958 1046 958 "},"Ņ":{"ha":1168,"x_min":-262,"x_max":1464,"o":"m 1464 -211 l 1458 -197 q 1401 -203 1428 -203 q 1331 -193 1374 -203 q 1256 -164 1289 -183 q 1213 -137 1232 -149 q 1173 -105 1194 -125 q 1137 -72 1151 -85 q 1101 -35 1122 -58 q 1070 1 1081 -11 q 1034 44 1060 14 q 994 90 1008 75 l 994 875 q 1021 934 996 910 q 1081 958 1046 958 l 1106 958 l 1106 972 l 819 972 l 819 958 l 846 958 q 906 934 881 958 q 932 874 931 910 l 932 161 l 232 939 q 153 1022 186 990 q 69 1092 121 1054 q -26 1144 18 1129 q -133 1158 -71 1158 q -261 1131 -194 1158 l -256 1117 q -190 1126 -221 1126 q -126 1121 -160 1126 q -37 1082 -92 1115 q 7 1049 -17 1069 q 47 1013 31 1029 q 85 972 64 996 q 118 933 106 949 q 148 894 131 917 q 174 861 165 872 l 174 99 q 149 38 174 63 q 89 14 124 14 l 63 14 l 63 0 l 349 0 l 349 14 l 322 14 q 281 25 300 14 q 238 97 239 49 l 238 792 l 969 -19 q 1103 -146 1038 -93 q 1181 -194 1142 -176 q 1259 -222 1219 -211 q 1348 -232 1299 -232 q 1464 -211 1397 -232 m 554 -112 q 551 -137 549 -125 q 556 -149 553 -143 q 563 -159 560 -156 q 572 -169 567 -162 q 579 -178 576 -175 q 585 -249 607 -211 q 542 -279 572 -269 l 544 -289 q 635 -236 601 -286 q 653 -180 653 -208 q 640 -120 653 -151 q 593 -89 626 -89 q 554 -112 564 -89 "},"ņ":{"ha":1168,"x_min":61,"x_max":1107,"o":"m 1081 958 l 1106 958 l 1106 972 l 819 972 l 819 958 l 846 958 q 906 934 881 958 q 932 874 931 910 l 932 185 l 175 993 l 161 993 l 164 971 q 174 819 174 904 l 174 99 q 149 38 174 63 q 89 14 124 14 l 63 14 l 63 0 l 349 0 l 349 14 l 322 14 q 263 38 288 14 q 238 97 238 63 l 238 789 l 994 -19 l 1007 -19 l 1004 6 q 994 158 994 78 l 994 875 q 1021 934 996 910 q 1081 958 1046 958 m 554 -112 q 551 -137 549 -125 q 556 -149 553 -143 q 563 -159 560 -156 q 572 -169 567 -162 q 579 -178 576 -175 q 585 -249 607 -211 q 542 -279 572 -269 l 544 -289 q 635 -236 601 -286 q 653 -180 653 -208 q 640 -120 653 -151 q 593 -89 626 -89 q 554 -112 564 -89 "},"Ň":{"ha":1168,"x_min":-262,"x_max":1464,"o":"m 599 1061 l 746 1226 l 738 1238 l 592 1146 l 435 1238 l 426 1226 l 585 1061 l 599 1061 m 1464 -211 l 1458 -197 q 1397 -203 1426 -203 q 1210 -135 1296 -203 q 1122 -56 1154 -89 q 1049 26 1090 -22 q 994 90 1008 75 l 994 875 q 1021 934 996 910 q 1081 958 1046 958 l 1106 958 l 1106 972 l 819 972 l 819 958 l 846 958 q 906 934 881 958 q 932 874 931 910 l 932 161 l 232 939 q 99 1069 163 1015 q 21 1122 58 1104 q -54 1151 -17 1140 q -140 1161 -92 1161 q -261 1131 -189 1161 l -256 1117 q -185 1128 -218 1128 q -106 1114 -153 1128 q -17 1068 -58 1100 q 30 1029 10 1046 q 74 985 50 1013 q 111 942 97 958 q 146 898 125 925 q 174 861 167 871 l 174 99 q 149 38 174 63 q 89 14 124 14 l 63 14 l 63 0 l 349 0 l 349 14 l 322 14 q 263 38 288 14 q 238 97 238 63 l 238 792 l 969 -19 q 1103 -146 1038 -93 q 1264 -224 1171 -199 q 1464 -211 1353 -246 "},"ň":{"ha":1168,"x_min":61,"x_max":1107,"o":"m 599 1061 l 746 1226 l 738 1238 l 592 1146 l 435 1238 l 426 1226 l 585 1061 l 599 1061 m 1081 958 l 1106 958 l 1106 972 l 819 972 l 819 958 l 846 958 q 906 934 881 958 q 932 874 931 910 l 932 185 l 175 993 l 161 993 l 164 971 q 174 819 174 904 l 174 99 q 149 38 174 63 q 89 14 124 14 l 63 14 l 63 0 l 349 0 l 349 14 l 322 14 q 263 38 288 14 q 238 97 238 63 l 238 789 l 994 -19 l 1007 -19 l 1004 6 q 994 158 994 78 l 994 875 q 1021 934 996 910 q 1081 958 1046 958 "},"Ŋ":{"ha":1138,"x_min":-221,"x_max":1076,"o":"m -219 1064 l -214 1050 q -145 1060 -179 1060 q -83 1053 -111 1060 q 157 868 29 1025 l 157 86 q 135 38 156 57 q 85 18 114 18 l 63 18 l 63 0 l 318 0 l 318 18 l 296 18 q 258 28 276 18 q 222 90 222 49 l 222 789 l 917 46 l 917 -42 q 881 -190 917 -135 q 794 -268 846 -244 l 801 -279 q 890 -243 851 -268 q 953 -167 928 -218 q 979 -44 979 -115 l 979 882 q 1001 933 979 913 q 1053 954 1022 954 l 1075 954 l 1075 972 l 819 972 l 819 954 l 842 954 q 894 933 872 954 q 915 882 915 913 l 915 186 l 274 872 q 218 932 242 908 q -78 1093 61 1093 q -219 1064 -150 1093 "},"ŋ":{"ha":1165,"x_min":42,"x_max":1056,"o":"m 1032 954 l 1054 954 l 1054 972 l 799 972 l 800 954 l 821 954 q 879 928 851 954 q 896 882 894 913 l 896 186 l 139 993 l 125 993 l 129 971 q 138 819 138 904 l 138 90 q 116 39 138 60 q 64 18 94 18 l 42 18 l 42 0 l 297 0 l 297 18 l 275 18 q 223 39 244 18 q 201 90 201 60 l 201 789 l 896 46 l 896 -42 q 860 -190 896 -135 q 774 -268 825 -244 l 781 -279 q 869 -243 831 -268 q 933 -167 907 -218 q 958 -44 958 -115 l 958 882 q 981 933 960 913 q 1032 954 1003 954 "},"Ō":{"ha":1290,"x_min":83,"x_max":1207,"o":"m 482 1104 l 829 1104 l 829 1153 l 482 1153 l 482 1104 m 385 649 l 399 651 q 396 692 396 667 q 407 751 396 717 q 567 921 446 869 q 715 950 633 950 q 999 821 899 950 q 1100 504 1100 692 q 973 155 1100 288 q 646 22 846 22 q 318 154 446 22 q 190 521 190 286 q 230 760 190 647 q 360 932 269 872 l 351 944 q 153 764 222 879 q 83 500 83 649 q 244 125 83 269 q 647 -19 404 -19 q 1049 126 890 -19 q 1207 490 1207 271 q 1073 851 1207 710 q 726 992 939 992 q 547 956 621 992 q 484 917 513 939 q 438 868 456 894 q 406 813 419 842 q 387 756 392 785 q 381 710 382 726 q 379 680 379 693 q 385 649 379 667 "},"ō":{"ha":1178,"x_min":54,"x_max":1124,"o":"m 421 1104 l 768 1104 l 768 1153 l 421 1153 l 421 1104 m 204 852 q 56 486 56 713 q 204 120 56 260 q 590 -19 353 -19 q 975 120 826 -19 q 1124 486 1124 260 q 975 852 1124 713 q 590 992 826 992 q 278 922 353 992 q 204 852 204 852 m 280 150 q 163 486 163 278 q 280 822 163 694 q 589 950 397 950 q 898 822 781 950 q 1015 486 1015 694 q 898 150 1015 278 q 589 22 781 22 q 339 86 397 22 q 280 150 280 150 "},"Ő":{"ha":1290,"x_min":83,"x_max":1208,"o":"m 572 1067 q 735 1235 660 1151 q 650 1251 700 1249 q 557 1069 599 1161 l 572 1067 m 742 1067 q 904 1235 810 1129 q 819 1251 861 1251 q 726 1069 769 1171 l 742 1067 m 385 649 l 399 651 q 396 692 396 667 q 407 751 396 717 q 567 921 446 869 q 721 950 633 950 q 883 913 808 950 q 1004 814 958 876 q 1100 504 1100 686 q 1042 251 1100 361 q 880 82 983 142 q 644 22 776 22 q 322 150 449 22 q 225 308 260 213 q 190 521 190 403 q 258 818 190 694 q 360 932 299 892 l 351 944 q 153 764 222 879 q 83 498 83 649 q 158 228 83 347 q 360 45 232 110 q 648 -19 489 -19 q 935 46 807 -19 q 1135 230 1063 111 q 1207 493 1207 349 q 1148 749 1207 638 q 978 926 1089 861 q 744 992 868 992 q 547 956 621 992 q 484 917 513 939 q 438 868 456 894 q 406 813 419 842 q 387 756 392 785 q 381 710 382 726 q 379 680 379 693 q 385 649 379 667 "},"ő":{"ha":1178,"x_min":56,"x_max":1124,"o":"m 682 1067 q 843 1235 750 1129 q 760 1251 800 1251 q 667 1069 708 1171 l 682 1067 m 511 1067 q 674 1235 599 1151 q 589 1251 640 1249 q 496 1069 539 1161 l 511 1067 m 204 852 q 56 486 56 713 q 204 120 56 260 q 590 -19 353 -19 q 975 120 826 -19 q 1124 486 1124 260 q 975 852 1124 713 q 590 992 826 992 q 278 922 353 992 q 204 852 204 852 m 280 150 q 163 486 163 278 q 280 822 163 694 q 590 950 397 950 q 899 822 782 950 q 1015 486 1015 694 q 899 150 1015 278 q 590 22 782 22 q 339 86 397 22 q 280 150 280 150 "},"Œ":{"ha":1385,"x_min":83,"x_max":1379,"o":"m 828 0 l 1297 0 l 1378 225 l 1364 225 q 1274 89 1328 135 q 1118 43 1219 43 l 829 43 l 829 458 l 1093 458 q 1140 438 1121 457 q 1160 390 1160 418 l 1160 369 l 1174 369 l 1174 589 l 1160 589 l 1160 569 q 1140 521 1160 540 q 1092 500 1121 501 l 829 500 l 829 929 l 982 929 q 1038 904 1015 928 q 1060 847 1060 881 l 1060 822 l 1076 822 l 1076 997 q 1006 981 1057 989 q 911 972 954 972 l 825 972 q 715 982 782 972 q 557 992 647 992 q 374 955 467 992 q 218 853 282 918 q 119 693 154 788 q 83 486 83 599 q 219 119 83 258 q 575 -19 354 -19 q 689 -10 606 -19 q 828 0 772 0 m 575 950 q 693 934 642 950 q 744 883 744 918 l 744 89 q 717 51 744 68 q 575 22 665 22 q 291 150 399 22 q 183 486 183 278 q 291 822 183 694 q 575 950 399 950 "},"œ":{"ha":1356,"x_min":83,"x_max":1296,"o":"m 828 0 l 1214 0 l 1294 225 l 1281 225 q 1190 89 1244 135 q 1035 43 1136 43 l 829 43 l 829 458 l 1071 458 q 1118 438 1099 457 q 1138 390 1138 418 l 1138 369 l 1151 369 l 1151 589 l 1138 589 l 1138 569 q 1118 521 1138 540 q 1069 500 1099 501 l 829 500 l 829 929 l 1115 929 q 1171 904 1149 928 q 1193 847 1193 881 l 1193 822 l 1210 822 l 1210 997 q 1139 981 1190 989 q 1044 972 1088 972 l 826 972 q 715 982 783 972 q 557 992 647 992 q 374 955 467 992 q 218 853 282 918 q 119 693 154 788 q 83 486 83 599 q 219 119 83 258 q 575 -19 354 -19 q 689 -10 606 -19 q 828 0 772 0 m 575 950 q 693 934 642 950 q 744 883 744 918 l 744 89 q 717 51 744 68 q 575 22 665 22 q 291 150 399 22 q 183 486 183 278 q 291 822 183 694 q 575 950 399 950 "},"Ŕ":{"ha":906,"x_min":83,"x_max":1317,"o":"m 450 1061 q 672 1179 583 1128 q 615 1253 653 1215 q 440 1071 546 1185 l 450 1061 m 1317 -236 l 1317 -222 q 1283 -225 1300 -225 q 1121 -181 1203 -225 q 1028 -116 1081 -160 q 908 -4 976 -72 q 600 329 840 64 q 493 446 540 396 q 494 446 494 446 q 661 527 593 446 q 729 721 729 608 q 696 853 729 796 q 601 941 663 910 q 458 972 539 972 l 83 972 l 83 958 l 101 958 q 163 933 138 958 q 190 871 189 907 l 190 100 q 163 39 189 64 q 101 14 136 14 l 83 14 l 83 0 l 388 0 l 386 14 l 369 14 q 306 40 332 14 q 281 101 281 67 l 281 929 l 453 929 q 580 867 535 928 q 625 704 625 806 q 543 529 625 582 q 492 505 522 514 q 434 492 461 496 q 326 489 407 489 l 326 475 q 401 418 353 472 q 599 199 450 364 q 799 -25 747 35 q 915 -136 851 -85 q 985 -187 950 -167 q 1059 -224 1019 -208 q 1133 -246 1099 -240 q 1213 -251 1168 -251 q 1317 -236 1258 -251 "},"ŕ":{"ha":940,"x_min":83,"x_max":956,"o":"m 435 1061 q 658 1179 569 1128 q 601 1253 639 1215 q 425 1071 531 1185 l 435 1061 m 369 929 q 453 928 419 929 q 576 867 531 924 q 625 717 622 810 q 625 685 625 710 q 617 633 625 661 q 400 489 572 493 q 356 488 374 488 q 326 489 338 488 l 326 475 q 415 428 371 475 q 444 394 431 411 q 543 254 458 376 q 647 110 628 132 q 691 66 665 89 q 768 22 717 43 q 879 0 819 0 l 956 0 l 956 14 q 850 44 896 14 q 809 76 828 60 q 751 135 790 93 q 593 349 713 178 q 542 408 571 379 q 493 446 514 436 q 660 527 592 446 q 729 720 729 608 q 657 902 729 832 q 458 972 585 972 l 83 972 l 83 958 l 101 958 q 163 933 138 958 q 190 871 189 907 l 190 100 q 163 39 189 64 q 101 14 138 14 l 83 14 l 83 0 l 388 0 l 386 14 l 369 14 q 306 40 332 14 q 281 101 281 65 l 281 929 l 369 929 "},"Ŗ":{"ha":906,"x_min":83,"x_max":1317,"o":"m 1317 -236 l 1317 -222 q 1283 -225 1300 -225 q 1121 -181 1203 -225 q 1028 -116 1081 -160 q 908 -4 976 -72 q 600 329 840 64 q 493 446 540 396 q 494 446 494 446 q 661 527 593 446 q 729 722 729 608 q 655 903 729 835 q 458 972 581 972 l 83 972 l 83 958 l 101 958 q 163 933 138 958 q 190 871 189 907 l 190 100 q 163 39 189 64 q 101 14 136 14 l 83 14 l 83 0 l 388 0 l 386 14 l 369 14 q 306 40 332 14 q 281 101 281 67 l 281 929 l 453 929 q 580 867 535 928 q 625 704 625 806 q 543 529 625 582 q 492 505 522 514 q 434 492 461 496 q 326 489 407 489 l 326 475 q 401 418 353 472 q 599 199 450 364 q 799 -25 747 35 q 915 -136 851 -85 q 985 -187 950 -167 q 1059 -224 1019 -208 q 1133 -246 1099 -240 q 1213 -251 1168 -251 q 1317 -236 1258 -251 m 486 -93 q 485 -118 481 -106 q 490 -130 486 -124 q 496 -140 493 -136 q 504 -149 499 -143 q 513 -158 510 -156 q 518 -229 540 -192 q 475 -260 506 -250 l 478 -269 q 567 -217 535 -267 q 585 -160 585 -189 q 572 -101 585 -132 q 526 -69 560 -69 q 486 -93 497 -69 "},"ŗ":{"ha":940,"x_min":83,"x_max":956,"o":"m 369 929 q 453 928 419 929 q 576 867 531 924 q 625 717 622 810 q 625 685 625 710 q 617 633 625 661 q 400 489 572 493 q 356 488 374 488 q 326 489 338 488 l 326 475 q 415 428 371 475 q 444 394 431 411 q 543 254 458 376 q 647 110 628 132 q 691 66 665 89 q 768 22 717 43 q 879 0 819 0 l 956 0 l 956 14 q 869 33 910 14 q 833 56 851 42 q 800 84 815 69 q 749 138 785 99 q 593 349 713 178 q 542 408 571 379 q 493 446 514 436 q 660 527 592 446 q 729 720 729 608 q 657 902 729 832 q 458 972 585 972 l 83 972 l 83 958 l 101 958 q 163 933 138 958 q 190 871 189 907 l 190 100 q 163 39 189 64 q 101 14 138 14 l 83 14 l 83 0 l 388 0 l 386 14 l 369 14 q 306 40 332 14 q 281 101 281 65 l 281 929 l 369 929 m 489 -112 q 488 -137 483 -125 q 492 -149 488 -143 q 499 -159 496 -156 q 507 -169 501 -162 q 515 -178 513 -175 q 521 -249 543 -211 q 478 -279 508 -269 l 479 -289 q 569 -236 538 -286 q 588 -180 588 -208 q 574 -120 588 -151 q 529 -89 561 -89 q 489 -112 500 -89 "},"Ř":{"ha":906,"x_min":82,"x_max":1317,"o":"m 457 1061 l 604 1226 l 596 1238 l 450 1146 l 292 1238 l 283 1226 l 443 1061 l 457 1061 m 1317 -236 l 1317 -222 q 1283 -225 1300 -225 q 1121 -181 1203 -225 q 1028 -116 1081 -160 q 944 -40 976 -72 q 841 67 911 -7 q 656 268 771 142 q 493 446 542 394 q 494 446 494 446 q 661 527 593 446 q 729 722 729 608 q 655 903 729 835 q 458 972 581 972 l 83 972 l 83 958 l 101 958 q 163 933 138 958 q 190 871 189 907 l 190 100 q 163 39 189 64 q 101 14 136 14 l 83 14 l 83 0 l 388 0 l 386 14 l 369 14 q 306 40 332 14 q 281 101 281 67 l 281 929 l 453 929 q 580 867 535 928 q 625 704 625 806 q 543 529 625 582 q 492 505 522 514 q 434 492 461 496 q 326 489 407 489 l 326 475 q 401 418 353 472 q 599 199 450 364 q 804 -31 747 35 q 938 -154 861 -96 q 1022 -208 979 -187 q 1109 -240 1064 -228 q 1206 -251 1154 -251 q 1317 -236 1257 -251 "},"ř":{"ha":940,"x_min":82,"x_max":956,"o":"m 442 1061 l 589 1226 l 581 1238 l 436 1146 l 278 1238 l 269 1226 l 428 1061 l 442 1061 m 369 929 q 453 928 419 929 q 576 867 531 924 q 625 717 622 810 q 625 685 625 710 q 617 633 625 661 q 400 489 572 493 q 356 488 374 488 q 326 489 338 488 l 326 475 q 415 428 371 475 q 444 394 431 411 q 543 254 458 376 q 647 110 628 132 q 691 66 665 89 q 768 22 717 43 q 879 0 819 0 l 956 0 l 956 14 q 856 40 899 14 q 763 122 814 67 q 593 349 713 178 q 542 408 571 379 q 493 446 514 436 q 660 527 592 446 q 729 720 729 608 q 657 902 729 832 q 458 972 585 972 l 83 972 l 83 958 l 101 958 q 163 933 138 958 q 190 871 189 907 l 190 100 q 163 39 189 64 q 101 14 138 14 l 83 14 l 83 0 l 386 0 l 386 14 l 369 14 q 306 40 332 14 q 281 101 281 65 l 281 929 l 369 929 "},"Ś":{"ha":763,"x_min":57,"x_max":714,"o":"m 392 1061 q 615 1179 526 1128 q 558 1253 596 1215 q 382 1071 489 1185 l 392 1061 m 165 369 l 153 379 q 78 260 97 319 q 58 167 58 201 q 63 111 58 133 q 219 -97 89 -36 q 378 -131 289 -131 q 611 -51 524 -131 q 713 168 713 40 q 560 460 713 339 l 303 663 q 242 784 242 711 q 289 903 242 857 q 406 950 336 950 q 523 912 476 950 q 571 807 569 874 l 585 807 l 582 978 l 526 978 q 406 992 461 992 q 229 922 294 992 q 164 751 164 851 q 246 585 164 650 l 496 388 q 588 278 560 338 q 617 167 617 218 q 615 147 617 157 q 489 -49 601 10 q 348 -81 429 -81 q 203 -37 267 -81 q 93 165 93 35 q 165 369 93 275 "},"ś":{"ha":661,"x_min":79,"x_max":581,"o":"m 343 1061 q 567 1179 478 1128 q 510 1253 547 1215 q 333 1071 439 1185 l 343 1061 m 85 57 q 191 -1 122 18 q 321 -19 260 -19 q 510 52 439 -19 q 581 235 581 124 q 511 410 581 346 l 238 663 q 182 785 182 714 q 230 903 182 856 q 349 950 278 950 q 465 911 419 950 q 510 807 510 872 l 522 807 l 522 978 l 468 978 q 349 992 401 992 q 170 922 236 992 q 104 753 104 851 q 179 585 104 654 l 446 338 q 500 208 500 288 q 444 75 500 128 q 300 22 388 22 q 164 78 215 22 q 113 219 113 135 q 114 250 113 235 l 101 250 q 81 132 81 188 q 85 57 81 76 "},"Ş":{"ha":763,"x_min":57,"x_max":714,"o":"m 165 369 l 153 379 q 78 260 99 319 q 58 168 58 201 q 61 114 58 135 q 213 -94 86 -31 q 367 -131 281 -128 l 301 -215 l 308 -229 q 354 -218 331 -218 q 425 -279 425 -218 q 388 -342 425 -321 q 300 -364 350 -364 l 299 -378 q 363 -387 329 -387 q 433 -371 397 -387 q 494 -281 494 -342 q 474 -216 494 -244 q 394 -187 453 -187 q 349 -196 371 -187 l 406 -129 q 622 -42 542 -121 q 713 167 713 49 q 560 460 713 339 l 303 663 q 242 784 242 711 q 289 903 242 857 q 406 950 336 950 q 523 912 476 950 q 571 807 569 874 l 585 807 l 582 978 l 526 978 q 406 992 461 992 q 229 922 294 992 q 164 750 164 851 q 246 585 164 649 l 496 388 q 588 278 560 338 q 617 167 617 218 q 615 147 617 157 q 489 -49 601 10 q 348 -81 429 -81 q 203 -37 267 -81 q 93 165 93 35 q 165 369 93 275 "},"ş":{"ha":661,"x_min":79,"x_max":581,"o":"m 85 57 q 184 2 121 21 q 308 -19 247 -17 l 244 -103 l 251 -117 q 297 -106 275 -106 q 368 -167 368 -106 q 331 -231 368 -210 q 243 -251 293 -251 l 242 -265 q 307 -275 272 -275 q 376 -258 342 -275 q 438 -168 438 -229 q 417 -103 438 -132 q 338 -75 396 -75 q 292 -83 314 -75 l 347 -18 q 517 60 454 -10 q 581 238 581 131 q 511 410 581 346 l 238 663 q 182 785 182 714 q 230 903 182 856 q 349 950 278 950 q 465 911 419 950 q 510 807 510 872 l 522 807 l 522 978 l 468 978 q 349 992 401 992 q 170 922 236 992 q 104 753 104 851 q 179 585 104 654 l 446 338 q 500 208 500 288 q 444 75 500 128 q 300 22 388 22 q 164 78 215 22 q 113 219 113 135 q 114 250 113 235 l 101 250 q 81 132 81 188 q 85 57 81 76 "},"Š":{"ha":763,"x_min":57,"x_max":714,"o":"m 399 1061 l 547 1226 l 539 1238 l 393 1146 l 235 1238 l 226 1226 l 385 1061 l 399 1061 m 165 369 l 153 379 q 78 260 97 319 q 58 167 58 201 q 63 111 58 133 q 219 -97 89 -36 q 378 -131 289 -131 q 611 -51 524 -131 q 713 168 713 40 q 560 460 713 339 l 303 663 q 242 784 242 711 q 289 903 242 857 q 406 950 336 950 q 523 912 476 950 q 571 807 569 874 l 585 807 l 582 978 l 526 978 q 406 992 461 992 q 229 922 294 992 q 164 750 164 851 q 246 585 164 649 l 496 388 q 588 278 560 338 q 617 167 617 218 q 615 147 617 157 q 489 -49 601 10 q 348 -81 429 -81 q 203 -37 267 -81 q 93 165 93 35 q 165 369 93 275 "},"š":{"ha":661,"x_min":79,"x_max":581,"o":"m 350 1061 l 497 1226 l 489 1238 l 344 1146 l 186 1238 l 178 1226 l 336 1061 l 350 1061 m 85 57 q 190 -1 122 18 q 321 -19 258 -19 q 510 52 439 -19 q 581 235 581 124 q 511 410 581 346 l 238 663 q 182 785 182 714 q 230 903 182 856 q 349 950 278 950 q 465 911 419 950 q 508 807 510 872 l 522 807 l 522 978 l 467 978 q 349 992 401 992 q 170 922 236 992 q 104 753 104 851 q 179 585 104 654 l 446 338 q 500 208 500 288 q 444 75 500 128 q 300 22 388 22 q 164 78 215 22 q 113 219 113 135 q 114 250 113 235 l 101 250 q 81 132 81 188 q 85 57 81 76 "},"Ţ":{"ha":858,"x_min":-125,"x_max":832,"o":"m -82 696 l -71 703 q -93 785 -93 746 q -67 861 -93 825 q 94 932 -17 932 l 385 932 l 385 99 q 358 39 383 64 q 296 14 332 14 l 278 14 l 278 0 l 414 0 l 349 -86 l 356 -100 q 401 -89 378 -89 q 472 -150 472 -89 q 435 -214 472 -193 q 347 -235 397 -235 l 346 -249 q 410 -258 376 -258 q 481 -242 444 -258 q 542 -151 542 -212 q 521 -87 542 -115 q 442 -58 500 -58 q 396 -67 418 -58 l 453 0 l 582 0 l 582 14 l 564 14 q 502 39 528 14 q 475 100 476 64 l 475 932 l 739 932 q 794 906 771 931 q 818 849 818 882 l 818 825 l 832 824 l 832 999 q 772 983 818 993 q 664 974 725 974 l 94 974 q -25 948 28 974 q -101 885 -78 922 q -125 798 -125 849 q -82 696 -125 747 "},"ţ":{"ha":858,"x_min":28,"x_max":832,"o":"m 474 -150 q 437 -214 474 -193 q 349 -235 400 -235 l 349 -249 q 413 -258 379 -258 q 483 -242 447 -258 q 543 -146 543 -212 q 476 -61 543 -79 q 397 -67 440 -51 l 454 0 l 582 0 l 582 14 l 564 14 q 502 39 528 14 q 475 100 476 64 l 475 932 l 739 932 q 794 906 771 931 q 818 849 818 882 l 818 825 l 832 824 l 832 999 q 759 982 811 990 q 664 974 707 974 l 194 974 q 100 982 151 974 q 28 999 49 990 l 28 824 l 42 825 l 42 849 q 53 890 42 871 q 121 932 75 931 l 385 932 l 385 99 q 358 39 383 64 q 296 14 332 14 l 278 14 l 278 0 l 417 0 l 351 -86 l 358 -100 q 404 -89 381 -89 q 474 -150 474 -89 "},"Ť":{"ha":858,"x_min":-125,"x_max":832,"o":"m 436 972 l 583 1138 l 575 1149 l 429 1057 l 272 1149 l 264 1138 l 422 972 l 436 972 m -82 696 l -71 703 q -92 786 -92 747 q -28 899 -92 857 q 94 932 22 932 l 385 932 l 385 99 q 358 39 383 64 q 296 14 332 14 l 278 14 l 278 0 l 582 0 l 582 14 l 564 14 q 502 39 528 14 q 475 100 476 64 l 475 932 l 739 932 q 794 906 771 931 q 818 849 818 882 l 818 825 l 832 824 l 832 999 q 772 983 818 993 q 664 974 725 974 l 94 974 q -25 948 28 974 q -101 885 -78 922 q -125 798 -125 849 q -82 696 -125 747 "},"ť":{"ha":858,"x_min":28,"x_max":832,"o":"m 436 1061 l 583 1226 l 575 1238 l 429 1146 l 272 1238 l 264 1226 l 422 1061 l 436 1061 m 818 849 l 818 825 l 832 824 l 832 999 q 759 982 811 990 q 664 974 707 974 l 194 974 q 100 982 151 974 q 28 999 49 990 l 28 824 l 42 825 l 42 849 q 65 906 42 882 q 121 932 88 931 l 385 932 l 385 99 q 358 39 383 64 q 296 14 332 14 l 278 14 l 278 0 l 582 0 l 582 14 l 564 14 q 502 39 528 14 q 475 100 476 64 l 475 932 l 739 932 q 794 906 771 931 q 818 849 818 882 "},"Ŧ":{"ha":858,"x_min":-125,"x_max":832,"o":"m -82 696 l -71 703 q -93 785 -93 746 q -67 861 -93 825 q 94 932 -17 932 l 385 932 l 385 536 l 161 536 l 161 494 l 385 494 l 385 99 q 358 39 383 64 q 296 14 332 14 l 278 14 l 278 0 l 582 0 l 582 14 l 564 14 q 519 25 540 14 q 475 100 476 50 l 475 494 l 700 494 l 700 536 l 475 536 l 475 932 l 739 932 q 778 919 760 931 q 818 849 818 896 l 818 825 l 832 824 l 832 999 q 759 982 811 990 q 664 974 707 974 l 94 974 q -25 948 28 974 q -101 885 -78 922 q -125 798 -125 849 q -82 696 -125 747 "},"ŧ":{"ha":858,"x_min":28,"x_max":832,"o":"m 818 849 l 818 825 l 832 824 l 832 999 q 759 982 811 990 q 664 974 707 974 l 194 974 q 100 982 151 974 q 28 999 49 990 l 28 824 l 42 825 l 42 849 q 65 906 42 882 q 121 932 88 931 l 385 932 l 385 557 l 161 557 l 161 515 l 385 515 l 385 99 q 358 39 383 64 q 296 14 332 14 l 278 14 l 278 0 l 582 0 l 582 14 l 564 14 q 502 39 528 14 q 475 100 476 64 l 475 515 l 700 515 l 700 557 l 475 557 l 475 932 l 739 932 q 778 919 760 931 q 818 849 818 896 "},"Ū":{"ha":1088,"x_min":68,"x_max":1256,"o":"m 1232 1211 q 963 1110 1067 1211 q 860 804 860 1008 l 860 343 q 775 113 860 200 q 550 25 690 25 q 337 117 418 25 q 256 361 256 210 l 256 892 q 278 940 257 921 q 329 958 299 958 l 351 958 l 351 972 l 69 972 l 69 958 l 92 958 q 129 950 113 958 q 165 890 165 931 l 165 342 q 272 80 165 179 q 549 -19 378 -19 q 822 81 719 -19 q 925 343 925 181 l 925 806 q 1014 1097 925 996 q 1256 1197 1103 1197 l 1256 1211 q 1232 1211 1243 1211 m 415 1104 l 763 1104 l 763 1153 l 415 1153 l 415 1104 "},"ū":{"ha":1090,"x_min":68,"x_max":1022,"o":"m 388 1104 l 735 1104 l 735 1153 l 388 1153 l 388 1104 m 1021 958 l 1021 972 l 764 972 l 764 958 l 786 958 q 838 940 817 958 q 860 892 858 921 l 860 343 q 775 112 860 200 q 554 24 690 24 q 337 117 418 24 q 256 361 256 210 l 256 892 q 278 940 257 921 q 329 958 299 958 l 351 958 l 351 972 l 69 972 l 69 958 l 92 958 q 129 950 113 958 q 165 889 165 931 l 165 342 q 272 80 165 179 q 549 -19 378 -19 q 822 81 719 -19 q 925 343 925 181 l 925 893 q 948 940 926 921 q 999 958 969 958 l 1021 958 "},"Ů":{"ha":1088,"x_min":69,"x_max":1256,"o":"m 473 1219 q 456 1158 456 1196 q 493 1091 456 1121 q 576 1061 531 1061 q 653 1075 622 1061 q 717 1165 717 1104 q 680 1242 717 1214 q 596 1269 643 1269 q 519 1256 549 1269 q 482 1231 490 1243 q 473 1219 473 1219 m 635 1224 q 654 1165 654 1203 q 635 1107 654 1128 q 585 1086 615 1086 q 537 1107 556 1086 q 518 1165 518 1128 q 537 1224 518 1203 q 585 1246 556 1246 q 625 1235 615 1246 q 635 1224 635 1224 m 1232 1211 q 963 1110 1067 1211 q 860 804 860 1008 l 860 343 q 775 112 860 200 q 554 24 690 24 q 337 117 418 24 q 256 361 256 210 l 256 892 q 267 926 257 911 q 329 958 288 958 l 351 958 l 351 972 l 69 972 l 69 958 l 92 958 q 144 939 122 958 q 165 889 165 919 l 165 342 q 272 80 165 179 q 549 -19 378 -19 q 822 81 719 -19 q 925 343 925 181 l 925 806 q 1014 1097 925 996 q 1256 1197 1103 1197 l 1256 1211 q 1232 1211 1243 1211 "},"ů":{"ha":1090,"x_min":68,"x_max":1022,"o":"m 445 1219 q 428 1158 428 1196 q 465 1091 428 1121 q 549 1061 503 1061 q 625 1075 594 1061 q 689 1165 689 1104 q 652 1242 689 1214 q 568 1269 615 1269 q 492 1256 521 1269 q 454 1231 463 1243 q 445 1219 445 1219 m 607 1224 q 626 1165 626 1203 q 607 1107 626 1128 q 558 1086 588 1086 q 509 1107 528 1086 q 490 1165 490 1128 q 509 1224 490 1203 q 558 1246 528 1246 q 597 1235 588 1246 q 607 1224 607 1224 m 1021 958 l 1021 972 l 764 972 l 764 958 l 786 958 q 838 940 817 958 q 860 892 858 921 l 860 343 q 775 112 860 200 q 554 24 690 24 q 337 117 418 24 q 256 361 256 210 l 256 892 q 278 940 257 921 q 329 958 299 958 l 351 958 l 351 972 l 69 972 l 69 958 l 92 958 q 144 939 122 958 q 165 889 165 919 l 165 342 q 272 80 165 179 q 549 -19 378 -19 q 822 81 719 -19 q 925 343 925 181 l 925 893 q 948 940 926 921 q 999 958 969 958 l 1021 958 "},"Ű":{"ha":1088,"x_min":69,"x_max":1257,"o":"m 507 1067 q 668 1235 593 1151 q 585 1251 635 1249 q 492 1069 533 1161 l 507 1067 m 676 1067 q 839 1235 744 1129 q 754 1251 794 1251 q 661 1069 703 1171 l 676 1067 m 1232 1211 q 963 1110 1067 1211 q 860 804 860 1008 l 860 343 q 775 113 860 200 q 554 25 690 25 q 337 117 418 25 q 256 361 256 210 l 256 892 q 267 926 257 911 q 329 958 288 958 l 351 958 l 351 972 l 69 972 l 69 958 l 92 958 q 144 939 122 958 q 165 890 165 919 l 165 342 q 272 80 165 179 q 549 -19 378 -19 q 822 81 719 -19 q 925 343 925 181 l 925 806 q 1014 1097 925 996 q 1256 1197 1103 1197 l 1256 1211 q 1232 1211 1243 1211 "},"ű":{"ha":1090,"x_min":69,"x_max":1022,"o":"m 479 1067 q 640 1235 565 1151 q 557 1251 607 1249 q 464 1069 506 1161 l 479 1067 m 649 1067 q 811 1235 717 1129 q 726 1251 767 1251 q 633 1069 675 1171 l 649 1067 m 1021 958 l 1021 972 l 764 972 l 764 958 l 788 958 q 838 940 817 958 q 860 892 858 921 l 860 343 q 775 112 860 200 q 554 24 690 24 q 337 117 418 24 q 256 361 256 210 l 256 892 q 267 926 257 911 q 329 958 288 958 l 351 958 l 351 972 l 69 972 l 69 958 l 92 958 q 144 939 122 958 q 165 890 165 919 l 165 342 q 272 80 165 179 q 549 -19 378 -19 q 822 81 719 -19 q 925 343 925 181 l 925 893 q 948 940 926 921 q 999 958 969 958 l 1021 958 "},"Ų":{"ha":1088,"x_min":68,"x_max":1256,"o":"m 517 -118 q 614 -15 517 -42 q 841 101 757 4 q 925 343 925 197 l 925 806 q 1014 1097 925 996 q 1256 1197 1103 1197 l 1256 1211 q 1232 1211 1243 1211 q 963 1110 1067 1211 q 860 804 860 1008 l 860 343 q 775 113 860 200 q 550 25 690 25 q 337 117 418 25 q 256 361 256 210 l 256 892 q 278 940 257 921 q 329 958 299 958 l 351 958 l 351 972 l 69 972 l 69 958 l 92 958 q 129 950 113 958 q 165 890 165 931 l 165 342 q 270 81 165 179 q 547 -19 375 -18 q 478 -66 504 -35 q 453 -140 453 -97 q 474 -215 453 -183 q 526 -258 496 -247 q 653 -243 599 -282 q 694 -189 682 -222 l 686 -181 q 613 -215 653 -215 q 544 -187 572 -215 q 517 -118 517 -160 "},"ų":{"ha":1090,"x_min":68,"x_max":1022,"o":"m 517 -118 q 614 -15 517 -42 q 841 101 757 4 q 925 343 925 197 l 925 893 q 948 940 926 921 q 999 958 969 958 l 1021 958 l 1021 972 l 764 972 l 764 958 l 786 958 q 838 940 817 958 q 860 892 858 921 l 860 343 q 775 112 860 200 q 554 24 690 24 q 337 117 418 24 q 256 361 256 210 l 256 892 q 278 940 257 921 q 329 958 299 958 l 351 958 l 351 972 l 69 972 l 69 958 l 92 958 q 129 950 113 958 q 165 889 165 931 l 165 342 q 270 81 165 179 q 547 -19 375 -18 q 478 -66 504 -35 q 453 -140 453 -97 q 474 -215 453 -183 q 524 -257 496 -247 q 587 -267 553 -267 q 653 -243 621 -267 q 694 -189 682 -222 l 686 -181 q 613 -215 653 -215 q 544 -187 572 -215 q 517 -118 517 -160 "},"Ŵ":{"ha":1325,"x_min":-14,"x_max":1674,"o":"m 1654 1311 q 1301 1129 1440 1311 q 1190 911 1226 1032 l 985 224 l 710 993 l 697 994 l 439 197 l 228 874 q 224 904 224 888 q 238 940 224 921 q 282 958 253 958 l 294 958 l 294 972 l -14 972 l -14 958 l -3 958 q 68 937 33 958 q 119 874 103 915 l 400 81 q 261 -139 351 -51 q 172 -199 217 -182 q 99 -215 126 -215 q 51 -211 72 -215 l 49 -225 q 122 -233 88 -233 q 303 -168 222 -233 q 464 76 414 -81 l 688 776 l 971 -17 l 983 -17 q 1014 138 986 50 l 1281 911 q 1375 1108 1319 1022 q 1450 1201 1410 1163 q 1549 1267 1490 1239 q 1672 1297 1607 1294 l 1672 1311 q 1654 1311 1664 1311 m 697 1236 l 550 1071 l 558 1060 l 703 1151 l 861 1060 l 869 1071 l 711 1236 l 697 1236 "},"ŵ":{"ha":1364,"x_min":-14,"x_max":1379,"o":"m 697 1250 l 550 1085 l 558 1074 l 703 1165 l 861 1074 l 869 1085 l 711 1250 l 697 1250 m 1378 958 l 1378 972 l 1104 972 l 1104 958 l 1117 958 q 1160 940 1146 958 q 1174 906 1174 922 q 1169 875 1174 890 l 983 225 l 710 993 l 697 994 l 439 197 l 228 874 q 224 904 224 888 q 238 940 224 921 q 282 958 253 958 l 294 958 l 294 972 l -14 972 l -14 958 l -3 958 q 68 937 33 958 q 119 874 103 915 l 435 -17 l 447 -17 q 476 138 450 51 l 688 778 l 971 -17 l 983 -17 q 1014 138 986 50 l 1244 872 q 1295 937 1260 915 q 1367 958 1331 958 l 1378 958 "},"Ŷ":{"ha":858,"x_min":-56,"x_max":915,"o":"m 453 1236 l 306 1071 l 314 1060 l 458 1151 l 617 1060 l 625 1071 l 467 1236 l 453 1236 m -56 1051 l -56 1038 q 111 958 26 1038 q 257 765 196 879 q 357 525 318 650 q 396 307 396 400 l 396 100 q 368 39 394 64 q 307 14 342 14 l 289 14 l 289 0 l 593 0 l 592 14 l 575 14 q 512 40 538 14 q 486 101 486 67 l 486 306 q 523 517 486 393 q 617 758 560 642 q 756 956 675 874 q 915 1038 838 1038 l 915 1051 q 763 1014 838 1051 q 701 969 732 999 q 647 915 669 940 q 601 848 625 890 q 561 778 576 806 q 526 701 546 750 q 495 626 506 653 q 472 566 485 600 q 456 522 460 532 q 446 547 451 533 q 428 598 444 553 q 388 703 413 643 q 352 779 368 750 q 310 850 336 808 q 260 917 285 892 q 199 973 235 943 q 127 1019 164 1003 q 47 1043 90 1035 q -21 1051 4 1051 q -56 1051 -46 1051 "},"ŷ":{"ha":918,"x_min":-14,"x_max":933,"o":"m 469 1236 l 322 1071 l 331 1060 l 476 1151 l 633 1060 l 642 1071 l 483 1236 l 469 1236 m 933 958 l 933 972 l 625 972 l 625 958 l 642 958 q 689 931 672 958 q 699 901 699 915 q 692 874 699 888 l 469 483 l 261 872 q 254 901 254 886 q 263 931 254 915 q 310 958 279 958 l 328 958 l 328 972 l -14 972 l -14 958 l 6 958 q 85 935 47 958 q 144 878 124 911 l 410 435 l 410 100 q 383 39 408 64 q 321 14 357 14 l 303 14 l 303 0 l 607 0 l 606 14 l 589 14 q 526 40 551 14 q 500 101 500 65 l 500 433 l 774 878 q 835 935 799 913 q 914 958 872 958 l 933 958 "},"Ÿ":{"ha":858,"x_min":-56,"x_max":915,"o":"m 367 1077 q 383 1115 383 1093 q 367 1153 383 1138 q 329 1169 351 1169 q 291 1153 307 1169 q 275 1115 275 1138 q 291 1077 275 1093 q 329 1061 307 1061 q 359 1069 351 1061 q 367 1077 367 1077 m 628 1077 q 644 1115 644 1093 q 628 1153 644 1138 q 590 1169 613 1169 q 552 1153 568 1169 q 536 1115 536 1138 q 552 1077 536 1093 q 590 1061 568 1061 q 620 1069 613 1061 q 628 1077 628 1077 m -56 1051 l -56 1038 q 111 958 26 1038 q 257 765 196 879 q 357 525 318 650 q 396 307 396 400 l 396 100 q 368 39 394 64 q 307 14 342 14 l 289 14 l 289 0 l 592 0 l 592 14 l 575 14 q 529 26 550 14 q 486 101 486 51 l 486 306 q 523 517 486 393 q 617 758 560 642 q 756 956 675 874 q 915 1038 838 1038 l 915 1051 q 726 992 815 1051 q 654 921 690 967 q 595 840 618 875 q 544 743 572 804 q 503 649 517 682 q 475 574 490 615 q 456 522 460 532 q 449 542 453 531 q 444 551 446 547 q 428 599 443 556 q 388 703 413 643 q 352 779 368 750 q 310 850 336 808 q 260 917 285 892 q 199 973 235 943 q 127 1019 164 1003 q 47 1043 90 1035 q -21 1051 4 1051 q -56 1051 -46 1051 "},"Ź":{"ha":883,"x_min":82,"x_max":1385,"o":"m 450 1061 q 674 1179 583 1128 q 617 1253 654 1215 q 440 1071 546 1185 l 450 1061 m 1383 -124 l 1376 -112 q 1051 -182 1228 -182 q 347 -26 822 -182 q 199 21 211 18 l 806 979 l 806 992 q 763 981 799 989 q 658 974 726 974 l 271 974 q 249 974 269 974 q 176 982 229 974 q 103 999 124 990 l 103 824 l 117 824 l 117 849 q 128 890 117 871 q 199 932 151 931 l 667 932 l 83 13 l 83 0 l 100 0 q 385 -99 171 -4 q 696 -215 499 -149 q 1036 -274 869 -274 q 1383 -124 1254 -274 "},"ź":{"ha":904,"x_min":82,"x_max":857,"o":"m 450 1061 q 674 1179 583 1128 q 617 1253 654 1215 q 440 1071 546 1185 l 450 1061 m 117 849 q 140 907 117 883 q 199 932 164 931 l 667 932 l 83 13 l 83 0 l 811 0 l 857 214 l 843 214 q 774 89 822 136 q 653 42 726 42 l 211 42 l 806 979 l 806 992 q 757 981 797 988 q 658 974 717 974 l 271 974 q 249 974 269 974 q 176 982 229 974 q 103 999 124 990 l 103 824 l 117 824 l 117 849 "},"Ż":{"ha":883,"x_min":82,"x_max":1385,"o":"m 490 1080 q 508 1122 508 1097 q 490 1165 508 1147 q 448 1182 472 1182 q 406 1165 424 1182 q 389 1122 389 1147 q 406 1080 389 1097 q 448 1063 424 1063 q 481 1071 472 1063 q 490 1080 490 1080 m 1383 -124 l 1376 -112 q 1051 -182 1228 -182 q 347 -26 822 -182 q 199 21 211 18 l 806 979 l 806 992 q 757 981 797 988 q 658 974 717 974 l 271 974 q 249 974 269 974 q 176 982 229 974 q 103 999 124 990 l 103 824 l 117 824 l 117 849 q 128 890 117 871 q 199 932 151 931 l 667 932 l 83 13 l 83 0 l 100 0 q 385 -99 171 -4 q 696 -215 499 -149 q 1036 -274 869 -274 q 1383 -124 1254 -274 "},"ż":{"ha":904,"x_min":82,"x_max":857,"o":"m 490 1080 q 508 1122 508 1097 q 490 1165 508 1147 q 448 1182 472 1182 q 406 1165 424 1182 q 389 1122 389 1147 q 406 1080 389 1097 q 448 1063 424 1063 q 481 1071 472 1063 q 490 1080 490 1080 m 117 849 q 140 907 117 883 q 199 932 164 931 l 667 932 l 83 13 l 83 0 l 811 0 l 857 214 l 843 214 q 774 89 822 136 q 653 42 726 42 l 211 42 l 806 979 l 806 992 q 763 981 799 989 q 658 974 726 974 l 271 974 q 249 974 269 974 q 176 982 229 974 q 103 999 124 990 l 103 824 l 117 824 l 117 849 "},"Ž":{"ha":883,"x_min":82,"x_max":1385,"o":"m 457 1061 l 604 1226 l 596 1238 l 450 1146 l 293 1238 l 285 1226 l 443 1061 l 457 1061 m 1040 -275 q 1223 -240 1132 -275 q 1383 -124 1314 -204 l 1376 -112 q 1051 -182 1228 -182 q 347 -26 822 -182 q 199 21 211 18 l 806 979 l 806 992 q 763 981 799 989 q 658 974 726 974 l 271 974 q 249 974 269 974 q 176 982 229 974 q 103 999 124 990 l 103 824 l 117 824 l 117 849 q 140 907 117 883 q 199 932 164 931 l 667 932 l 83 13 l 83 0 l 100 0 q 390 -100 164 -4 q 589 -179 481 -137 q 1040 -275 838 -275 "},"ž":{"ha":904,"x_min":82,"x_max":857,"o":"m 457 1061 l 604 1226 l 596 1238 l 450 1146 l 293 1238 l 285 1226 l 443 1061 l 457 1061 m 117 849 q 140 907 117 883 q 199 932 164 931 l 667 932 l 83 13 l 83 0 l 811 0 l 857 214 l 843 214 q 774 89 822 136 q 653 42 726 42 l 211 42 l 806 979 l 806 992 q 757 981 797 988 q 658 974 717 974 l 271 974 q 249 974 269 974 q 176 982 229 974 q 103 999 124 990 l 103 824 l 117 824 l 117 849 "},"ƒ":{"ha":685,"x_min":28,"x_max":603,"o":"m 588 719 l 588 699 l 601 697 l 601 856 q 540 840 583 847 q 458 833 496 833 l 76 833 l 76 819 l 94 819 q 124 814 110 819 q 168 747 167 796 l 168 0 q 128 -145 168 -78 q 28 -233 88 -212 l 28 -247 q 189 -174 121 -247 q 257 0 257 -100 l 257 396 l 476 396 q 515 378 501 394 q 528 338 528 361 l 528 319 l 542 319 l 542 514 l 528 514 l 528 496 q 514 454 528 471 q 474 438 500 438 l 257 438 l 257 790 l 519 790 q 569 770 550 790 q 588 719 588 750 "},"Ș":{"ha":763,"x_min":57,"x_max":714,"o":"m 165 369 l 153 379 q 78 260 97 319 q 58 167 58 201 q 63 111 58 133 q 219 -97 89 -36 q 378 -131 289 -131 q 611 -51 524 -131 q 713 168 713 40 q 560 460 713 339 l 303 663 q 242 784 242 711 q 289 903 242 857 q 406 950 336 950 q 523 912 476 950 q 571 807 569 874 l 585 807 l 582 978 l 526 978 q 406 992 461 992 q 229 922 294 992 q 164 750 164 851 q 246 585 164 649 l 496 388 q 588 278 560 338 q 617 167 617 218 q 615 147 617 157 q 489 -49 601 10 q 348 -81 429 -81 q 203 -37 267 -81 q 93 165 93 35 q 165 369 93 275 m 350 -218 q 347 -243 344 -231 q 353 -255 349 -249 q 360 -265 357 -261 q 368 -274 363 -268 q 376 -283 374 -281 q 383 -353 406 -314 q 340 -385 372 -375 l 343 -394 q 432 -340 400 -392 q 450 -284 450 -312 q 436 -224 450 -256 q 390 -193 422 -193 q 350 -218 360 -193 "},"ș":{"ha":661,"x_min":79,"x_max":581,"o":"m 85 57 q 191 -1 122 18 q 321 -19 260 -19 q 510 52 439 -19 q 581 235 581 124 q 511 410 581 346 l 238 663 q 182 785 182 714 q 230 903 182 856 q 349 950 278 950 q 465 911 419 950 q 510 807 510 872 l 522 807 l 522 978 l 468 978 q 349 992 401 992 q 170 922 236 992 q 104 753 104 851 q 179 585 104 654 l 446 338 q 500 208 500 288 q 444 75 500 128 q 300 22 388 22 q 164 78 215 22 q 113 219 113 135 q 114 250 113 235 l 101 250 q 81 132 81 188 q 85 57 81 76 m 299 -112 q 296 -137 293 -125 q 301 -149 297 -143 q 308 -159 306 -156 q 317 -169 311 -162 q 324 -178 322 -175 q 329 -249 351 -211 q 286 -279 318 -269 l 289 -289 q 379 -236 346 -286 q 397 -180 397 -208 q 384 -120 397 -151 q 339 -89 371 -89 q 299 -112 310 -89 "},"Ț":{"ha":858,"x_min":-125,"x_max":832,"o":"m -82 696 l -71 703 q -93 785 -93 746 q -67 861 -93 825 q 94 932 -17 932 l 385 932 l 385 99 q 358 39 383 64 q 296 14 332 14 l 278 14 l 278 0 l 582 0 l 582 14 l 564 14 q 502 39 528 14 q 475 100 476 64 l 475 932 l 739 932 q 794 906 771 931 q 818 849 818 882 l 818 825 l 832 824 l 832 999 q 772 983 818 993 q 664 974 725 974 l 94 974 q -25 948 28 974 q -101 885 -78 922 q -125 798 -125 849 q -82 696 -125 747 m 431 -87 q 390 -111 399 -87 q 389 -136 385 -124 q 394 -148 390 -142 q 401 -158 397 -154 q 410 -167 404 -161 q 417 -176 415 -174 q 424 -247 446 -210 q 381 -278 413 -268 l 383 -287 q 472 -235 440 -285 q 490 -178 490 -207 q 476 -119 490 -150 q 447 -87 463 -87 q 431 -87 431 -87 "},"ț":{"ha":858,"x_min":28,"x_max":832,"o":"m 818 849 l 818 825 l 832 824 l 832 999 q 777 984 822 994 q 664 974 732 974 l 194 974 q 100 982 151 974 q 28 999 49 990 l 28 824 l 42 825 l 42 849 q 65 906 42 882 q 121 932 88 931 l 385 932 l 385 99 q 358 39 383 64 q 296 14 332 14 l 278 14 l 278 0 l 582 0 l 582 14 l 564 14 q 502 39 528 14 q 475 100 476 64 l 475 932 l 739 932 q 794 906 771 931 q 818 849 818 882 m 392 -112 q 389 -137 386 -125 q 394 -149 390 -143 q 401 -159 399 -156 q 410 -169 404 -162 q 417 -178 415 -175 q 422 -249 444 -211 q 379 -279 411 -269 l 382 -289 q 472 -236 439 -286 q 490 -180 490 -208 q 477 -120 490 -151 q 432 -89 464 -89 q 392 -112 403 -89 "},"ˆ":{"ha":833,"x_min":229,"x_max":551,"o":"m 378 1189 l 231 1024 l 239 1013 l 383 1104 l 542 1013 l 550 1024 l 392 1189 l 378 1189 "},"ˇ":{"ha":833,"x_min":229,"x_max":551,"o":"m 403 1013 l 550 1178 l 542 1189 l 396 1097 l 239 1189 l 231 1178 l 389 1013 l 403 1013 "},"˘":{"ha":611,"x_min":163,"x_max":450,"o":"m 449 1186 l 435 1186 q 388 1133 424 1156 q 306 1111 351 1111 q 224 1133 260 1111 q 176 1186 188 1156 l 163 1186 q 205 1085 163 1128 q 296 1042 247 1042 q 377 1061 344 1042 q 429 1114 410 1081 q 449 1186 449 1147 "},"˙":{"ha":833,"x_min":357,"x_max":478,"o":"m 460 991 q 478 1033 478 1008 q 460 1076 478 1058 q 418 1093 443 1093 q 376 1076 393 1093 q 358 1033 358 1058 q 376 991 358 1008 q 418 974 393 974 q 452 982 443 974 q 460 991 460 991 "},"˚":{"ha":833,"x_min":288,"x_max":550,"o":"m 306 1129 q 289 1068 289 1106 q 326 1001 289 1031 q 419 971 363 971 q 512 1000 475 971 q 549 1075 549 1029 q 512 1151 549 1124 q 428 1179 475 1179 q 352 1166 382 1179 q 314 1141 322 1153 q 306 1129 306 1129 m 467 1134 q 486 1075 486 1113 q 467 1016 486 1038 q 419 994 449 994 q 369 1016 389 994 q 350 1075 350 1038 q 369 1134 350 1113 q 419 1156 389 1156 q 458 1145 449 1156 q 467 1134 467 1134 "},"˛":{"ha":833,"x_min":357,"x_max":600,"o":"m 421 -86 q 525 18 421 -7 l 511 22 q 402 -14 447 22 q 357 -101 357 -50 q 378 -183 357 -151 q 428 -225 400 -215 q 491 -235 457 -235 q 558 -211 525 -235 q 599 -157 586 -190 l 590 -149 q 517 -183 557 -183 q 449 -156 478 -183 q 421 -86 421 -128 "},"˜":{"ha":833,"x_min":225,"x_max":574,"o":"m 482 1035 q 403 1065 460 1035 q 314 1094 347 1094 q 257 1063 281 1094 q 225 976 233 1031 l 239 976 q 314 1033 263 1033 q 392 1003 335 1033 q 478 972 450 972 q 525 985 506 972 q 572 1082 564 1013 l 558 1082 q 482 1035 539 1035 "},"˝":{"ha":833,"x_min":278,"x_max":626,"o":"m 294 1043 q 457 1210 382 1126 q 372 1228 422 1225 q 279 1046 321 1136 l 294 1043 m 464 1043 q 626 1210 532 1106 q 542 1228 583 1228 q 449 1046 490 1147 l 464 1043 "},"̦":{"ha":0,"x_min":40,"x_max":153,"o":"m 94 0 q 54 -24 63 0 q 51 -49 49 -36 q 56 -60 53 -54 q 63 -70 60 -67 q 72 -80 67 -74 q 79 -89 76 -86 q 85 -160 107 -122 q 42 -190 72 -181 l 44 -200 q 135 -147 101 -197 q 153 -91 153 -119 q 140 -31 153 -62 q 110 0 126 0 q 94 0 94 0 "},"Δ":{"ha":906,"x_min":7,"x_max":899,"o":"m 899 0 l 899 14 l 460 992 l 446 992 l 7 14 l 7 0 l 899 0 m 775 42 l 68 42 l 426 850 l 775 42 "},"Ω":{"ha":1122,"x_min":74,"x_max":1046,"o":"m 646 0 l 979 0 l 1046 194 l 1032 194 q 961 101 993 125 q 869 76 929 76 l 689 76 q 838 160 768 103 q 949 283 907 217 q 1039 536 1039 425 q 976 767 1039 663 q 805 931 914 871 q 563 992 696 992 q 317 931 429 992 q 144 769 204 871 q 83 551 83 668 q 219 206 83 357 q 428 76 297 121 l 250 76 q 158 101 190 76 q 88 194 126 125 l 74 194 l 140 0 l 469 0 l 469 90 q 365 165 414 122 q 181 536 181 326 q 292 830 181 710 q 564 950 403 950 q 759 895 671 950 q 895 748 847 840 q 943 549 943 656 q 840 261 943 389 q 646 90 754 153 l 646 0 "},"μ":{"ha":1293,"x_min":21,"x_max":1274,"o":"m 1250 14 q 1183 38 1213 14 q 1149 101 1154 61 l 1042 992 l 1029 992 l 650 154 l 263 992 l 249 992 l 144 101 q 110 38 139 61 q 43 14 82 14 l 21 14 l 21 0 l 290 0 l 290 13 l 269 13 q 229 31 246 13 q 215 72 213 50 l 275 751 l 631 -19 l 644 -19 q 692 122 653 38 l 983 771 l 1046 72 q 1032 31 1049 49 q 992 13 1015 13 l 971 13 l 971 0 l 1272 0 l 1272 14 l 1250 14 "},"π":{"ha":976,"x_min":75,"x_max":901,"o":"m 643 14 l 629 14 l 628 0 l 901 0 l 901 14 l 886 14 q 849 24 865 14 q 810 88 811 44 l 810 746 q 833 798 811 776 q 886 819 856 819 l 901 819 l 901 833 l 76 833 l 76 819 l 92 819 q 129 810 113 819 q 168 744 168 788 l 168 89 q 146 36 168 58 q 92 14 124 14 l 76 14 l 76 0 l 350 0 l 349 14 l 335 14 q 281 35 303 14 q 257 88 258 57 l 257 718 q 280 770 258 749 q 332 792 301 792 l 646 792 q 698 769 676 792 q 721 717 719 747 l 721 89 q 697 36 719 58 q 643 14 675 14 "},"Ẁ":{"ha":1325,"x_min":-14,"x_max":1674,"o":"m 1654 1311 q 1301 1129 1440 1311 q 1190 911 1226 1032 l 985 224 l 710 993 l 697 994 l 439 197 l 228 874 q 224 904 224 888 q 238 940 224 921 q 282 958 253 958 l 294 958 l 294 972 l -14 972 l -14 958 l -3 958 q 68 937 33 958 q 119 874 103 915 l 400 81 q 261 -139 351 -51 q 172 -199 217 -182 q 99 -215 126 -215 q 51 -211 72 -215 l 49 -225 q 122 -233 88 -233 q 303 -168 222 -233 q 464 76 414 -81 l 688 776 l 971 -17 l 983 -17 q 1014 138 986 50 l 1281 911 q 1375 1108 1319 1022 q 1450 1201 1410 1163 q 1549 1267 1490 1239 q 1672 1297 1607 1294 l 1672 1311 q 1654 1311 1664 1311 m 714 1071 q 538 1253 625 1168 q 481 1179 501 1218 q 704 1061 592 1114 l 714 1071 "},"ẁ":{"ha":1364,"x_min":-14,"x_max":1379,"o":"m 714 1085 q 538 1267 626 1182 q 481 1193 501 1232 q 704 1075 593 1128 l 714 1085 m 1378 958 l 1378 972 l 1104 972 l 1104 958 l 1117 958 q 1160 940 1146 958 q 1174 906 1174 922 q 1169 875 1174 890 l 983 225 l 710 993 l 697 994 l 439 197 l 228 874 q 224 904 224 888 q 238 940 224 921 q 282 958 253 958 l 294 958 l 294 972 l -14 972 l -14 958 l -3 958 q 68 937 33 958 q 119 874 103 915 l 435 -17 l 447 -17 q 476 138 450 51 l 688 778 l 971 -17 l 983 -17 q 1014 138 986 50 l 1244 872 q 1295 937 1260 915 q 1367 958 1331 958 l 1378 958 "},"Ẃ":{"ha":1325,"x_min":-14,"x_max":1674,"o":"m 1654 1311 q 1301 1129 1440 1311 q 1190 911 1226 1032 l 985 224 l 710 993 l 697 994 l 439 197 l 228 874 q 224 904 224 888 q 238 940 224 921 q 282 958 253 958 l 294 958 l 294 972 l -14 972 l -14 958 l -3 958 q 68 937 33 958 q 119 874 103 915 l 400 81 q 261 -139 351 -51 q 172 -199 217 -182 q 99 -215 126 -215 q 51 -211 72 -215 l 49 -225 q 122 -233 88 -233 q 303 -168 222 -233 q 464 76 414 -81 l 688 776 l 971 -17 l 983 -17 q 1014 138 986 50 l 1281 911 q 1375 1108 1319 1022 q 1450 1201 1410 1163 q 1549 1267 1490 1239 q 1672 1297 1607 1294 l 1672 1311 q 1654 1311 1664 1311 m 704 1061 q 928 1179 838 1128 q 871 1253 908 1215 q 694 1071 800 1185 l 704 1061 "},"ẃ":{"ha":1364,"x_min":-14,"x_max":1379,"o":"m 704 1075 q 928 1193 839 1142 q 871 1267 908 1229 q 694 1085 800 1199 l 704 1075 m 1378 958 l 1378 972 l 1104 972 l 1104 958 l 1117 958 q 1160 940 1146 958 q 1174 906 1174 922 q 1169 875 1174 890 l 983 225 l 710 993 l 697 994 l 439 197 l 228 874 q 224 904 224 888 q 238 940 224 921 q 282 958 253 958 l 294 958 l 294 972 l -14 972 l -14 958 l -3 958 q 68 937 33 958 q 119 874 103 915 l 435 -17 l 447 -17 q 476 138 450 51 l 688 778 l 971 -17 l 983 -17 q 1014 138 986 50 l 1244 872 q 1295 937 1260 915 q 1367 958 1331 958 l 1378 958 "},"Ẅ":{"ha":1325,"x_min":-14,"x_max":1674,"o":"m 1654 1311 q 1301 1129 1440 1311 q 1190 911 1226 1032 l 985 224 l 710 993 l 697 994 l 439 197 l 228 874 q 224 904 224 888 q 238 940 224 921 q 282 958 253 958 l 294 958 l 294 972 l -14 972 l -14 958 l -3 958 q 68 937 33 958 q 119 874 103 915 l 400 81 q 261 -139 351 -51 q 172 -199 217 -182 q 99 -215 126 -215 q 51 -211 72 -215 l 49 -225 q 122 -233 88 -233 q 303 -168 222 -233 q 464 76 414 -81 l 688 776 l 971 -17 l 983 -17 q 1014 138 986 50 l 1281 911 q 1375 1108 1319 1022 q 1450 1201 1410 1163 q 1549 1267 1490 1239 q 1672 1297 1607 1294 l 1672 1311 q 1654 1311 1664 1311 m 612 1077 q 628 1115 628 1093 q 612 1153 628 1138 q 573 1169 596 1169 q 535 1153 550 1169 q 519 1115 519 1138 q 535 1077 519 1093 q 573 1061 550 1061 q 604 1069 596 1061 q 612 1077 612 1077 m 873 1077 q 889 1115 889 1093 q 873 1153 889 1138 q 835 1169 857 1169 q 797 1153 813 1169 q 781 1115 781 1138 q 797 1077 781 1093 q 835 1061 813 1061 q 865 1069 857 1061 q 873 1077 873 1077 "},"ẅ":{"ha":1364,"x_min":-14,"x_max":1379,"o":"m 612 1091 q 628 1129 628 1107 q 612 1167 628 1151 q 574 1183 596 1183 q 535 1167 551 1183 q 519 1129 519 1151 q 535 1091 519 1107 q 574 1075 551 1075 q 604 1083 596 1075 q 612 1091 612 1091 m 874 1091 q 889 1129 889 1107 q 874 1167 889 1151 q 835 1183 858 1183 q 797 1167 813 1183 q 781 1129 781 1151 q 797 1091 781 1107 q 835 1075 813 1075 q 866 1083 858 1075 q 874 1091 874 1091 m 1378 958 l 1378 972 l 1104 972 l 1104 958 l 1117 958 q 1160 940 1146 958 q 1174 906 1174 922 q 1169 875 1174 890 l 983 225 l 710 993 l 697 994 l 439 197 l 228 874 q 224 904 224 888 q 238 940 224 921 q 282 958 253 958 l 294 958 l 294 972 l -14 972 l -14 958 l -3 958 q 68 937 33 958 q 119 874 103 915 l 435 -17 l 447 -17 q 476 138 450 51 l 688 778 l 971 -17 l 983 -17 q 1014 138 986 50 l 1244 872 q 1295 937 1260 915 q 1367 958 1331 958 l 1378 958 "},"Ỳ":{"ha":858,"x_min":-56,"x_max":915,"o":"m 469 1071 q 293 1253 382 1168 q 236 1179 257 1218 q 460 1061 349 1114 l 469 1071 m -56 1051 l -56 1038 q 111 958 26 1038 q 257 764 196 878 q 357 525 318 650 q 396 307 396 400 l 396 100 q 368 39 394 64 q 307 14 342 14 l 289 14 l 289 0 l 592 0 l 592 14 l 575 14 q 529 26 550 14 q 486 101 486 51 l 486 306 q 523 517 486 393 q 617 758 560 642 q 756 956 675 874 q 915 1038 838 1038 l 915 1051 q 763 1014 838 1051 q 701 969 732 999 q 647 915 669 940 q 601 848 625 890 q 561 778 576 806 q 526 701 546 750 q 495 626 506 653 q 472 566 485 600 q 456 522 460 532 q 446 547 451 533 q 428 598 444 553 q 388 703 413 643 q 352 779 368 750 q 310 850 336 808 q 260 917 285 892 q 199 973 235 943 q 127 1018 164 1003 q 47 1042 90 1033 q -21 1051 4 1051 q -56 1051 -46 1051 "},"ỳ":{"ha":918,"x_min":-14,"x_max":933,"o":"m 486 1071 q 311 1253 399 1168 q 254 1179 274 1218 q 476 1061 365 1114 l 486 1071 m 933 958 l 933 972 l 625 972 l 625 958 l 642 958 q 689 931 672 958 q 699 901 699 915 q 692 874 699 886 l 469 483 l 261 872 q 254 901 254 886 q 263 931 254 915 q 310 958 279 958 l 328 958 l 328 972 l -14 972 l -14 958 l 6 958 q 85 935 47 958 q 144 878 124 911 l 410 435 l 410 100 q 383 39 408 64 q 321 14 357 14 l 303 14 l 303 0 l 606 0 l 606 14 l 589 14 q 526 40 551 14 q 500 101 500 65 l 500 433 l 774 878 q 835 935 799 913 q 914 958 872 958 l 933 958 "},"–":{"ha":694,"x_min":0,"x_max":694,"o":"m 0 376 l 694 376 l 694 432 l 0 432 l 0 376 "},"—":{"ha":1111,"x_min":0,"x_max":1111,"o":"m 0 376 l 1111 376 l 1111 432 l 0 432 l 0 376 "},"‘":{"ha":269,"x_min":61,"x_max":208,"o":"m 139 822 q 192 855 178 822 q 167 931 207 888 q 140 1008 136 965 q 159 1047 142 1029 q 208 1076 176 1065 l 204 1089 q 86 1018 129 1086 q 61 943 61 981 q 75 873 61 906 q 108 831 89 840 q 139 822 128 822 "},"’":{"ha":263,"x_min":61,"x_max":203,"o":"m 63 842 l 65 831 q 179 896 138 832 q 201 968 201 932 q 185 1044 201 1004 q 126 1083 169 1083 q 79 1056 92 1083 q 75 1017 71 1038 q 100 982 78 1007 q 129 914 129 949 q 115 878 129 901 q 63 842 101 854 "},"‚":{"ha":269,"x_min":61,"x_max":210,"o":"m 63 -124 l 67 -135 q 185 -65 142 -132 q 210 10 210 -28 q 192 89 210 47 q 129 131 175 131 q 79 101 93 131 q 76 61 71 82 q 103 24 79 50 q 132 -49 132 -10 q 118 -85 132 -61 q 63 -124 104 -110 "},"“":{"ha":464,"x_min":57,"x_max":400,"o":"m 136 822 q 189 855 175 822 q 164 931 203 888 q 136 1008 132 965 q 156 1047 139 1029 q 204 1076 172 1065 l 201 1089 q 82 1018 125 1086 q 58 943 58 981 q 72 873 58 906 q 104 831 85 840 q 136 822 124 822 m 399 1076 l 396 1089 q 276 1018 319 1086 q 253 943 253 981 q 270 864 253 906 q 332 822 288 822 q 383 854 369 822 q 358 931 397 888 q 329 1001 329 963 q 343 1038 329 1014 q 399 1076 357 1063 "},"”":{"ha":464,"x_min":61,"x_max":397,"o":"m 272 1053 q 269 1021 265 1038 q 276 1006 271 1014 q 284 994 281 999 q 294 982 288 990 q 304 971 301 974 q 322 906 325 944 q 303 869 319 888 q 257 842 288 851 l 260 831 q 374 896 332 832 q 397 968 397 932 q 384 1035 397 1004 q 352 1075 371 1067 q 322 1083 333 1083 q 272 1053 286 1083 m 63 842 l 65 831 q 179 896 138 832 q 201 968 201 932 q 185 1044 201 1004 q 126 1083 169 1083 q 79 1056 92 1083 q 75 1017 71 1038 q 100 982 78 1007 q 129 914 129 949 q 115 878 129 901 q 63 842 101 854 "},"„":{"ha":460,"x_min":63,"x_max":399,"o":"m 75 88 q 106 24 71 63 q 133 -58 139 -12 q 114 -99 132 -79 q 63 -129 96 -118 l 67 -142 q 192 -69 146 -139 q 217 10 217 -29 q 203 81 217 50 q 173 124 190 111 q 146 136 156 136 q 127 136 136 136 q 102 128 118 136 q 81 108 86 119 q 75 88 75 96 m 263 104 q 260 68 256 86 q 267 52 261 61 q 276 39 272 43 q 288 26 279 35 q 299 13 296 17 q 318 -58 321 -15 q 297 -99 315 -79 q 246 -129 279 -118 l 250 -142 q 340 -107 300 -140 q 399 22 399 -60 q 385 83 399 49 q 351 128 371 118 q 318 138 331 138 q 263 104 278 138 "},"†":{"ha":718,"x_min":56,"x_max":664,"o":"m 664 608 l 644 661 l 428 638 l 367 617 l 388 674 l 411 972 l 361 992 l 307 972 l 332 674 l 353 617 l 290 636 l 75 661 l 56 608 l 75 557 l 290 581 l 353 603 l 332 543 l 314 215 l 353 -250 l 367 -250 l 404 215 l 388 543 l 365 603 l 428 582 l 644 557 l 664 608 "},"‡":{"ha":719,"x_min":56,"x_max":665,"o":"m 646 183 l 431 160 l 368 139 l 389 197 l 413 371 l 388 543 l 365 603 l 428 582 l 644 557 l 664 608 l 644 661 l 428 638 l 367 617 l 388 674 l 411 972 l 361 992 l 307 972 l 332 674 l 353 617 l 290 636 l 75 661 l 56 608 l 75 557 l 290 581 l 353 603 l 332 543 l 308 371 l 333 197 l 354 139 l 292 160 l 76 183 l 57 132 l 76 79 l 292 104 l 354 125 l 333 67 l 308 -232 l 360 -251 l 413 -232 l 389 67 l 368 125 l 431 104 l 646 79 l 665 132 l 646 183 "},"•":{"ha":465,"x_min":97,"x_max":369,"o":"m 109 407 q 138 356 121 372 q 214 318 154 339 l 233 315 q 269 324 243 315 q 312 343 294 332 q 340 372 329 354 q 360 415 351 389 q 369 451 369 442 q 358 496 369 461 q 329 547 346 531 q 278 576 313 564 q 233 588 243 588 q 189 576 224 588 q 138 547 154 564 q 109 495 121 529 q 97 451 97 461 q 103 424 97 442 q 109 407 109 407 m 284 393 q 233 375 271 381 q 208 381 228 375 q 179 397 189 388 q 163 426 169 407 q 157 451 157 446 q 163 476 157 457 q 179 506 169 496 q 208 522 189 515 q 233 528 228 528 q 258 522 239 528 q 288 506 278 515 q 303 476 297 496 q 310 451 310 457 q 303 426 310 446 q 291 399 297 406 q 284 393 284 393 "},"…":{"ha":790,"x_min":63,"x_max":729,"o":"m 169 13 q 188 57 188 31 q 169 101 188 83 q 125 119 151 119 q 81 101 99 119 q 63 57 63 83 q 81 13 63 31 q 125 -6 99 -6 q 160 3 151 -6 q 169 13 169 13 m 447 13 q 465 57 465 31 q 447 101 465 83 q 403 119 429 119 q 358 101 376 119 q 340 57 340 83 q 358 13 340 31 q 403 -6 376 -6 q 438 3 429 -6 q 447 13 447 13 m 711 13 q 729 57 729 31 q 711 101 729 83 q 667 119 693 119 q 622 101 640 119 q 604 57 604 83 q 622 13 604 31 q 667 -6 640 -6 q 702 3 693 -6 q 711 13 711 13 "},"‰":{"ha":1410,"x_min":61,"x_max":1349,"o":"m 432 917 q 519 886 485 889 q 588 892 553 883 q 618 902 600 894 q 644 913 636 910 q 670 927 651 917 q 693 939 689 938 l 199 0 l 233 -15 l 751 972 l 721 985 q 673 958 717 983 q 598 923 629 933 q 530 913 567 913 q 432 946 493 913 q 352 985 378 978 q 294 992 326 992 q 150 925 213 992 q 61 661 61 829 q 89 567 61 611 q 214 501 129 501 q 363 567 299 501 q 454 828 454 661 q 432 917 454 874 m 374 746 q 315 588 356 646 q 219 529 274 529 q 144 588 165 529 q 133 685 133 618 q 165 838 133 751 q 296 964 213 964 q 371 906 350 964 q 382 833 382 874 q 374 746 382 793 m 588 404 q 497 140 497 311 q 525 47 497 92 q 650 -19 565 -19 q 799 47 735 -19 q 890 311 890 140 q 863 404 890 360 q 738 471 822 471 q 588 404 653 471 m 1196 471 q 1010 357 1079 471 q 966 244 976 300 q 956 140 956 189 q 983 47 956 92 q 1108 -19 1024 -19 q 1257 47 1193 -19 q 1349 311 1349 140 q 1321 404 1349 360 q 1196 471 1281 471 m 810 225 q 751 67 792 125 q 656 8 710 8 q 581 67 601 8 q 569 138 569 97 q 578 225 569 179 q 637 385 596 326 q 732 443 678 443 q 807 385 786 443 q 818 313 818 354 q 810 225 818 272 m 1268 225 q 1209 67 1250 125 q 1114 8 1168 8 q 1039 67 1060 8 q 1028 138 1028 97 q 1036 225 1028 179 q 1095 385 1054 326 q 1190 443 1136 443 q 1265 385 1244 443 q 1276 313 1276 354 q 1268 225 1276 272 "},"‹":{"ha":365,"x_min":54,"x_max":311,"o":"m 310 674 l 299 681 q 190 531 246 592 q 56 406 133 469 q 299 125 193 290 l 311 132 q 146 406 249 289 q 310 674 249 518 "},"›":{"ha":365,"x_min":56,"x_max":311,"o":"m 56 132 l 68 125 q 311 406 174 290 q 177 531 233 469 q 68 681 121 592 l 57 674 q 221 406 118 518 q 56 132 117 289 "},"⁄":{"ha":753,"x_min":26,"x_max":726,"o":"m 692 992 l 28 3 l 63 -19 l 725 968 l 692 992 "},"€":{"ha":1018,"x_min":-14,"x_max":950,"o":"m 643 -18 q 822 3 738 -18 q 947 68 906 25 l 949 214 l 935 214 q 845 69 917 114 q 634 24 774 24 q 384 128 494 24 q 244 394 274 232 l 772 394 l 786 436 l 239 436 q 238 485 238 461 q 239 533 238 510 l 819 533 l 835 575 l 244 575 q 382 844 271 738 q 643 950 493 950 q 782 932 721 950 q 845 903 819 921 q 881 858 871 885 q 892 813 892 832 q 889 776 892 794 l 903 776 l 947 910 q 643 992 879 992 q 312 874 453 992 q 140 575 171 756 l 1 575 l -14 533 l 135 533 q 133 485 133 510 q 135 436 133 461 l 1 436 l -14 394 l 142 394 q 314 99 174 215 q 643 -18 454 -18 "},"™":{"ha":619,"x_min":13,"x_max":607,"o":"m 240 922 l 240 979 q 193 972 224 972 l 61 972 q 14 979 31 972 l 14 922 l 18 922 l 18 929 q 24 945 18 939 q 40 953 31 951 l 106 953 l 106 726 q 98 710 106 717 q 81 703 90 703 l 76 703 l 76 699 l 178 699 l 178 703 l 174 703 q 156 710 163 703 q 149 726 149 717 l 149 953 l 214 953 q 230 945 224 951 q 236 929 236 939 l 236 922 l 240 922 m 600 703 q 572 726 578 703 l 529 978 l 525 978 l 425 761 l 310 978 l 306 978 l 276 726 q 249 703 274 703 l 242 703 l 242 699 l 328 699 l 328 703 l 321 703 q 310 708 315 703 q 306 719 306 713 l 318 879 l 414 693 l 417 693 q 431 733 419 710 l 504 888 l 529 719 q 526 708 531 713 q 514 703 521 703 l 508 703 l 508 699 l 607 699 l 607 703 l 600 703 "},"∂":{"ha":786,"x_min":82,"x_max":704,"o":"m 388 601 q 339 596 363 601 q 147 464 218 567 q 99 360 114 417 q 83 249 83 304 q 99 146 83 194 q 342 -19 153 -19 q 538 44 457 -19 q 657 221 610 101 q 704 515 704 340 q 674 727 704 622 q 572 907 643 832 q 360 994 488 994 q 225 960 282 994 q 97 811 150 915 l 110 801 q 324 925 197 925 q 517 839 450 925 q 604 522 604 725 q 604 511 604 517 q 388 601 499 601 m 604 492 l 603 463 q 519 147 589 272 q 346 21 449 21 q 247 57 289 21 q 181 235 181 114 q 192 321 181 272 q 285 496 219 436 q 417 549 342 549 q 604 492 501 549 "},"∏":{"ha":1060,"x_min":75,"x_max":985,"o":"m 726 -264 l 713 -264 l 711 -278 l 985 -278 l 985 -264 l 969 -264 q 916 -242 939 -264 q 893 -190 893 -221 l 893 885 q 917 937 894 915 q 969 958 939 958 l 985 958 l 985 972 l 76 972 l 76 958 l 92 958 q 129 949 113 958 q 168 883 168 926 l 168 -189 q 158 -226 168 -210 q 92 -264 135 -264 l 76 -264 l 76 -278 l 350 -278 l 349 -264 l 335 -264 q 281 -242 303 -264 q 257 -190 258 -221 l 257 857 q 280 909 258 888 q 332 931 301 931 l 729 931 q 781 908 760 931 q 804 856 803 886 l 804 -189 q 781 -242 803 -221 q 726 -264 758 -264 "},"∑":{"ha":882,"x_min":56,"x_max":835,"o":"m 56 -250 l 789 -250 l 835 13 l 821 13 q 755 -110 800 -62 q 642 -161 710 -157 l 160 -161 l 500 388 l 183 931 l 697 931 q 754 906 731 929 q 778 847 778 882 l 778 824 l 792 822 l 792 997 q 731 982 778 992 q 622 972 683 972 l 64 972 l 64 958 l 422 350 l 56 -236 l 56 -250 "},"−":{"ha":668,"x_min":56,"x_max":614,"o":"m 56 399 l 614 399 l 614 461 l 56 461 l 56 399 "},"√":{"ha":825,"x_min":26,"x_max":799,"o":"m 35 556 l 149 572 l 371 -204 l 797 1168 l 756 1171 l 392 13 l 221 625 l 28 597 l 35 556 "},"∞":{"ha":824,"x_min":54,"x_max":825,"o":"m 439 365 q 531 269 474 308 q 658 229 589 229 q 776 281 728 229 q 824 411 824 332 q 775 543 824 490 q 662 596 726 596 q 540 558 597 596 q 440 464 482 521 q 340 558 397 521 q 217 596 282 596 q 104 543 153 596 q 56 411 56 490 q 103 281 56 332 q 220 229 151 229 q 347 268 289 229 q 439 365 404 307 m 118 413 q 150 500 118 464 q 225 536 182 536 q 401 414 310 536 q 321 325 368 361 q 228 289 274 289 q 150 325 182 289 q 118 387 118 361 q 118 413 118 413 m 478 414 q 654 536 569 536 q 708 519 683 536 q 747 474 732 503 q 761 403 761 446 q 730 325 761 361 q 652 289 699 289 q 559 324 606 289 q 478 414 513 358 "},"∫":{"ha":611,"x_min":28,"x_max":571,"o":"m 311 1001 q 271 806 281 925 q 225 -87 267 732 q 176 -212 218 -212 q 144 -192 156 -212 q 132 -172 139 -183 q 115 -149 125 -160 q 81 -137 104 -137 q 43 -155 58 -137 q 28 -193 28 -172 q 75 -253 28 -229 q 143 -267 103 -267 q 286 -167 244 -267 q 313 -84 304 -125 q 327 30 322 -43 q 374 922 332 103 q 422 1047 379 1047 q 450 1032 439 1047 q 458 1018 454 1025 q 468 1002 463 1011 q 484 983 474 993 q 517 972 494 972 q 556 990 540 972 q 571 1024 571 1007 q 558 1062 571 1042 q 514 1092 546 1082 q 464 1101 482 1101 q 311 1001 354 1101 "},"≈":{"ha":668,"x_min":56,"x_max":614,"o":"m 196 604 q 56 519 119 604 l 93 486 q 104 497 94 488 q 116 508 114 507 q 127 517 118 510 q 139 527 136 525 q 150 534 142 529 q 164 540 158 539 q 178 542 169 540 q 197 542 188 543 q 228 538 206 542 q 324 499 251 533 q 443 457 396 465 q 471 456 460 457 q 496 459 482 454 q 519 467 510 464 q 542 478 529 469 q 561 491 554 486 q 578 505 568 496 q 592 519 588 514 q 605 531 597 524 q 614 540 613 539 l 576 575 q 538 545 550 554 q 501 527 525 536 q 463 518 476 518 q 433 522 450 518 q 331 565 415 525 q 196 604 247 604 m 196 368 q 56 283 119 368 l 93 250 q 103 260 96 251 q 114 270 111 268 q 124 279 117 272 q 134 288 131 286 q 144 294 138 290 q 156 300 151 299 q 168 303 161 301 q 182 306 175 306 q 197 306 189 307 q 226 302 206 306 q 284 281 246 299 q 364 246 322 264 q 443 221 406 228 q 466 219 460 221 q 478 218 472 218 q 497 223 485 218 q 519 231 510 228 q 542 242 529 233 q 561 255 554 250 q 578 269 568 260 q 592 283 588 278 q 605 295 597 288 q 614 304 613 303 l 576 339 q 538 309 550 318 q 501 291 525 300 q 453 282 476 282 q 378 307 431 282 q 288 347 339 325 q 196 368 238 368 "},"≠":{"ha":668,"x_min":56,"x_max":614,"o":"m 614 506 l 614 568 l 450 568 l 511 694 l 456 721 l 381 568 l 56 568 l 56 506 l 350 506 l 263 325 l 56 325 l 56 263 l 232 263 l 163 118 l 219 93 l 301 263 l 614 263 l 614 325 l 332 325 l 419 506 l 614 506 "},"≤":{"ha":668,"x_min":56,"x_max":614,"o":"m 614 818 l 56 553 l 56 490 l 614 225 l 614 292 l 138 522 l 614 751 l 614 818 m 56 60 l 614 60 l 614 122 l 56 122 l 56 60 "},"≥":{"ha":668,"x_min":56,"x_max":614,"o":"m 56 818 l 56 751 l 531 522 l 56 292 l 56 225 l 614 490 l 614 553 l 56 818 m 56 60 l 614 60 l 614 122 l 56 122 l 56 60 "},"◊":{"ha":736,"x_min":68,"x_max":668,"o":"m 668 486 l 360 992 l 69 486 l 360 -19 l 668 486 m 129 486 l 360 896 l 608 486 l 360 76 l 129 486 "},"ﬁ":{"ha":1221,"x_min":82,"x_max":1139,"o":"m 656 957 l 656 997 q 584 981 635 989 q 490 972 533 972 l 83 972 l 85 958 l 101 958 q 163 935 136 958 q 190 879 190 913 l 190 101 q 163 40 189 65 q 101 14 138 14 l 83 14 l 83 0 l 388 0 l 388 14 l 369 14 q 307 40 333 14 q 281 101 281 65 l 281 458 l 517 458 q 563 438 544 457 q 582 390 582 418 l 582 369 l 596 369 l 596 589 l 582 589 l 582 568 q 563 521 582 540 q 515 500 543 501 l 281 500 l 281 929 l 574 929 q 622 909 603 929 q 642 861 642 889 l 642 840 l 656 840 l 656 957 m 853 14 l 835 14 l 835 0 l 1139 0 l 1139 14 l 1121 14 q 1058 40 1085 14 q 1032 101 1032 65 l 1032 872 q 1059 933 1033 908 q 1121 958 1085 958 l 1139 958 l 1139 972 l 835 972 l 835 958 l 853 958 q 915 933 889 958 q 942 872 940 908 l 942 101 q 929 57 942 78 q 853 14 903 14 "},"ﬂ":{"ha":1532,"x_min":82,"x_max":1492,"o":"m 656 957 l 656 997 q 584 981 635 989 q 490 972 533 972 l 83 972 l 85 958 l 101 958 q 163 935 136 958 q 190 879 190 913 l 190 101 q 163 40 189 65 q 101 14 138 14 l 83 14 l 83 0 l 388 0 l 388 14 l 369 14 q 307 40 333 14 q 281 101 281 65 l 281 458 l 517 458 q 563 438 544 457 q 582 390 582 418 l 582 369 l 596 369 l 596 589 l 582 589 l 582 568 q 563 521 582 540 q 515 500 543 501 l 281 500 l 281 929 l 574 929 q 622 909 603 929 q 642 861 642 889 l 642 840 l 656 840 l 656 957 m 853 14 l 835 14 l 835 0 l 1411 0 l 1492 225 l 1478 225 q 1388 89 1442 135 q 1231 43 1333 43 l 1032 43 l 1032 871 q 1044 915 1032 894 q 1121 958 1071 958 l 1139 958 l 1139 972 l 835 972 l 835 958 l 853 958 q 915 933 889 958 q 942 871 940 907 l 942 101 q 915 40 940 65 q 853 14 889 14 "}}}
